<mxfile host="app.diagrams.net" modified="2023-05-15T08:05:18.838Z" agent="Mozilla/5.0 (Macintosh; Intel Mac OS X 10_15_7) AppleWebKit/537.36 (KHTML, like Gecko) Chrome/113.0.0.0 Safari/537.36" etag="_jlTY4x6B7COFbspgIzj" version="21.3.0" type="github">
  <diagram id="jDqMLxmEsYgeEPgoZBmx" name="Page-1">
    <mxGraphModel dx="1497" dy="771" grid="1" gridSize="10" guides="1" tooltips="1" connect="1" arrows="1" fold="1" page="1" pageScale="1" pageWidth="850" pageHeight="1100" math="0" shadow="0">
      <root>
        <mxCell id="0" />
        <mxCell id="1" parent="0" />
        <mxCell id="fgHvfDnMfx1o7fpBP95t-1" value="" style="rounded=0;whiteSpace=wrap;html=1;fillColor=#CCE5FF;" vertex="1" parent="1">
          <mxGeometry x="480" width="320" height="600" as="geometry" />
        </mxCell>
        <mxCell id="fgHvfDnMfx1o7fpBP95t-2" value="" style="rounded=0;whiteSpace=wrap;html=1;fillColor=#CCFFFF;" vertex="1" parent="1">
          <mxGeometry x="800" width="320" height="600" as="geometry" />
        </mxCell>
        <mxCell id="fgHvfDnMfx1o7fpBP95t-3" value="" style="rounded=0;whiteSpace=wrap;html=1;fillColor=#CCFFE6;" vertex="1" parent="1">
          <mxGeometry x="1120" width="320" height="600" as="geometry" />
        </mxCell>
        <mxCell id="fgHvfDnMfx1o7fpBP95t-65" style="edgeStyle=orthogonalEdgeStyle;rounded=0;orthogonalLoop=1;jettySize=auto;html=1;" edge="1" parent="1" source="fgHvfDnMfx1o7fpBP95t-4" target="fgHvfDnMfx1o7fpBP95t-5">
          <mxGeometry relative="1" as="geometry" />
        </mxCell>
        <mxCell id="fgHvfDnMfx1o7fpBP95t-66" value="&lt;b&gt;&lt;font style=&quot;font-size: 14px;&quot;&gt;Push Code&lt;/font&gt;&lt;/b&gt;" style="edgeLabel;html=1;align=center;verticalAlign=middle;resizable=0;points=[];" vertex="1" connectable="0" parent="fgHvfDnMfx1o7fpBP95t-65">
          <mxGeometry x="-0.0514" relative="1" as="geometry">
            <mxPoint as="offset" />
          </mxGeometry>
        </mxCell>
        <mxCell id="fgHvfDnMfx1o7fpBP95t-4" value="&lt;b&gt;User&lt;/b&gt;" style="verticalLabelPosition=bottom;html=1;verticalAlign=top;align=center;strokeColor=none;fillColor=#F20F2D;shape=mxgraph.azure.user;" vertex="1" parent="1">
          <mxGeometry x="520" y="30" width="70" height="70" as="geometry" />
        </mxCell>
        <mxCell id="fgHvfDnMfx1o7fpBP95t-21" style="edgeStyle=orthogonalEdgeStyle;rounded=0;orthogonalLoop=1;jettySize=auto;html=1;entryX=0;entryY=0.5;entryDx=0;entryDy=0;" edge="1" parent="1" source="fgHvfDnMfx1o7fpBP95t-5" target="fgHvfDnMfx1o7fpBP95t-20">
          <mxGeometry relative="1" as="geometry">
            <Array as="points">
              <mxPoint x="750" y="288" />
              <mxPoint x="750" y="100" />
            </Array>
          </mxGeometry>
        </mxCell>
        <mxCell id="fgHvfDnMfx1o7fpBP95t-5" value="&lt;b&gt;GitHub&lt;/b&gt;" style="dashed=0;outlineConnect=0;html=1;align=center;labelPosition=center;verticalLabelPosition=bottom;verticalAlign=top;shape=mxgraph.weblogos.github" vertex="1" parent="1">
          <mxGeometry x="630" y="250" width="75" height="75" as="geometry" />
        </mxCell>
        <mxCell id="fgHvfDnMfx1o7fpBP95t-7" value="&lt;font style=&quot;font-size: 16px;&quot;&gt;Continuous Intergration&lt;/font&gt;" style="text;html=1;strokeColor=none;fillColor=none;align=center;verticalAlign=middle;whiteSpace=wrap;rounded=0;" vertex="1" parent="1">
          <mxGeometry x="870" y="10" width="180" height="30" as="geometry" />
        </mxCell>
        <mxCell id="fgHvfDnMfx1o7fpBP95t-8" value="&lt;font style=&quot;font-size: 16px;&quot;&gt;Continuous Deployment&lt;/font&gt;" style="text;html=1;strokeColor=none;fillColor=none;align=center;verticalAlign=middle;whiteSpace=wrap;rounded=0;" vertex="1" parent="1">
          <mxGeometry x="1200" y="10" width="180" height="30" as="geometry" />
        </mxCell>
        <mxCell id="fgHvfDnMfx1o7fpBP95t-10" value="" style="shape=image;html=1;verticalAlign=top;verticalLabelPosition=bottom;labelBackgroundColor=#ffffff;imageAspect=0;aspect=fixed;image=https://cdn0.iconfinder.com/data/icons/phosphor-fill-vol-3/256/number-circle-one-fill-128.png" vertex="1" parent="1">
          <mxGeometry x="630" y="70" width="30" height="30" as="geometry" />
        </mxCell>
        <mxCell id="fgHvfDnMfx1o7fpBP95t-11" value="" style="shape=image;html=1;verticalAlign=top;verticalLabelPosition=bottom;labelBackgroundColor=#ffffff;imageAspect=0;aspect=fixed;image=https://cdn0.iconfinder.com/data/icons/phosphor-fill-vol-3/256/number-circle-two-fill-128.png" vertex="1" parent="1">
          <mxGeometry x="720" y="132" width="30" height="30" as="geometry" />
        </mxCell>
        <mxCell id="fgHvfDnMfx1o7fpBP95t-12" value="" style="shape=image;html=1;verticalAlign=top;verticalLabelPosition=bottom;labelBackgroundColor=#ffffff;imageAspect=0;aspect=fixed;image=https://cdn0.iconfinder.com/data/icons/phosphor-fill-vol-3/256/number-circle-three-fill-128.png" vertex="1" parent="1">
          <mxGeometry x="920" y="180" width="30" height="30" as="geometry" />
        </mxCell>
        <mxCell id="fgHvfDnMfx1o7fpBP95t-13" value="" style="shape=image;html=1;verticalAlign=top;verticalLabelPosition=bottom;labelBackgroundColor=#ffffff;imageAspect=0;aspect=fixed;image=https://cdn0.iconfinder.com/data/icons/phosphor-fill-vol-3/256/number-circle-four-fill-128.png" vertex="1" parent="1">
          <mxGeometry x="1040" y="132" width="30" height="30" as="geometry" />
        </mxCell>
        <mxCell id="fgHvfDnMfx1o7fpBP95t-14" value="" style="shape=image;html=1;verticalAlign=top;verticalLabelPosition=bottom;labelBackgroundColor=#ffffff;imageAspect=0;aspect=fixed;image=https://cdn0.iconfinder.com/data/icons/phosphor-fill-vol-3/256/number-circle-five-fill-128.png" vertex="1" parent="1">
          <mxGeometry x="893.67" y="380" width="30" height="30" as="geometry" />
        </mxCell>
        <mxCell id="fgHvfDnMfx1o7fpBP95t-15" value="" style="shape=image;html=1;verticalAlign=top;verticalLabelPosition=bottom;labelBackgroundColor=#ffffff;imageAspect=0;aspect=fixed;image=https://cdn0.iconfinder.com/data/icons/phosphor-fill-vol-3/256/number-circle-six-fill-128.png" vertex="1" parent="1">
          <mxGeometry x="1050" y="410" width="30" height="30" as="geometry" />
        </mxCell>
        <mxCell id="fgHvfDnMfx1o7fpBP95t-16" value="" style="shape=image;html=1;verticalAlign=top;verticalLabelPosition=bottom;labelBackgroundColor=#ffffff;imageAspect=0;aspect=fixed;image=https://cdn0.iconfinder.com/data/icons/phosphor-fill-vol-3/256/number-circle-seven-fill-128.png" vertex="1" parent="1">
          <mxGeometry x="1180" y="80" width="30" height="30" as="geometry" />
        </mxCell>
        <mxCell id="fgHvfDnMfx1o7fpBP95t-17" value="" style="shape=image;html=1;verticalAlign=top;verticalLabelPosition=bottom;labelBackgroundColor=#ffffff;imageAspect=0;aspect=fixed;image=https://cdn0.iconfinder.com/data/icons/phosphor-fill-vol-3/256/number-circle-eight-fill-128.png" vertex="1" parent="1">
          <mxGeometry x="1275" y="170.5" width="30" height="30" as="geometry" />
        </mxCell>
        <mxCell id="fgHvfDnMfx1o7fpBP95t-18" value="" style="shape=image;html=1;verticalAlign=top;verticalLabelPosition=bottom;labelBackgroundColor=#ffffff;imageAspect=0;aspect=fixed;image=https://cdn0.iconfinder.com/data/icons/phosphor-fill-vol-3/256/number-circle-nine-fill-128.png" vertex="1" parent="1">
          <mxGeometry x="1169.5" y="303.5" width="30.5" height="30.5" as="geometry" />
        </mxCell>
        <mxCell id="fgHvfDnMfx1o7fpBP95t-67" style="edgeStyle=orthogonalEdgeStyle;rounded=0;orthogonalLoop=1;jettySize=auto;html=1;" edge="1" parent="1" source="fgHvfDnMfx1o7fpBP95t-19" target="fgHvfDnMfx1o7fpBP95t-4">
          <mxGeometry relative="1" as="geometry" />
        </mxCell>
        <mxCell id="fgHvfDnMfx1o7fpBP95t-19" value="&lt;b&gt;Slack&lt;/b&gt;" style="shape=image;html=1;verticalAlign=top;verticalLabelPosition=bottom;labelBackgroundColor=#ffffff;imageAspect=0;aspect=fixed;image=https://cdn2.iconfinder.com/data/icons/social-media-2285/512/1_Slack_colored_svg-128.png" vertex="1" parent="1">
          <mxGeometry x="600" y="410" width="70" height="70" as="geometry" />
        </mxCell>
        <mxCell id="fgHvfDnMfx1o7fpBP95t-34" style="edgeStyle=orthogonalEdgeStyle;rounded=0;orthogonalLoop=1;jettySize=auto;html=1;entryX=0.286;entryY=-0.079;entryDx=0;entryDy=0;entryPerimeter=0;" edge="1" parent="1" source="fgHvfDnMfx1o7fpBP95t-20" target="fgHvfDnMfx1o7fpBP95t-30">
          <mxGeometry relative="1" as="geometry" />
        </mxCell>
        <mxCell id="fgHvfDnMfx1o7fpBP95t-41" value="&lt;font style=&quot;font-size: 14px;&quot;&gt;&lt;b&gt;Test Code&lt;/b&gt;&lt;/font&gt;" style="edgeLabel;html=1;align=center;verticalAlign=middle;resizable=0;points=[];" vertex="1" connectable="0" parent="fgHvfDnMfx1o7fpBP95t-34">
          <mxGeometry x="0.1382" y="1" relative="1" as="geometry">
            <mxPoint x="13" y="-2" as="offset" />
          </mxGeometry>
        </mxCell>
        <mxCell id="fgHvfDnMfx1o7fpBP95t-48" style="edgeStyle=orthogonalEdgeStyle;rounded=0;orthogonalLoop=1;jettySize=auto;html=1;" edge="1" parent="1" source="fgHvfDnMfx1o7fpBP95t-20" target="fgHvfDnMfx1o7fpBP95t-26">
          <mxGeometry relative="1" as="geometry">
            <Array as="points">
              <mxPoint x="1032" y="100" />
            </Array>
          </mxGeometry>
        </mxCell>
        <mxCell id="fgHvfDnMfx1o7fpBP95t-49" value="&lt;font style=&quot;font-size: 14px;&quot;&gt;&lt;b&gt;Scan Code&lt;/b&gt;&lt;/font&gt;" style="edgeLabel;html=1;align=center;verticalAlign=middle;resizable=0;points=[];" vertex="1" connectable="0" parent="fgHvfDnMfx1o7fpBP95t-48">
          <mxGeometry x="0.1288" relative="1" as="geometry">
            <mxPoint as="offset" />
          </mxGeometry>
        </mxCell>
        <mxCell id="fgHvfDnMfx1o7fpBP95t-20" value="Jenkins" style="shape=image;verticalLabelPosition=bottom;verticalAlign=top;imageAspect=0;aspect=fixed;image=data:image/svg+xml,PHN2ZyB4bWxucz0iaHR0cDovL3d3dy53My5vcmcvMjAwMC9zdmciIHdpZHRoPSI5Mi43NSIgdmlld0JveD0iMTcuNSAwLjAwOTI4NDM0NzI5NTc2MTEwOCA5Mi43NSAxMjcuOTQ5NzkwOTU0NTg5ODQiIHByZXNlcnZlQXNwZWN0UmF0aW89InhNaWRZTWlkIG1lZXQiIGhlaWdodD0iMTI3Ljk0OTc5MDk1NDU4OTg0Ij48cGF0aCBmaWxsPSIjMjAxZDFlIiBkPSJtNjMuNjI1IDEyNy44MjVjLTEuNDc1LS4xNzUtMy43NzUtLjYtNS4wMjUtLjk1bC0xLjMtLjM3NS0uNy0xLjkyNWMtLjQtMS4wNzUtMS4zNS00LjAyNS0yLjEtNi41NzVsLTEuNC00LjYyNS0xLjk3NS0uMTVjLTMuMDI1LS4yMjUtNC43NS0uNzc1LTkuNzI1LTMuMDc1LTIuNDc1LTEuMTUtNC44NzUtMi4yMjUtNS4zMjUtMi4zNzUtLjQyNS0uMTc1LTEuMDI1LS42LTEuMzUtLjkyNS0uNTI1LS41NzUtLjYtLjkyNS0uOC00LjcyNWwtLjItNC4xMjUtMS40LTEuM2MtNy43LTcuMjUtMTIuODc1LTE3LjI3NS0xNC40NS0yNy45NzUtLjUtMy40NzUtLjUtMTAuMjI1IDAtMTMuNyAxLjU1LTEwLjYgNi43MjUtMjAuNjc1IDE0LjIyNS0yNy43bDIuMS0xLjk3NS4zLTIuMDc1Yy40NzUtMy41NSAxLjc1LTYuMTI1IDMuNjI1LTcuMzI1LjU1LS4zNzUgMS0uOTc1IDEuMjc1LTEuNyAxLjMyNS0zLjQ1IDMuNDc1LTUuMzI1IDEwLjYtOS4yNSA0LjY1LTIuNTc1IDkuMDc1LTQuMTI1IDEzLjM3NS00Ljc1IDIuMzI1LS4zMjUgNy4yMjUtLjMyNSA5LjQ1LjAyNSA2LjM3NS45NSA5Ljk1IDIuNzUgMTQuNTI1IDcuMyAzLjEgMy4xIDQuODc1IDUuNTUgNS45MjUgOC4yNzUuODc1IDIuMjUgMS44MjUgNi41NSAyLjEgOS4zNzVsLjE3NSAxLjg1IDIuMzc1IDIuNjVjOC4wMjUgOC45NSAxMi4zMjUgMjAuMiAxMi4zMjUgMzIuMTUgMCA3LjYtMS43IDE0Ljg3NS01LjAyNSAyMS40MjVsLTEuMjc1IDIuNTI1Ljc3NS42YzEuMTUuOSAxLjkgMi4zNzUgMy4xNSA2LjE3NS45MjUgMi43NzUgMS4xMjUgMy43NSAxLjEyNSA1LjIyNSAwIDMuMDUtMS4xIDYuMjUtMi43IDcuNzUtMS4zMjUgMS4yNS00LjgyNSAxLjc1LTkgMS4yNzUtMS4zNzUtLjE1LTEuNjUtLjI3NS0yLjEyNS0uOTI1bC0uNTUtLjcyNS0yLjEyNS4xMjVjLTIuNi4xNzUtNCAuNi00IDEuMiAwIC44MjUtLjMyNSAxLjI1LTEuMjc1IDEuNzUtLjkyNS40NS0uOTc1LjU1LS45NzUgMS42IDAgLjYyNS4yNzUgMi40MjUuNjI1IDQuMDI1IDEuMjI1IDUuNjc1LjcyNSA2LjcyNS0zLjcyNSA3LjcyNS0uNy4xNS0uNy4xNS0uNTUgMS42MjUuMzI1IDIuODUtMS4xNzUgNC01LjgyNSA0LjQ3NS0yLjM1LjI1LTExLjM3NS4zMjUtMTMuMTUuMXoiLz48ZyBmaWxsPSIjMzM1MDYxIj48cGF0aCBkPSJtNTEuMzc1IDExMC4yMjVjLTIuNTc1LS4zNS02LjEtMS42NzUtMTAuNDc1LTMuOTI1LTMuMTc1LTEuNjI1LTQuMjUtMi4zLTQuMy0yLjY3NS0uMDI1LS4yNzUtLjEyNS0xLjk1LS4yLTMuNzUtLjQyNS04Ljk1LTIuNC0xOC43LTUuMy0yNi0uNjI1LTEuNi0xLjEtMi45NS0xLjA1LTMgLjAyNS0uMDI1IDEuNDc1LTEuMSAzLjItMi4zNzUgMy41MjUtMi42IDguMDc1LTUuMzc1IDEwLjc3NS02LjU1bDEuOC0uOCAyLjE1IDIuMjc1YzIuMyAyLjQ3NSAzLjUyNSAzLjMgNy43NzUgNS4zNWwyLjY3NSAxLjI3NS40NSAxLjkyNWMuMjUgMS4wNS44MjUgMy4xIDEuMjc1IDQuNTc1LjY3NSAyLjEgMS4wMjUgMi44IDEuNjI1IDMuMy44MjUuNyAxLjMyNS44IDIuMzI1LjQuODUtLjMyNS44MjUtLjEtLjIyNSAxLjM1LTEuMDI1IDEuNDI1LTEuMSAyLjM1LS4zIDMuMDc1LjU1LjUyNSA3LjEgMy44NSA5LjA1IDQuNmwxIC40LTIuMzc1LjE1Yy0xLjMuMS00LjE1LjI3NS02LjM1LjQyNS0zLjUyNS4yNS03Ljg3NS42NzUtMTEuMiAxLjE1LTEuMTI1LjE1LTEuMTc1LjE1LTEuMzc1LS41NS0uMjI1LS44MjUtLjI1LTQuODc1LS4wNzUtOC45LjEyNS0yLjctLjA1LTMuNC0uNzI1LTIuOTc1LS41NzUuMzUtLjcyNSAyLjE1LS40NSA1LjQ3NS4yNzUgMy40NS4wNzUgNi0uNDUgNi4yLS4xNzUuMDc1LS45MjUtLjI3NS0xLjY3NS0uNzUtLjcyNS0uNS0xLjQtLjktMS41LS45LS4zNzUgMC0uMi45NS4zIDEuNTc1LjI3NS4zNS41LjguNSAxLjAyNSAwIC40MjUtLjc1LjktMS40NS45LS41MjUgMC0xLjQ3NS45LTEuMiAxLjE3NS4wNzUuMSAxLjMuMTUgMi43MjUuMTI1IDEuNC0uMDI1IDIuNjc1LjAyNSAyLjg1LjE1LjE3NS4xLjQyNSAxLjM3NS41NzUgMi45NS4xNSAxLjUyNS42IDUuMTI1IDEgOCAuNjc1IDQuOTUuNyA1LjY1LjMgNS41NzUtLjEtLjAyNS0uODUtLjEyNS0xLjY3NS0uMjV6Ii8+PHBhdGggZD0ibTgwLjQgMTA1LjkyNWMtLjMyNS0yLjQ1LS43LTEyLjcyNS0uNDUtMTIuOTc1LjEyNS0uMTI1IDEtLjI1IDEuOTUtLjI3NWwxLjctLjA1LjMgMS4zNWMuMTc1Ljc1LjUgMy41NS43MjUgNi4yNXMuNDI1IDUuMTI1LjQ1IDUuNGMuMDUuNS0uNDc1LjY3NS0zLjYgMS4yLS45MjUuMTI1LS45MjUuMTI1LTEuMDc1LS45eiIvPjxwYXRoIGQ9Im04Mi4xNzUgODguODI1Yy4zNzUtLjY3NSAxLjQtMi4zNzUgMi4zLTMuODI1czIuNDUtNC4wMjUgMy40NS01LjcyNWwxLjg1LTMuMS0uNzI1LS45Yy0xLjA3NS0xLjM1LTEuMDc1LTEuNC0uNjI1LTIuNDI1LjMtLjcyNS40MjUtMS43MjUuNDI1LTMuODUgMC0zLjQtLjQ1LTUuMy0xLjY1LTYuNjUtLjctLjc3NS0uOS0uODc1LTEuNzUtLjgtLjUyNS4wNS0uOTI1LjAyNS0uOS0uMDc1LjA1LS4xLjc3NS0uNzUgMS42LTEuNDVsMS41NS0xLjI3NSAyLjg3NSAyLjY3NWMxLjU3NSAxLjUgMy40NSAzLjIyNSA0LjE1IDMuODc1IDEuNTc1IDEuNDUgMS42IDEuNjc1LjQyNSA2LjUyNS0xLjI1IDUuMi00LjMyNSAxMy45NzUtNS42NSAxNi4xMjUtLjY1IDEuMDUtMS4xIDEuMi00LjIgMS40LTEuNDI1LjA3NS0yLjguMjUtMy4wNS40LS43NzUuNDI1LS44LjMtLjA3NS0uOTI1eiIvPjxwYXRoIGQ9Im04MC44NzUgODcuNzc1Yy40NzUtMS41LjkyNS00LjQyNSAxLjI3NS04LjI3NS40NzUtNC44NS41MjUtNSAyLjE3NS01IDEuMiAwIDIuMzc1LjUyNSAzLjMgMS41bC43LjcyNS0xLjU3NSAyLjdjLTIuMTI1IDMuNjUtNS41NSA4LjgyNS01LjgyNSA4LjgyNS0uMSAwLS4xNS0uMi0uMDUtLjQ3NXoiLz48L2c+PGcgZmlsbD0iI2QzMzgzMyI+PHBhdGggZD0ibTMxLjkgOTIuMjI1Yy0xNC40MjUtMTUuOS0xNS42LTQwLjMtMi43NS01Ny4zNzUgMS41NS0yLjA1IDUuMDI1LTUuODUgNS4zNzUtNS44NS4xIDAgLjI3NS4zNzUuMzUuODI1LjEyNS42NS0uMDI1IDEuMTc1LS42NzUgMi40MjUtLjggMS41NzUtLjgyNSAxLjY1LS44IDQuNzI1IDAgMi44MjUuMDc1IDMuMzUuNyA1LjAyNSAxLjM1IDMuNiAzLjQyNSA1LjgyNSA2LjI1IDYuNzc1bDEuMjUuNDI1LjQ1IDEuODI1Yy4yNS45NzUuOTUgMi43MjUgMS41NzUgMy44NSAxLjIyNSAyLjI1IDEuMzc1IDMuMDc1LjcgMy43LS4yNS4yLTIuNDI1IDEuNTI1LTQuODI1IDIuOTI1LTIuNCAxLjQyNS01LjMgMy4xNzUtNi40NSAzLjktMS4xMjUuNzUtMi42MjUgMS42MjUtMy4yNzUgMS45NzUtMS42MjUuODI1LTIuNTI1IDEuOS0yLjUyNSAzLjEgMCAuODc1IDIuMTI1IDcuMzUgMy42NzUgMTEuMjc1LjQyNSAxLjAyNSAxIDIuODI1IDEuMjc1IDQgLjYgMi41IDEuMzc1IDcuMzc1IDEuMjUgNy43NzUtLjA1LjE3NS0uNzUtLjQyNS0xLjU1LTEuM3oiLz48cGF0aCBkPSJtOTEuNzUgODguMzI1YzAtLjEuNjc1LTIuMTI1IDEuNTI1LTQuNTUgMi41LTcuMjUgNS0xNS41NSA1LjE1LTE3LjAyNS4xNS0xLjc1LS4yMjUtMi4zNS0zLjQyNS01LjItNC42LTQuMS01LjUtNS4wNS01LjUtNS43MjUgMC0uMzUuNTI1LTEuNiAxLjE1LTIuNzUgMS4yNS0yLjMgMi4wNS00LjQ1IDMtOC4xLjcyNS0yLjgyNSAxLjYtOC41MjUgMS42LTEwLjUgMC0uNzc1LjA3NS0xLjc3NS4xNS0yLjJsLjE3NS0uOC42MjUuNTc1YzIuNjUgMi40NzUgNi44IDkuNDI1IDguNTI1IDE0LjMgMS45MjUgNS40MjUgMi42IDkuNTUgMi42IDE1LjUyNSAwIDQuNjI1LS4yNzUgNy4xNzUtMS4yMjUgMTAuOS0uOSAzLjYtMS45NzUgNi41LTMuNjI1IDkuNzc1bC0xLjUgMi45LTEuNi4yNzVjLTEuNi4yNzUtMy41NzUuOTUtNi4xNzUgMi4xLS44LjM1LTEuNDUuNTc1LTEuNDUuNXoiLz48cGF0aCBkPSJtNjIuMTUgNzcuOTVjLS4xNzUtLjMyNS0uNzI1LTEuNjUtMS4xNzUtMi45NS0uNzc1LTIuMi0uODUtMi42LS44NS01LjUgMC0zLjQ1LjM1LTQuNiAxLjQ3NS00LjkgMS0uMjUgNC41MjUuODc1IDcuNiAyLjQyNSAxLjYuODI1IDMuMDc1IDEuNDc1IDMuMjUgMS40NzUuMzc1IDAgLjQuNjUuMDI1LjktLjE1LjEtLjguMy0xLjQ1LjQ3NS0xLjIuMzI1LTEuMTc1LjM3NS44Ljg3NSAxLjEyNS4zIDEuMTc1LjM1IDEuMTc1IDEuMjUgMCAuODUtLjE1IDEuMDI1LTIuMDUgMi41NS0yLjc3NSAyLjItMy41IDIuNi01Ljc3NSAzLjMyNS0yLjQuNzc1LTIuNTc1Ljc3NS0zLjAyNS4wNzV6Ii8+PHBhdGggZD0ibTgxLjM3NSA3Mi44NWMtMi43MjUtLjQ3NS0yLjYyNS0uNC0yLjYyNS0xLjgyNSAwLTEuMzc1LjM3NS0xLjc3NSAxLjYyNS0xLjc3NS4zNzUgMCAuNi0uMS41LS4yNS0uMDc1LS4xMjUtLjYyNS0uMjUtMS4yLS4yNS0uOTUgMC0xLjEtLjA3NS0xLjM1LS43NS0uMjc1LS43MjUtLjI3NS0uNzUgMS43MjUtMiA1LjQtMy40NzUgNi40NzUtMy4xIDcuMiAyLjU3NS4yMjUgMS44NzUuMTI1IDMuNDI1LS4zIDQuMjUtLjI3NS41MjUtMi42LjU1LTUuNTc1LjAyNXoiLz48cGF0aCBkPSJtNzQuNjI1IDcxLjY1Yy0uMzc1LS4yNzUtLjQ3NS0uNjc1LS41LTEuOCAwLTEuNDI1LjAyNS0xLjQ1LjgtMS42NzUgMi4xMjUtLjYyNSAzLjIgMi42MjUgMS4xNzUgMy41NS0uOC4zNS0uOS4zNS0xLjQ3NS0uMDc1eiIvPjwvZz48ZyBmaWxsPSIjNmY2YzZlIj48cGF0aCBkPSJtNjQuNjI1IDEyNC45NzVjLS44MjUtLjEyNS0yLjUtLjQ3NS0zLjc1LS43NzVsLTIuMjUtLjU3NS0xLjAyNS0zLjVjLTItNi43LTMuNTI1LTE0LjI1LTQuNTc1LTIyLjM3NS0uMjUtMi0uMzc1LTMuNzI1LS4yNzUtMy44MjUuMy0uMzUgOC4yLTEuMzc1IDEyLjgtMS42NzUgMy4yMjUtLjIgNS4zMjUtLjIgNy43NS0uMDI1IDQuMjc1LjM1IDQuNzUuNSA0Ljk3NSAxLjQuMTI1LjM3NS4zMjUgMy4yNS40NzUgNi4zNS4xNzUgMy4xLjMyNSA1LjcyNS40IDUuOC4wNS4wNzUuMiAzIC4zNSA2LjUuMjUgNS44NzUuNTc1IDEwLjI1LjkgMTEuMjc1LjE1LjUtLjY3NS44LTMuNjc1IDEuMzI1LTIuMzI1LjQtOS41MjUuNDc1LTEyLjEuMXoiLz48cGF0aCBkPSJtODAuOSAxMTcuMzI1Yy0uMDc1LTEuMDc1LS4yLTMuMy0uMy00Ljk3NS0uMTc1LTMuNC0uMjc1LTMuMiAxLjg1LTMuNWwxLjItLjE1LjY3NSAzLjQ1Yy4zNzUgMS45MjUuNjc1IDQuMS42NzUgNC44NzV2MS40bC0xLjQ1LjQyNWMtMi40NzUuNy0yLjQ3NS43LTIuNjUtMS41MjV6Ii8+PHBhdGggZD0ibTk3IDEwNS4wMjVjLS41NzUtLjQyNS0uMDI1LS42NSAyLjU3NS0xLjE3NSAzLjQtLjY1IDIuMjc1LS45NzUtMi43MjUtLjc1bC00LjA3NS4xNS0uMTI1LTEuMDVjLS4wNzUtLjYtLjI3NS0yLjI1LS40MjUtMy43LS4xMjUtMS40NS0uNDI1LTMuNDUtLjYyNS00LjQ3NS0uMzUtMS42NzUtLjM1LTEuODc1LjAyNS0yLjI3NS41NS0uNiAyLjIyNS0xLjM3NSA0Ljc1LTIuMjUgMS4xLS4zNzUgMi40NzUtLjkyNSAzLjA1LTEuMjI1IDIuNTUtMS4yNzUgNC41IDAgNS42NzUgMy42NzUgMS45NSA2LjE3NSAxLjk3NSA5LjA1LjE1IDExLjM3NS0xIDEuMjUtMi4zMjUgMS43MjUtNS4yNSAxLjg1LTEuNjI1LjA3NS0yLjc3NSAwLTMtLjE1em00LjUtNi4zYy0uOS0uMzc1LTQuMDI1LS41NzUtNS4xNS0uMzVsLS45NzUuMjI1Ljg3NS4xNWMuNDc1LjEgMiAuMiAzLjM3NS4yIDEuOTI1LjAyNSAyLjM1LS4wNSAxLjg3NS0uMjI1em0tMS4zNS0zLjE1YzEuMTUtLjE3NSAxLjE3NS0uMi40NzUtLjM1LTEuMy0uMy0zLjcyNS0uMjI1LTQuNS4xNS0uNzI1LjMyNS0uNjc1LjMyNSAxLjAyNS4zNS45NzUuMDI1IDIuMzI1LS4wNSAzLS4xNXptLTIuNC0yLjg3NWMxLjcyNS0xIDEuOTUtMS4yIDEuMjUtMS4wNzUtMS44NS4zNS0zLjIyNS45MjUtNC4xNSAxLjc3NWwtLjk3NS44NzUuODc1LS4xNzVjLjQ3NS0uMDc1IDEuODI1LS43IDMtMS40eiIvPjxwYXRoIGQ9Im04Ny45IDEwMy45NzVjLS4wNS0uMi0uMjc1LTEuNzUtLjUtMy40NzVzLS41NzUtNC4yNS0uOC01LjZjLS4yMjUtMS40NzUtLjI3NS0yLjU3NS0uMTUtMi43cy43NzUtLjIgMS40NS0uMTVsMS4yMjUuMDc1LjYgMS41Yy44IDIuMDI1IDEuMjUgNC43NzUgMS4yNzUgNy41NzUgMCAyLjMgMCAyLjMyNS0uNjc1IDIuNTc1LTEuMjUuNDc1LTIuMy41NzUtMi40MjUuMnoiLz48cGF0aCBkPSJtNzMuODc1IDg3LjE1Yy0xLjc3NS0uNzI1LTQuNTI1LTEuOTUtNi4wNzUtMi43NS0yLjUyNS0xLjMtMi44LTEuNS0yLjY1LTEuOTc1LjU1LTEuNzc1IDIuMTc1LTMuNiA0Ljc3NS01LjM3NS44NzUtLjU3NSAxLjYyNS0xLjA1IDEuNjc1LTEuMDUuNDc1IDAgMy43NSA2LjI3NSA1LjYyNSAxMC43LjY1IDEuNTUuNyAxLjguMzI1IDEuOC0uMjI1IDAtMS44NzUtLjYtMy42NzUtMS4zNXoiLz48cGF0aCBkPSJtODAuODc1IDg3Ljc3NWMuNDc1LTEuNS45MjUtNC40MjUgMS4yNzUtOC4yNzUuMzI1LTMuMjc1LjUyNS00LjQ1LjgtNC42NzUuOTUtLjc3NSAzLjQ3NS0uMSA0Ljc1IDEuMjVsLjU3NS42LS42MjUgMS4xYy0xLjM3NSAyLjQ3NS0yLjQ3NSA0LjI3NS00LjQ1IDcuMy0xLjkyNSAyLjk1LTIuNyAzLjg1LTIuMzI1IDIuN3oiLz48cGF0aCBkPSJtNzkuMzI1IDg3LjEyNWMtLjI3NS0uNTUtMS4wNS0yLjIyNS0xLjctMy43NS0xLjYyNS0zLjc3NS0yLjUtNS41LTMuNjc1LTcuMi0uOTUtMS40LS45NzUtMS41LS41NS0xLjk1LjI1LS4yNzUuNzc1LS40NzUgMS4yLS40NzUuNDI1LS4wMjUgMS4wNS0uMTc1IDEuNC0uMzc1LjkyNS0uNTI1IDEuNTI1LS40NSAyLjgyNS4zNzUuNjUuNCAxLjQ3NS44MjUgMS44MjUuOWwuNjc1LjE3NS0uMTc1IDMuOTc1Yy0uMTc1IDMuOS0uNjI1IDcuNDUtMS4xIDguNy0uMjI1LjYyNS0uMjI1LjYyNS0uNzI1LS4zNzV6bS4zLTZjMC0uNjI1LS4xLS43NS0uNjI1LS43NS0uNCAwLS42NS4xNS0uNy40NS0uMTUuNzUuMTUgMS4yMjUuNzUgMS4xMjUuNDUtLjA1LjU3NS0uMjI1LjU3NS0uODI1em0tLjc3NS00Yy4yMjUtLjYyNS0uMTI1LTEuMTI1LS43NS0xLjEyNS0uMzUgMC0uNjc1LjE3NS0uNzUuMzc1LS4yNS42MjUuMSAxLjEyNS43NSAxLjEyNS4zMjUgMCAuNjUtLjE3NS43NS0uMzc1eiIvPjxwYXRoIGQ9Im01Ni4xMjUgNjcuMjc1Yy0xLjc3NS0uNjI1LTMuMTc1LTEuMzc1LTMuNzI1LTJzLS4zNzUtMS40MjUuMy0xLjE1Yy43NzUuMzI1IDIuMTUuNTc1IDQuMTI1Ljc1IDIuMTI1LjE3NSAyLjE1LjIgMS42NSAxLjk1LS4yNzUgMS4wNS0uNSAxLjEtMi4zNS40NXoiLz48cGF0aCBkPSJtNzMuMzUgNjYuNTI1Yy0uODUtLjIyNS0yLjg1LTEuMjc1LTIuODUtMS41MjUgMC0uMS44MjUtLjEyNSAxLjgyNS0uMDUgMS4zNS4wNzUgMi41LS4wNSA0LjI1LS40NSAxLjM1LS4zIDIuNTUtLjUgMi42NzUtLjQ1LjE1LjA1LS41LjY3NS0xLjQyNSAxLjQtMS43NSAxLjM3NS0yLjQ3NSAxLjU1LTQuNDc1IDEuMDc1eiIvPjxwYXRoIGQ9Im01Ni44NzUgNjMuNzVjLTIuMzc1LS4yNS01LjA1LTEuMDc1LTYuNDI1LTItMS4zLS44NzUtMi41NzUtMi42MjUtMy43MjUtNS4xNzUtMS4xMjUtMi40NzUtMi4yMjUtNS43NS0yLjM3NS03LjI1LS4xNS0xLjIyNS0uMTI1LTEuMzUuNzUtMi40MjUuNjI1LS43MjUuOS0xLjMyNS44NS0xLjctLjEtLjc1LS42NzUtLjY1LTIuMDI1LjMyNS0xLjc3NSAxLjI3NS00LjA1Ljg3NS01Ljc1LTEtMS43NzUtMS45NzUtMy4xLTUuNDUtMi44NS03LjU1LjQ1LTMuODI1IDQuMzI1LTYuNSA3LjM1LTUuMDc1LjkyNS40NSAyLjEyNSAyLjI3NSAyLjU3NSAzLjkyNS4yNS44NzUuMzI1LjkyNSAxLjI3NS45MjUuNTUgMCAxLjM3NS0uMTc1IDEuODUtLjM1IDEuMDc1LS40NSAxLjEyNS0xLjAyNS4zMjUtMy45NzUtLjctMi42NzUtLjY3NS01IC4xNS04LjkuNy0zLjMuODI1LTUuODc1LjM3NS03LjY1LS4yNzUtMS4wNS0uMjI1LTEuMi41LTIuMzI1IDIuMjUtMy41IDguOTUtOC40IDEzLjc3NS0xMC4wNzUgMi4wNzUtLjcgNi42LS43NzUgOS41NzUtLjEyNSA0LjI1LjkyNSA4Ljg3NSAyLjkyNSAxMS4wNzUgNC44IDEuMDUuOSA1LjEgNS44NSA1LjEgNi4yNSAwIC4wNS0uNDI1LjA1LS45NS0uMDUtMi4wMjUtLjMyNS00LjA1Ljg1LTQuMDUgMi4zMjUgMCAuNTc1LjAyNS41NzUuNTUuMjI1Ljk3NS0uNyAzLjAyNS0uNTI1IDQuNzUuNCAyLjYgMS4zNzUgMy41MjUgMy4yIDMuOTc1IDcuODUuNDI1IDQuMjc1LjE1IDEyLjgtLjQ3NSAxNS45LTEuMDUgNC45NS0yLjY1IDguOTc1LTUuMjI1IDEyLjk1LTIuMDUgMy4xNS0yLjk3NSA0LjItNC44NSA1LjQyNS0zLjYyNSAyLjMyNS03LjQgMy41NzUtMTAuODUgMy41NzUtMi40NzUgMC00LjA1LS40NS02Ljk3NS0xLjk1LTIuNjc1LTEuMzc1LTUuODUtNC4yNzUtOC4zNS03LjYtLjktMS4yLTEuNjc1LTIuMTUtMS43NS0yLjEtLjI3NS4zLjY1IDIuMTI1IDEuOTUgMy44NSAxLjcgMi4yNzUgNS4yNSA1Ljc1IDYuNzI1IDYuNTc1LjU1LjMyNSAxLjAyNS43IDEuMDI1LjggMCAuMTI1LS42LjEyNS0xLjMyNS4wNS0xLjU3NS0uMi0zLjE1LjE3NS0zLjguODc1LS4yNS4yNzUtLjU3NS40NzUtLjcyNS40NzUtLjE1LS4wMjUtMS4wNS0uMTI1LTIuMDI1LS4yMjV6bTIzLjctOC43NWMuNS0uMTUgMS4xNS0uNTI1IDEuNDUtLjgyNWwuNS0uNTUtNC4yLS4xNWMtNS44LS4yLTcuMzUtLjctOS40LTIuOTc1LS42NS0uNy0xLjMyNS0xLjI1LTEuNTUtMS4yLS4yNS4wNS4xMjUuNyAxLjM1IDIuMiAyLjI3NSAyLjggMi44IDMuMjUgNC4yIDMuNjVzNi4xNzUuMyA3LjY1LS4xNXptLjMyNS01LjQyNWMtLjA3NS0uNTI1LS4xNS0xLjEyNS0uMTUtMS4zNSAwLS4zNS0uNTUtLjQyNS00LjA1LS41NS0zLjY3NS0uMS01LjM1LS4zNS03LjMyNS0xLjA3NS0uOTI1LS4zMjUgMS4xNzUgMS42NSAyLjQgMi4zIDEuNzUuODc1IDQuNzUgMS41IDcuNyAxLjU3NWwxLjYuMDI1em0zLjU1LjNjMS42MjUtLjUgMy40NS0xLjk1IDQuNi0zLjY1LjUtLjc1Ljg3NS0xLjM3NS44MjUtMS40MjUtLjAyNS0uMDUtMS4wNzUuNDI1LTIuMzI1IDEuMDUtMS4yMjUuNjI1LTIuNzc1IDEuMjc1LTMuNDUgMS40MjVzLTEuMzc1LjMyNS0xLjUyNS4zNzVjLS4yLjA1LS4zMjUuNTUtLjMyNSAxLjM1IDAgMS40NS4xIDEuNDc1IDIuMi44NzV6bS0zLjM3NS00LjZjMi0uNTI1IDMuMS0xIDUuNTUtMi40NzUgMS40MjUtLjgyNSAxLjU1LS45NzUgMS45NS0yLjMyNS4yMjUtLjguNDI1LTEuNTc1LjQyNS0xLjc1IDAtLjE1LS45NzUtMS4zLTIuMTUtMi41NS0zLjYyNS0zLjg3NS01Ljg1LTcuMDc1LTcuMjUtMTAuNTUtLjE3NS0uMzc1LS4yMjUtLjIyNS0uMy42NS0uMTUgMi4yNSAxLjQ1IDUuMzI1IDUuMDI1IDkuNjI1IDIuNTI1IDMgMi44NzUgMy43NSAyLjQgNC45LS4yNS42NS0uNzUuOTc1LTIuODI1IDEuOTc1LTMgMS40LTQuMSAxLjcyNS01LjggMS43MjUtMS41IDAtMi4yNzUtLjY1LTIuNTI1LTIuMTI1LS4xMjUtLjc1LS4yLS44NS0uNC0uNS0uMzUuNjUtLjI1IDIuMjI1LjIgMy4xLjM3NS43NS40NS43NzUgMi4xLjc3NS45MjUgMCAyLjU1LS4yMjUgMy42LS40NzV6bS00MC45LTUuOTVjLjA3NS0yLjE1LjUtMy4wNzUgMS40MjUtMy4wNzUuNjc1IDAgMS4xMjUuNDc1IDEuOTI1IDIgLjU3NSAxLjEyNS42IDEuMTI1LjY3NS40LjEyNS0xLjEtLjYyNS0yLjc3NS0xLjcyNS0zLjc1LS44LS43NS0xLjE3NS0uOS0yLjA3NS0uOS0uOTI1IDAtMS4yLjEyNS0xLjc1Ljc3NS0uOC45NS0uODI1IDEuMzUtLjA1Ljg1LjctLjQ3NSAxLjUyNS0uMjUgMS4yMjUuMzUtLjQuNzc1LS4yIDUuMjc1LjIyNSA1LjI3NS4wNSAwIC4xLS44NS4xMjUtMS45MjV6bTMxLjc1LTYuOTc1Yy43NS0uNTc1Ljk3NS0xLjEuODI1LTIuMS0uMDI1LS4yLS40NzUtLjgyNS0xLTEuMzc1LS41NS0uNTUtMS4zNzUtMS44NS0xLjg3NS0yLjg3NWwtLjg3NS0xLjg3NS4wNzUgMS4xMjVjLjEgMS4xNS43MjUgMi42NSAxLjcgNC4yLjUuNzc1LjUyNS44NzUuMTI1IDEuMjUtLjMyNS4zMjUtLjc3NS40LTEuOTc1LjM1LTMuNzUtLjItMy41NS0uMi0zLjYyNS4zNS0uMjUgMS43MjUgNC43IDIuNDI1IDYuNjI1Ljk1em0xOC43LTEuMDc1Yy41NS0uMjUgMS4yLS42NzUgMS40MjUtLjk1LjQyNS0uNDUuMzc1LS42LTEuMDUtMy40LTEuMzI1LTIuNTc1LTEuNS0yLjgyNS0xLjUtMi4wNSAwIC40NzUuMyAxLjYuNjc1IDIuNS41IDEuMi42IDEuNy40IDEuOS0uMTc1LjE3NS0xLjE3NS4zNzUtMi4yNS41LTEuMDc1LjEtMS45NzUuMi0yIC4yLS4yLjA1LS4wMjUuNzUuMzI1IDEuMjI1LjMuNDUuNjI1LjU1IDEuNjc1LjU1LjcyNSAwIDEuNzUtLjIyNSAyLjMtLjQ3NXptLTMxLjEyNS0xMC44NzVjMS41LTIuMDI1IDIuOTc1LTIuNzc1IDUuMzI1LTIuNzUgMS42NzUgMCAxLjcgMCAxLjYyNS0uNjI1LS4xMjUtMS0xLjU3NS0xLjg1LTIuOC0xLjY1LTIuMTc1LjMyNS00LjkyNSAyLjUyNS01LjggNC42LS42IDEuNC0uMzUgMy40NzUuMjc1IDIuMzc1LjEyNS0uMjI1Ljc1LTEuMSAxLjM3NS0xLjk1eiIvPjxwYXRoIGQ9Im00Ni45MjUgMzQuNTc1Yy0uMS0uMDc1LS4xNzUtLjQyNS0uMTc1LS43NSAwLTEuNTc1LTEuODc1LTMuNjc1LTMuOTI1LTQuMzUtMS4yLS40LTQuMi0uMTc1LTQuOC4zNzUtLjIyNS4yMjUtLjUyNS4zMjUtLjYuMjI1LS4xLS4wNzUtLjE3NS0xLjY1LS4xNzUtMy40NSAwLTQuMjUuMzUtNS40NzUgMi4wNzUtNy4zIDEuNzUtMS44NSA0LjgtMy4zNzUgNi44NS0zLjQyNWwxLjQ1LS4wMjUuMjI1IDEuNzI1Yy4yIDEuMzUuMTI1IDIuNTUtLjMgNS43NS0uNjc1IDUuMDI1LS42NzUgNS41IDAgOC4zMjUuNDUgMS45LjQ3NSAyLjM1LjIyNSAyLjY3NS0uMzc1LjQyNS0uNi41LS44NS4yMjV6Ii8+PHBhdGggZD0ibTQxLjY3NSAxNC4yYy44NS0xLjQ3NSAzLjE1LTMuNzI1IDUuMy01LjE1IDMuOC0yLjU1IDguOS00LjQyNSA4LjktMy4zIDAgLjItLjIyNS40NzUtLjUuNjI1LTIuMDI1IDEuMDI1LTQuMTUgMy4wNS01LjI1IDQuOTI1LS4zNzUuNjUtLjk3NSAxLjUyNS0xLjM3NSAxLjk1LS42NS43LS44MjUuNzUtMi4zLjcyNS0xLjAyNS0uMDI1LTIuMDc1LjE1LTMuMDUuNS0yLjA3NS43NS0yLjI3NS43LTEuNzI1LS4yNzV6Ii8+PC9nPjxnIGZpbGw9IiM0YTczOGQiPjxwYXRoIGQ9Im0zNy4yNSAxMDQuNDI1Yy0uMzUtLjItLjYtLjQ1LS41NzUtLjU3NS4wNzUtLjQyNS0uNC03LjQtLjY3NS05LjcyNS0uNTc1LTQuODUtMS43NS0xMC44NzUtMi43NzUtMTQuMjUtLjc3NS0yLjYyNS0xLjUyNS00LjgyNS0xLjc1LTUuMzc1LS4xNzUtLjM1LS4zNzUtLjg1LS41LTEuMTI1LS45LTIuMi0uOTc1LTIuNS0uNzI1LTIuNTc1LjE1LS4wNS45NS0uNjI1IDEuNzUtMS4yNzUgMy4yLTIuNTI1IDguMTUtNS43MjUgMTEtNy4wNS45LS40MjUgMS45LS45IDIuMjI1LTEuMDUuNTUtLjI3NS43LS4xNzUgMi4xNzUgMS40NS44NzUuOTUgMS42IDEuOCAxLjYgMS44NzUgMCAuMTc1LjE1LjEtOC4zNzUgMy44NzUtMy4zIDEuNDc1LTYuMDUgMi43LTYuMDc1IDIuNzUtLjA1LjA1LjIgMS40MjUuNTc1IDMuMDUgMS40MjUgNi4zMjUgMi41MjUgMTIuOCAzLjEyNSAxOC4yNzUuNDUgNC4xMjUuMyAxMi4wNS0uMjI1IDEyLjA1LS4wNzUgMC0uNDI1LS4xNS0uNzc1LS4zMjV6Ii8+PHBhdGggZD0ibTc5Ljk1IDk2LjZjLS4yNS0uMjI1LS4yNS0xLjc1LS4wNS0yLjguMTc1LS44NzUuNS0xLjA1IDIuMzI1LTEuMTUgMS4yLS4xIDEuMjUtLjA3NSAxLjUuNjc1LjE1LjQuMjc1IDEuMTI1LjI3NSAxLjYgMCAuNzUtLjEyNS45LS45MjUgMS4yNS0xLjEuNDUtMi44NzUuNy0zLjEyNS40MjV6Ii8+PHBhdGggZD0ibTQ5IDk1Ljc1Yy0xLjc1LS4zLTIuNjUtLjYtMy40NS0xLjEyNS0uNzI1LS40NzUtLjk3NS0uNzc1LS43NS0uOS4xNS0uMS40MjUtLjEyNS41NzUtLjAyNS4xMjUuMSAxLjQ1LjE3NSAyLjkyNS4xNzUgMS42MjUgMCAyLjc3NS4xIDIuOTUuMjc1LjE1LjE1LjI1LjY3NS4yIDEuMTVsLS4wNzUuODV6Ii8+PHBhdGggZD0ibTUyLjQgOTEuMWMtLjItLjUyNS0uMi02LjY3NSAwLTkuNTVsLjE3NS0yLjI3NS45NSAxLjIuOTc1IDEuMjI1djQuNzc1YzAgMi42MjUtLjA3NSA0Ljc3NS0uMTc1IDQuOC0uMTI1IDAtLjU1LjA1LTEgLjEtLjU1LjA3NS0uODI1IDAtLjkyNS0uMjc1eiIvPjxwYXRoIGQ9Im03NC41MjUgODcuMzc1Yy0yLjctMS4wNzUtOC41NS0zLjg3NS05LjItNC40MjUtLjQ3NS0uNC42NS0yLjM3NSAyLjItMy44MjUgMS43NS0xLjY1IDMuNjc1LTIuOTUgNC4xLTIuOC42LjI1IDIuODI1IDQuMTc1IDQuNSA3Ljk1IDEuNiAzLjcgMS44IDQuMjI1IDEuNDUgNC4yMjUtLjEyNSAwLTEuNDc1LS41MjUtMy4wNS0xLjEyNXoiLz48cGF0aCBkPSJtODAuODc1IDg3Ljg3NWMuNjc1LTEuOTUgMS4yNzUtNiAxLjUyNS0xMC4wNzUuMTc1LTIuNy4yLTIuODUuNzc1LTMuMDc1IDEuNDI1LS41MjUgMy4zLjAyNSA0LjUyNSAxLjM1bC41NzUuNi0uNjI1IDEuMWMtMy4wNSA1LjQ3NS03LjQgMTEuOTI1LTYuNzc1IDEwLjF6Ii8+PHBhdGggZD0ibTkxLjk1IDY2LjEyNWMtMi4wMjUtMS41LTQuMDc1LTMuMTUtNC41MjUtMy42LS40NzUtLjQ3NS0xLjItMS0xLjY1LTEuMTVsLS44LS4yNSAxLjM1LTEuMTc1IDEuMzUtMS4xNzUgMi4zNSAyLjNjMS4zIDEuMjc1IDMuMSAyLjk1IDQuMDI1IDMuNzUgMS43NSAxLjUgMi4yMjUgMi40NSAxLjc3NSAzLjU1LS4xNzUuNDUtLjU1LjI1LTMuODc1LTIuMjV6Ii8+PC9nPjxnIGZpbGw9IiM4M2IzYzciPjxwYXRoIGQ9Im02NSAxMjQuOWMtMy4yMjUtLjUtNS45MjUtMS4xNS02LjItMS40NzUtLjM1LS40MjUtMS42MjUtNC45MjUtMi43NzUtOS43LTEuNi02LjUtMy42LTE5LjI3NS0zLjEtMTkuNzI1LjI3NS0uMjc1IDYuNTI1LTEuMTc1IDEwLjU3NS0xLjUyNSA0LjgyNS0uNDI1IDE0LS4wNSAxNC42MjUuNTc1LjA3NS4wNS4zIDMuMDc1LjUgNi43MjUuMiAzLjYyNS40MjUgNy4wNS41IDcuNnMuMjUgMy42NzUuMzc1IDYuOTI1LjM3NSA2LjcyNS41MjUgNy43MjVjLjIyNSAxLjQyNS4yIDEuODI1LS4wNSAyLTEuNS45MjUtMTEuMDI1IDEuNDc1LTE0Ljk3NS44NzV6Ii8+PHBhdGggZD0ibTgxLjEyNSAxMTljLS4wNS0uMDc1LS4xNzUtMi4zLS4yNzUtNC45bC0uMTc1LTQuNzUgMS4zLS4zYzEuNS0uMzUgMS43NzUtLjI1IDEuNzc1LjU1IDAgLjMyNS4yMjUgMS42MjUuNSAyLjkyNXMuNTc1IDMuMS42NSA0LjAyNWMuMTc1IDEuNjc1LjE3NSAxLjY3NS0uNTUgMS45NzUtLjk3NS4zNzUtMy4xLjctMy4yMjUuNDc1eiIvPjxwYXRoIGQ9Im05Ny42MjUgMTA1LjAyNWMtLjk3NS0uMTc1LS45NzUtLjItLjM3NS0uNDUuMzUtLjE1IDEuMDI1LS4zMjUgMS41LS40MjUgMi43MjUtLjUyNSAzLjI3NS0uNzI1IDMtMS0uMi0uMTc1LTEuNjI1LS4yNS00LjYtLjJsLTQuMy4wNzUtLjQyNS0zLjk1Yy0uMjUtMi4xNzUtLjYtNC42MjUtLjgtNS40NWwtLjM1LTEuNS42NzUtLjU1Yy4zNzUtLjMyNSAxLjQ3NS0uODc1IDIuNDI1LTEuMjI1Ljk3NS0uMzc1IDIuNy0xLjA1IDMuODc1LTEuNTUgMi41NS0xLjA1IDMuNi0xLjEyNSA0LjcyNS0uMyAxLjEuNzc1IDEuODI1IDIuNDI1IDIuNzc1IDYuMjUuOCAzLjM1LjkyNSA1IC40NSA2LjU3NS0uNDI1IDEuNC0yLjA1IDMuMDUtMy4zMjUgMy4zNzUtMS40MjUuMzc1LTQuMDc1LjUyNS01LjI1LjMyNXptNC4xNzUtNi4zYy0xLjMyNS0uNTI1LTMuODUtLjc1LTUuMi0uNDc1LTIuMzI1LjUtMS41MjUuNzUgMi4yMjUuNzI1IDIuNDUgMCAzLjM3NS0uMDc1IDIuOTc1LS4yNXptLS40NzUtMy4yYy40NS0uMTc1LjM1LS4yNS0uNy0uNDI1LTIuNTI1LS40MjUtNS4zNzUtLjA1LTUuMzc1LjcyNSAwIC4yNzUgNS4yLjAyNSA2LjA3NS0uM3ptLTMuNC0yLjhjMS4zLS43IDIuMzI1LTEuMyAyLjI3NS0xLjM1LS4xNzUtLjE3NS0yLjUyNS40LTMuNjc1Ljg3NS0uNjc1LjMtMS41NS44NzUtMS45MjUgMS4zbC0uNzI1Ljc3NS44NS0uMTc1Yy40NS0uMDc1IDEuOS0uNzI1IDMuMi0xLjQyNXoiLz48cGF0aCBkPSJtODggMTA0YzAtLjI3NS0xLjQtOS45LTEuNjI1LTExLjA1LS4xLS43LS4xLS43IDEuMjc1LS43aDEuMzc1bC41IDEuMTI1Yy43NSAxLjY3NSAxLjIgNC4xMjUgMS40IDcuMjc1bC4xNSAyLjc3NS0xLjIuNDI1Yy0xLjQuNDUtMS44NzUuNS0xLjg3NS4xNXoiLz48cGF0aCBkPSJtNzYuODc1IDg4LjE3NWMtMy40NS0xLjEyNS0xMS42MjUtNC45NS0xMS42MjUtNS40NSAwLTEuMyAyLjItMy45IDQuNjUtNS41bDEuNjUtMS4wNS41NzUuNzI1YzEuMTI1IDEuMzUgNS45IDExLjIgNS41NzUgMTEuNDc1LS4wNS4wMjUtLjQtLjA1LS44MjUtLjJ6Ii8+PHBhdGggZD0ibTgxLjEgODcuNjI1Yy40NzUtMS4yNzUgMS4zNS03Ljg1IDEuNDI1LTExLjA3NWwuMDUtMS41NS45LS4yNWMxLjI3NS0uMzI1IDIuNjc1LjA1IDMuNjc1IDEuMDI1LjQ3NS40NS44NS45MjUuODUgMS4wNSAwIC4zMjUtMy4zNSA1Ljk1LTUuMiA4Ljc1LTEuNSAyLjI3NS0yLjA1IDIuOTI1LTEuNyAyLjA1eiIvPjxwYXRoIGQ9Im03OS4xNzUgODYuNTc1Yy0uMzI1LS42NS0xLjMtMi44LTIuMTUtNC43MjUtLjg1LTEuOTUtMi4wNS00LjMtMi42NzUtNS4yNS0xLTEuNTUtMS4xLTEuNzc1LS44LTIuMy4yLS40LjQ1LS41NS43NzUtLjQ1LjI3NS4wNzUgMS4wNS0uMSAxLjcyNS0uMzc1bDEuMjI1LS40NzUgMS41NzUuODc1Yy44NzUuNDc1IDEuNzUuODc1IDEuOTc1Ljg3NS41IDAgLjUtLjIyNS4xNzUgNC45LS4yMjUgMy41NzUtLjc3NSA3LjcyNS0xLjEgOC4wMjUtLjA3NS4wNzUtLjQtLjQyNS0uNzI1LTEuMXptLjYtNC45NzVjLjQyNS0uNTI1IDAtMS4yMjUtLjc3NS0xLjIyNXMtMS4yLjctLjc3NSAxLjIyNWMuMi4yMjUuNTI1LjQuNzc1LjRzLjU3NS0uMTc1Ljc3NS0uNHptLS45MjUtNC40Yy4zMjUtLjUyNS0uMDUtMS4yNzUtLjY1LTEuNC0uNC0uMDc1LTEuMi41NzUtMS4yLjk1cy44IDEuMDI1IDEuMi45NWMuMi0uMDUuNS0uMjc1LjY1LS41eiIvPjxwYXRoIGQ9Im01Ni4xMjUgNjcuMTVjLTEuNjI1LS41MjUtMy41NzUtMS42LTMuODc1LTIuMTUtLjQyNS0uNzc1LS4xLTEgLjg1LS42MjUuNDUuMiAxLjg1LjQyNSAzLjEyNS41MjUgMS4yNS4xIDIuMzI1LjI1IDIuNC4zNS4wNS4wNzUtLjAyNS42MjUtLjE3NSAxLjItLjMgMS4xNzUtLjU3NSAxLjI1LTIuMzI1Ljd6Ii8+PHBhdGggZD0ibTczIDY2LjMyNWMtLjg1LS4zLTIuNS0xLjE3NS0yLjUtMS4zMjUgMC0uMS41NzUtLjA1IDEuMjc1LjEgMS4wNzUuMjI1IDEuNzUuMTUgNC4zNzUtLjM3NSAxLjctLjM3NSAzLjEtLjYyNSAzLjEtLjU3NSAwIC4wMjUtLjY3NS41NzUtMS40NzUgMS4yLTEuNCAxLjA3NS0xLjU3NSAxLjE1LTIuOTUgMS4xMjUtLjggMC0xLjYyNS0uMDc1LTEuODI1LS4xNXoiLz48cGF0aCBkPSJtNTYuMzc1IDYzLjU3NWMtMS4yNzUtLjEyNS00LjIyNS0xLTUuNC0xLjU3NS0xLjI3NS0uNjUtMi40NS0yLjA3NS0zLjY1LTQuMzc1LTEuMTI1LTIuMi0yLjY3NS02LjYtMi45NS04LjQtLjE1LTEuMDc1LS4xMjUtMS4yLjg1LTIuMzI1IDEuMDc1LTEuMjI1IDEuMTc1LTEuNTI1Ljc3NS0yLjE1LS4yLS4zMjUtLjM3NS0uMy0xLjE3NS4xNzUtMi4zIDEuMzI1LTIuNDc1IDEuNC0zLjY3NSAxLjIyNS0xLjgyNS0uMjc1LTMuMDc1LTEuNDI1LTQuMzc1LTMuOTUtLjk3NS0xLjg3NS0xLjEyNS0yLjQyNS0xLjIyNS00LjEyNXMtLjAyNS0yLjE1LjQ1LTMuMWMxLjI1LTIuNSAyLjktMy40IDUuODUtMy4yNSAxLjA1LjA1IDIuNDI1IDEuNiAzLjAyNSAzLjQuMjUuODI1LjU1IDEuNi42NSAxLjcuMy4zNzUgMi43NS0uMTI1IDMuNDI1LS43bC42NS0uNTUtLjY3NS0yLjg1Yy0uODUtMy42MjUtLjg1LTQuODI1LjA3NS05LjMuODUtNC4xMjUuOS01LjIyNS40LTcuMTc1bC0uMzc1LTEuMzc1LjgtMS4zNWMyLjEtMy41IDEwLjA1LTkuMSAxNC40MjUtMTAuMTI1IDUuOTc1LTEuNDI1IDE2LjAyNSAxLjIyNSAyMC4zMjUgNS4zMjUgMS4xNzUgMS4xMjUgNC40MjUgNS4yIDQuNDI1IDUuNTc1IDAgLjAyNS0uNzI1LjA3NS0xLjYuMDc1LTEuMzc1IDAtMS43LjEtMi4yNzUuNjI1LS43MjUuNjc1LTEuMiAxLjY1LTEgMiAuMDc1LjEyNS41MjUuMDUgMS0uMTUgMS42NzUtLjcgMy44NS0uMiA1LjYgMS4zMjUgMi4xMjUgMS44MjUgMi43IDQuMDI1IDIuOTI1IDExLjMyNS4yNzUgOC43NzUtLjk1IDE1LjE1LTQuMDUgMjEuMzI1LS43MjUgMS40LTMuMjc1IDUuMzI1LTQuMyA2LjU1LTIuMDUgMi40NzUtNy45NzUgNS4xNzUtMTIuMTUgNS41MjUtMi4zNS4yLTQuMjUtLjItNy4wMjUtMS41LTMuODUtMS44MjUtNi40MjUtNC4xLTkuNy04LjYyNS0uODUtMS4xNS0xLjU3NS0xLjk3NS0xLjYyNS0xLjgtLjE1LjQyNSAxLjEyNSAzLjAyNSAyLjE3NSA0LjQgMS40NzUgMS45NSA1LjAyNSA1LjQ3NSA2LjM1IDYuMzI1bDEuMi43NS0yIC4wNzVjLTEuNjUuMDc1LTIuMS4yLTIuNTc1LjY3NS0uNjI1LjU1LTEuMS42LTMuNTc1LjM3NXptMjQuMDI1LTguNDVjMS4wNzUtLjMyNSAyLjM1LTEuMjI1IDIuMzUtMS42MjUgMC0uMS0xLjY1LS4xNzUtMy42NzUtLjE3NS01Ljg3NS4wMjUtOC41MjUtLjc3NS0xMC4yNzUtMy4wNzUtLjQ3NS0uNjI1LTEtMS4xNS0xLjE3NS0xLjItLjcyNS0uMTc1LS42LjUuMjI1IDEuNTI1LjUuNTc1IDEuMzc1IDEuNjUgMS45NSAyLjQgMS4yIDEuNSAyLjMyNSAyLjIgNC4xMjUgMi41MjUgMS41MjUuMjc1IDUgLjA3NSA2LjQ3NS0uMzc1em0uNTUtNS45MjUtLjA3NS0xLjMyNS0zLjUtLjE3NWMtMy43NzUtLjE3NS02LjIyNS0uNTI1LTcuNi0xLjEtLjQ3NS0uMi0uOS0uMzI1LS45MjUtLjI3NS0uMDUuMDUuMjUuNS42NzUgMSAxLjUgMS44IDUuMzc1IDMuMTI1IDkuNDI1IDMuMTVsMi4wNzUuMDI1em00LjkyNS4yYy42LS4zNSAxLjUtMS4wNzUgMi0xLjYyNSAxLjAyNS0xLjA3NSAyLjQyNS0zLjA3NSAyLjI1LTMuMjI1LS4wNS0uMDUtLjkyNS4zNS0xLjkyNS44NzUtMS45MjUgMS4wNS00LjYgMi4wNzUtNS40NSAyLjA3NS0uNDUgMC0uNS4xNzUtLjUgMS40djEuNDI1bDEuMjc1LS4xNWMuNy0uMSAxLjc1LS40NSAyLjM1LS43NzV6bS00LjYyNS00LjA3NWMxLjY3NS0uNDI1IDMuNTUtMS4yNzUgNS41MjUtMi40NzUgMS4zMjUtLjggMS41LTEgMS44NS0yLjE1LjU3NS0yIC41LTIuMjUtMS4wNzUtMy44NzUtMy40MjUtMy40NS03LjE1LTguNzc1LTcuNjUtMTAuODc1LS4wNzUtLjQtLjMyNS0uNy0uNTI1LS43LS45MjUgMCAuMDUgMy43MjUgMS42MjUgNi4zNS40NzUuNzc1IDEuNjc1IDIuNCAyLjYyNSAzLjU1IDMuMzc1IDQuMTI1IDMuNTI1IDQuNDI1IDIuODUgNS45MjUtLjU1IDEuMjI1LTcuMiAzLjY3NS05LjA1IDMuMzI1LTEuMDc1LS4yLTEuNDUtLjY1LTEuNjUtMS44NS0uMTc1LTEuMDc1LS41NS0xLjE3NS0uODc1LS4yNS0uMzI1LjkuMDUgMi40Ljc1IDMuMTI1LjYuNi43MjUuNjI1IDIuNDI1LjQ1IDEtLjEgMi40MjUtLjM1IDMuMTc1LS41NXptLTQwLjQtOC41NWMuMjc1LS4zLjYtLjUyNS43NzUtLjUyNS40MjUgMCAxLjIyNS45NSAxLjkgMi4yNWwuNiAxLjEyNS4wNzUtMS4xNzVjLjEtMS40LS41NS0yLjgyNS0xLjctMy44LTEuNTI1LTEuMjUtMy4yLTEuMTI1LTQuMTc1LjMyNS0uNzI1IDEuMDc1LS43MjUgMS40MjUtLjAyNS45MjUuMy0uMjI1Ljc3NS0uNCAxLjAyNS0uNC40IDAgLjQyNS4xMjUuMjUuODI1LS4zIDEuMTc1LS4yIDMuNy4yIDQuNTUuMy43MjUuMzI1LjY1LjQ3NS0xLjQyNS4xLTEuNjI1LjI1LTIuMy42LTIuNjc1em0zMS4zLTQuNTI1YzEuMTc1LTEuMTc1IDEuMTI1LTEuODc1LS4yNzUtMy40NS0uNjI1LS43LTEuNTUtMi4xNS0yLjA3NS0zLjIyNS0uOC0xLjcyNS0uOTI1LTEuODc1LTEtMS4yMjUtLjEuNzUuNzc1IDMuNSAxLjMyNSA0LjE1LjE3NS4yLjUuNzI1LjcgMS4xNS40LjguNC44LS4zMjUgMS4xLS41MjUuMjI1LTEuMy4yNS0yLjY3NS4xLTEuMDc1LS4xLTIuMDUtLjItMi4yLS4yMjUtLjQ1IDAtLjQyNSAxLjE1LjAyNSAxLjY1LjY1LjcyNSAxLjc1Ljk3NSAzLjguODc1IDEuNjc1LS4wNzUgMS45LS4xNSAyLjctLjl6bTE5LjAyNS0xLjEyNWMuNi0uMzc1IDEuMTc1LS44MjUgMS4yNS0xIC4xLS4zMjUtMi44NS02LjYyNS0zLjEyNS02LjYyNS0uMzI1IDAgLjIyNSAyLjguODI1IDQuMS43NzUgMS43NS43MjUgMS44LTEuNjI1IDIuMDI1LS45LjEtMS43NzUuMi0xLjkyNS4yNS0uNTUuMTc1LS4zNSAxLjA3NS4zNzUgMS42MjUuNTUuNDUuODc1LjUyNSAxLjkuNC42NS0uMDc1IDEuNy0uNDI1IDIuMzI1LS43NzV6bS0zMi40NS05LjQ3NWMuOS0xLjUyNSAyLjQyNS0zLjAyNSAzLjY3NS0zLjU1LjQ1LS4yIDEuNTUtLjM1IDIuNDUtLjM1czEuNy0uMTI1IDEuNzc1LS4yNWMuNS0uODI1LTEuMTc1LTIuMjUtMi42NzUtMi4yNS0xLjE1IDAtMy4yIDEuMDUtNC40NzUgMi4zMjUtMS4wNSAxLjA1LTIuMjI1IDMuMTUtMi4yMjUgNCAwIC40NS40MjUgMS40MjUuNjI1IDEuNDI1LjA1IDAgLjQyNS0uNi44NS0xLjM1eiIvPjxwYXRoIGQ9Im0zNy4zNSAyOC42Yy0uMi0xLjcgMC01LjM3NS40LTYuNjUuODI1LTIuOCA0LjYyNS01LjQ3NSA4LjY1LTYuMS45MjUtLjEyNSAxLjA1LS4xIDEuMTc1LjQyNS4yNS45LjIyNS45NzUtLjQuOTc1LS45NzUgMC0zLjcyNSAxLTQuOTc1IDEuOC0zIDEuOS00Ljc3NSA1LjgtNC4zIDkuNDI1LjEuNzUuMDUgMS4yNzUtLjEgMS4zNzUtLjE3NS4xLS4zMjUtLjM3NS0uNDUtMS4yNXoiLz48cGF0aCBkPSJtNDEuNSAxNC43NWMwLS4xLjUyNS0uODc1IDEuMTUtMS43MjUgMS4zNS0xLjggNC4xNS0zLjk3NSA3LjA1LTUuNDc1IDIuMjc1LTEuMTc1IDUuNDc1LTIuMzc1IDUuODI1LTIuMTUuNDUuMjUuMi43NzUtLjUgMS4xMjUtNS4zMjUgMi42LTcuMTUgMy44LTkuNSA2LjI1LTEuMSAxLjEyNS0xLjcgMS41MjUtMi43IDEuODI1LS43MjUuMi0xLjMyNS4yNzUtMS4zMjUuMTV6Ii8+PC9nPjxnIGZpbGw9IiNmMWQ4YjkiPjxwYXRoIGQ9Im03MyA2Ni4yNzVjLS44NzUtLjI3NS0yLjItLjk3NS0yLjM3NS0xLjI3NS0uMS0uMTc1LjA3NS0uMTc1LjUgMCAxLjAyNS4zNzUgMi41LjMgNS40NS0uMzUgMS40NzUtLjMyNSAyLjY3NS0uNTUgMi42NzUtLjUyNXMtLjY3NS41NzUtMS40NzUgMS4yMjVjLTEuMzUgMS4wNS0xLjYgMS4xNS0yLjgyNSAxLjEyNS0uNzI1IDAtMS42LS4xLTEuOTUtLjJ6Ii8+PHBhdGggZD0ibTU2LjA3NSA2My40NzVjLTIuMDI1LS4yNS00LjYyNS0xLjE1LTUuOC0xLjk3NS0xLjM1LS45NzUtMi42NzUtMy4wNS0zLjk3NS02LjE1LS45NzUtMi4zNzUtMi4wNS01Ljk3NS0yLjA1LTYuODc1IDAtLjI1LjQ1LS45NzUgMS4wMjUtMS42MjUgMS4wNS0xLjIgMS4yMjUtMi4xNS40MjUtMi4zLS4yMjUtLjA1LTEuMDUuMzI1LTEuOC44NS0xLjIuOC0xLjUyNS45LTIuNDI1Ljc3NS0xLjctLjIyNS0zLjIyNS0xLjM1LTQuMy0zLjE3NS0yLjUyNS00LjM1LTIuMTc1LTguMzc1LjkyNS0xMC40MjUgMS4wNS0uNzI1IDEuNDI1LS44MjUgMi43NzUtLjgyNSAxLjIyNSAwIDEuNy4xMjUgMi4yNS41NS43LjU1IDIuMTI1IDMuMjI1IDIuMTI1IDQuMDI1IDAgLjI1LjE3NS41LjM3NS41NzUuNy4yNzUgMi42MjUtLjE3NSAzLjMtLjc1bC42NS0uNTc1LS42NS0yLjljLS44NS0zLjY3NS0uODUtNC43MjUuMDc1LTkuMTUuODUtNC4wMjUuOTI1LTUuNjI1LjM3NS03LjQyNS0uMzUtMS4xNzUtLjMyNS0xLjI1LjI1LTIuMjUgMS41MjUtMi42IDUuMTI1LTUuNyA5LjYyNS04LjI1IDMuMzUtMS44NzUgNC44NzUtMi4zNzUgOC0yLjUyNSA0LjQtLjIyNSA4LjcyNS43NzUgMTMuNjUgMy4xNzUgMi4xNzUgMS4wNSAyLjc3NSAxLjQ3NSA0LjI1IDMuMDc1Ljk1IDEuMDI1IDIuMiAyLjU1IDIuOCAzLjRsMS4wNzUgMS41MjVoLTEuNDI1Yy0xLjYgMC0yLjU3NS40NzUtMy4yIDEuNS0uNTUuOTUtLjUyNSAxLjYuMDUgMS4zNzUgMi0uODUgMy41NzUtLjY3NSA1LjYuNiAyLjQ1IDEuNTUgMy4wNzUgMy4zNzUgMy41IDEwIC41MjUgOC41LS42MjUgMTUuODI1LTMuNDI1IDIxLjk1LTEuMTI1IDIuNDUtNC4xIDYuOTc1LTUuNDI1IDguMjI1LTEuOSAxLjgyNS01LjM3NSAzLjYtOC43IDQuNDc1LTIuMjUuNi01Ljc1LjYtNy41LjAyNS00LjMyNS0xLjQ1LTcuODc1LTQuMTc1LTExLjM1LTguNzI1LTEuMjI1LTEuNi0yLjI3NS0yLjg3NS0yLjM1LTIuODI1LS4yMjUuMjI1Ljc1IDIuNTc1IDEuNTI1IDMuNyAxLjQgMi4wMjUgNS4xIDUuODUgNi43MjUgNi45NWwxLjU1IDEuMDI1LTEuMzI1LS4xYy0xLjYtLjE1LTIuNjUuMTI1LTMuNC44MjUtLjU3NS41NS0uOTc1LjU1LTMuOC4yMjV6bTIzLjY1LTguMTVjMS41MjUtLjMyNSAzLjAyNS0xLjI1IDMuMDI1LTEuODc1IDAtLjEtMS42NS0uMi0zLjY3NS0uMi00LjI1LjAyNS01LjQ1LS4xMjUtNy4yNzUtLjgtMS41MjUtLjU3NS0yLjU1LTEuMzc1LTMuMy0yLjU3NS0uMzI1LS41LS43NS0uODc1LTEuMDI1LS44NzUtLjg3NSAwLS43MjUuMjI1IDIuNTUgNC4zMjUuNDI1LjUyNSAxLjAyNSAxLjEyNSAxLjM3NSAxLjMyNSAxLjYgMS4wNzUgNS4xMjUgMS4zNSA4LjMyNS42NzV6bTEuMjc1LTZjMC0uODUtLjEyNS0xLjM3NS0uMy0xLjQ1LS4xNzUtLjA1LTEuNzc1LS4xNS0zLjU3NS0uMjUtNC4xLS4xNzUtNi4xNS0uNTI1LTcuOTc1LTEuMjUtLjQtLjE3NS0uNDI1LS4xMjUtLjE3NS4zIDEuMTc1IDIuMjUgNS44NSAzLjkyNSAxMC45NzUgMy45NzVoMS4wNXptNC40LjNjLjcyNS0uMyAxLjc1LTEuMDI1IDIuMzI1LTEuNi45NS0uOTUgMi42LTMuMyAyLjQyNS0zLjQ3NS0uMDUtLjAyNS0xLjIyNS41LTIuNjI1IDEuMTc1cy0zLjE1IDEuMzc1LTMuOSAxLjUyNWwtMS4zNzUuMjc1djEuNTI1IDEuNWwuOTUtLjE3NWMuNS0uMDc1IDEuNS0uNDI1IDIuMi0uNzV6bS0zLjg1LTQuMjc1YzEuNDc1LS40NSAzLjEyNS0xLjIyNSA1LjI1LTIuNSAxLjItLjcyNSAxLjQ3NS0xLjA1IDEuOC0yLjAyNS42MjUtMS44LjUyNS0yLjctLjM1LTMuMzc1LTIuMjc1LTEuNzc1LTcuMzUtOC42MjUtOC4xMjUtMTAuOTUtLjI1LS43NzUtLjU1LTEuMjUtLjgtMS4yNS0uMzI1IDAtLjM3NS4yMjUtLjIyNSAxLjQ1LjI1IDIuMSAyIDUuNDUgNC4yNzUgOC4xNzUgMi45NSAzLjUyNSAzLjM3NSA0LjE1IDMuMzc1IDQuOSAwIDEuNDI1LS40IDEuOC0zLjIyNSAzLjA1LTIuOSAxLjI3NS00LjM1IDEuNjI1LTUuODc1IDEuNS0xLjI1LS4xLTEuNjI1LS40MjUtMS44LTEuNjI1LS4yLTEuMTUtLjQ3NS0xLjQtLjgyNS0uNzI1LS41NSAxLjAyNS0uMjc1IDIuNS43IDMuNjI1LjM1LjQuNjUuNDI1IDIuNDUuMyAxLjEyNS0uMSAyLjY1LS4zNSAzLjM3NS0uNTV6bS00MC42LTguNjVjLjUtLjUuNTUtLjUgMS4xNS0uMS4zNS4yMjUuOTUgMSAxLjMyNSAxLjcyNWwuNyAxLjMuMDc1LTEuMTc1Yy4yLTMtMy4wNzUtNS43NS01LjE1LTQuMy0uNi40LTEuNDI1IDEuOC0xLjIgMi4wMjUuMDc1LjA3NS4zLS4wNS41MjUtLjI3NXMuNjI1LS40LjkyNS0uNGMuNDI1IDAgLjQ3NS4xLjI3NS44MjUtLjMgMS4yMjUtLjIgMy45NzUuMiA0LjY3NS4zMjUuNTc1LjM1LjQ3NS41LTEuNTc1LjEyNS0xLjc3NS4yNS0yLjMyNS42NzUtMi43MjV6bTMwLjQ1LTMuODVjMS45NS0uOTI1IDIuMS0yLjMyNS40NzUtNC4wNzUtLjYtLjY1LTEuNTI1LTIuMDc1LTIuMDUtMy4xNzUtLjgyNS0xLjc1LS45NS0xLjktMS4wMjUtMS4yNS0uMTI1LjkyNS41NSAzIDEuNDc1IDQuNDI1LjQuNjI1LjcyNSAxLjI3NS43MjUgMS40MjUgMCAuOC0yLjE1Ljk3NS00LjguNC0uOC0uMTc1LTEuMS4yNzUtLjg1IDEuMjUuMyAxLjI1IDQuMTc1IDEuODc1IDYuMDUgMXptMTkuNjUtMS42NWMxLjctLjk1IDEuNy0xLS4wNS00LjUyNS0uODUtMS43NS0xLjYtMy4xNzUtMS42NzUtMy4xNzUtLjM1IDAgLjIgMi44MjUuOCA0LjEyNS43MjUgMS42LjYyNSAxLjg1LS43NSAxLjktLjk3NS4wMjUtMi40MjUuMi0yLjguMzUtLjU1LjItLjM1IDEuMDc1LjM3NSAxLjYyNS41NS40NS44NzUuNTI1IDEuODc1LjQuNjc1LS4wNzUgMS42NzUtLjQgMi4yMjUtLjd6bS0zMi40NS05LjI3NWMuMjc1LS41NzUgMS4wNzUtMS42MjUgMS43NS0yLjMyNSAxLjQ3NS0xLjQ1IDIuOTI1LTEuOTc1IDQuOS0xLjggMS4wNS4xIDEuMjc1LjA1IDEuMzc1LS4zMjUuMzUtMS4wNS0xLjEtMi4yMjUtMi42NzUtMi4yMjUtMi4wNSAwLTUgMi4yMjUtNi4xIDQuNTc1LS42NSAxLjQyNS0uNzI1IDEuOTc1LS4zNSAyLjcuMzc1LjcuNTc1LjYgMS4xLS42eiIvPjwvZz48ZyBmaWxsPSIjZjZmNWY1Ij48cGF0aCBkPSJtNjYuNzUgMTI1LjFjLS4zNS0uMDUtMS40NzUtLjIyNS0yLjUtLjM3NS0yLjMtLjMyNS01LjA1LS45NzUtNS4zNS0xLjI1LS41MjUtLjQ3NS0yLjc1LTguNjUtMy44NzUtMTQuMjc1LS44MjUtNC4wMjUtMS45NzUtMTEuOC0yLjA3NS0xMy45NWwtLjA3NS0xLjM1IDEuMTI1LS4yYzYuNTI1LTEuMTc1IDE2LjA3NS0xLjc1IDIwLjg3NS0xLjIyNSAxLjUyNS4xNzUgMi45LjQ1IDMuMDUuNi4zLjMuNzUgNi4yMjUgMS4zMjUgMTcuOTI1LjI3NSA1LjYuNyAxMS4yNS45IDEyLjI3NS4xNS42MjUuMDc1LjY3NS0xLjQ3NSAxLjA1LTMgLjc1LTkuMjUgMS4xNS0xMS45MjUuNzc1eiIvPjxwYXRoIGQ9Im04MC45MjUgMTE1Ljg1Yy0uMS0xLjc3NS0uMTc1LTMuOTUtLjE3NS00Ljg3NXYtMS42MjVsMS4zMjUtLjI3NWMuNy0uMTUgMS4zNS0uMjI1IDEuNC0uMi4xNzUuMTc1IDEuNSA3LjU1IDEuNTI1IDguNDUgMCAxLjA3NS0uNDc1IDEuMzc1LTIuNjUgMS42bC0xLjI3NS4xMjV6Ii8+PHBhdGggZD0ibTk3Ljk1IDEwNS4wNzVjLS41MjUtLjA1LS45NS0uMi0uOTUtLjM1IDAtLjEyNS4wNS0uMjI1LjEtLjIyNS4xMjUgMCAzLjUtLjY3NSA0LjM3NS0uOS40NzUtLjEuNTI1LS4yLjMtLjQyNXMtMS41MjUtLjI3NS00LjYtLjIyNWwtNC4zMjUuMDUtLjQyNS00LjA1Yy0uMjUtMi4yNS0uNi00LjctLjgtNS40NWwtLjM3NS0xLjM3NS42NzUtLjU1Yy4zNzUtLjMyNSAyLTEuMDI1IDMuNTc1LTEuNnMzLjQyNS0xLjMyNSA0LjA3NS0xLjY1YzEuODUtLjkyNSAzLjctLjI1IDQuNjc1IDEuNjc1LjcgMS4zNSAyLjI1IDcuNTUgMi4yNSA4Ljk1IDAgMi44LTEuNTI1IDUuMjI1LTMuNjI1IDUuNzUtMS4yNS4zMjUtMy43MjUuNS00LjkyNS4zNzV6bTQuNS02LjJjLS4wNzUtLjA3NS0xLjAyNS0uMy0yLjEtLjUyNS0yLjM3NS0uNDUtNS4xLS4yMjUtNS4xLjQyNSAwIC4xMjUgMS42NS4yMjUgMy42NzUuMjI1IDIgMCAzLjYtLjA1IDMuNTI1LS4xMjV6bS0uOTUtMy4zNzVjLjQyNS0uMjUtMS41MjUtLjYtMy4zNzUtLjYyNS0xLjMgMC0yLjg3NS41LTIuODc1Ljk1IDAgLjI3NSA1LjY1IDAgNi4yNS0uMzI1em0tNC45NzUtMmMuNzUtLjQyNSAxLjk1LTEuMDUgMi42NzUtMS40czEuMjc1LS43IDEuMjI1LS43NWMtLjA1LS4wNzUtLjkyNS4wNS0xLjk1LjI1LTEuNzc1LjM3NS00LjQ3NSAxLjgyNS00LjQ3NSAyLjQgMCAuNDc1IDEuMi4yNSAyLjUyNS0uNXoiLz48cGF0aCBkPSJtODcuODc1IDEwMi44MjVjLS4wNzUtLjgtLjQyNS0zLjItLjc3NS01LjMyNS0uMzI1LTIuMTI1LS42LTQuMTc1LS42LTQuNTUgMC0uNjc1LjA1LS43IDEuMjc1LS43IDEuMjUgMCAxLjI1IDAgMS43NSAxLjEyNS43MjUgMS42NSAxLjIgNC4xIDEuMzc1IDcuMjc1bC4xNzUgMi43NS0xLjMyNS40MjVjLS43MjUuMjI1LTEuNC40MjUtMS41LjQyNXMtLjI3NS0uNjUtLjM3NS0xLjQyNXoiLz48cGF0aCBkPSJtNzguOTUgODZjLS41LTEuMDI1LTEuNDc1LTMuMi0yLjItNC44LS43LTEuNi0xLjgtMy42NzUtMi40LTQuNnMtMS4xLTEuNzI1LTEuMS0xLjhjMC0uMzUuODI1LTEgMS4xMjUtLjkuMTc1LjA3NS43MjUtLjA1IDEuMjUtLjI1IDEuMzUtLjU3NSAyLjEtLjUgMy4zNzUuMzUuNjI1LjQgMS4zNzUuNzUgMS43Ljc1LjU1IDAgLjU1LjAyNS40MjUgMi44MjUtLjIgMy45MjUtLjYyNSA3LjY3NS0xIDkuMWwtLjMyNSAxLjJ6bS44MjUtNC40Yy40MjUtLjUyNSAwLTEuMjI1LS43NzUtMS4yMjVzLTEuMi43LS43NzUgMS4yMjVjLjIuMjI1LjUyNS40Ljc3NS40cy41NzUtLjE3NS43NzUtLjR6bS0uOTI1LTQuNGMuMzI1LS41MjUtLjA1LTEuMjc1LS42NS0xLjQtLjQtLjA3NS0xLjIuNTc1LTEuMi45NXMuOCAxLjAyNSAxLjIuOTVjLjItLjA1LjUtLjI3NS42NS0uNXoiLz48cGF0aCBkPSJtNTUuOCA2N2MtMi41MjUtLjktNC4xLTIuMDc1LTMuNjc1LTIuNzUuMDc1LS4xMjUuNS0uMDc1Ljk1LjEyNS40MjUuMTc1IDEuODUuNDI1IDMuMTI1LjU3NSAxLjI3NS4xMjUgMi4zNzUuMjc1IDIuNDI1LjM1LjA1LjA1LS4wMjUuNTc1LS4xNzUgMS4xNS0uMyAxLjIyNS0uNiAxLjMtMi42NS41NXoiLz48cGF0aCBkPSJtNTAuODI1IDYxLjc1Yy0xLjE1LS42NzUtMS4wMjUtLjg1LjEyNS0uMiAxLjE1LjY3NSAxLjIuNy45LjctLjEyNSAwLS42LS4yMjUtMS4wMjUtLjV6Ii8+PHBhdGggZD0ibTQ3LjM1IDU3LjQ3NWMtLjM1LS43LS42LTEuMzI1LS41NS0xLjM3NXMuNC41MjUuNzc1IDEuMjc1LjYyNSAxLjM3NS41NSAxLjM3NS0uNC0uNTc1LS43NzUtMS4yNzV6Ii8+PHBhdGggZD0ibTQ0LjUgNDcuOTc1YzAtLjIuMzI1LS41NzUuNy0uODI1bC42NzUtLjQ3NS0uNjI1LjcyNWMtLjM1LjQtLjY1Ljc3NS0uNjc1LjgyNS0uMDUuMDUtLjA3NS0uMDUtLjA3NS0uMjV6Ii8+PHBhdGggZD0ibTM1LjU3NSAzNy42MjVjMC0uNTUuMDUtLjc1LjEtLjQyNS4wNS4zLjA1Ljc1IDAgMS0uMDc1LjIyNS0uMTI1LS4wMjUtLjEtLjU3NXoiLz48cGF0aCBkPSJtMzcuMjUgMzMuMzc1Yy40NzUtLjQ3NS45LS44NzUuOTc1LS44NzVzLS4yNS40LS43MjUuODc1LS45Ljg3NS0uOTc1Ljg3NS4yNS0uNC43MjUtLjg3NXoiLz48cGF0aCBkPSJtNDMuNTc1IDMzLjE3NWMtLjEtLjE3NS0uNDc1LS41MjUtLjgyNS0uNzUtLjMyNS0uMjI1LS41MjUtLjQyNS0uNDI1LS40MjUuMzUgMCAxLjM3NS43NzUgMS41MjUgMS4xNS4xNzUuNDUgMCAuNDUtLjI3NS4wMjV6Ii8+PHBhdGggZD0ibTQwLjQ1IDMxLjgyNWMuMy0uMDUuNzUtLjA1IDEgMCAuMjI1LjA3NS0uMDI1LjEyNS0uNTc1LjEtLjU1IDAtLjc1LS4wNS0uNDI1LS4xeiIvPjxwYXRoIGQ9Im0zNy4zNzUgMjguMzVjLS4yNS0yLjIgMC01LjE1LjUyNS02LjcyNS44MjUtMi4zNzUgNC4wMjUtNC43MjUgNy41NzUtNS41MjUgMS0uMjI1IDEuODUtLjM1IDEuOS0uMy4wNzUuMDUuMTUuMzUuMTc1LjY3NS4wNzUuNS0uMS42MjUtMS43NSAxLjA1LTIuNDUuNjI1LTQuMSAxLjU1LTUuNTUgMy4xNS0xLjcgMS44NzUtMi4zMjUgMy41NzUtMi4zNzUgNi42MjUtLjAyNSAxLjM1LS4xIDIuNS0uMTc1IDIuNi0uMS4wNzUtLjIyNS0uNjI1LS4zMjUtMS41NXoiLz48cGF0aCBkPSJtNTguMTc1IDE4LjYyNWMuMy0uNC45LTEuMDc1IDEuMzUtMS41LjYyNS0uNTUuNTUtLjQyNS0uMjUuNS0xLjQ3NSAxLjY3NS0xLjcgMS44NzUtMS4xIDF6Ii8+PHBhdGggZD0ibTQxLjUgMTQuODc1YzAtLjM3NSAxLjIyNS0xLjk3NSAyLjQyNS0zLjIgMi4zMjUtMi4zNSA1LjY3NS00LjQgOS41NS01Ljc3NSAxLjI3NS0uNDc1IDEuOTI1LS42IDIuMTI1LS40LjQyNS40MjUtLjEuOC0zLjI1IDIuMzI1LTIuNiAxLjI1LTQuNzUgMi43NzUtNi42IDQuNjc1LS45LjkyNS0xLjg1IDEuNzUtMi4xMjUgMS44MjVzLS44NzUuMjUtMS4zLjM3NWMtLjQ1LjE1LS44MjUuMjI1LS44MjUuMTc1eiIvPjxwYXRoIGQ9Im04OC4yNSAxMy43NWMtLjE1LS4yNzUtLjE3NS0uNS0uMDc1LS41LjEyNSAwIC4zNS4yMjUuNTI1LjVzLjIuNS4wNS41Yy0uMTI1IDAtLjM1LS4yMjUtLjUtLjV6Ii8+PHBhdGggZD0ibTUyLjEyNSAxMWMuOTUtLjk1IDEuOC0xLjc1IDEuODUtMS43NS4wNzUgMC0uNjUuOC0xLjYgMS43NS0uOTUuOTc1LTEuOCAxLjc1LTEuODUgMS43NS0uMDc1IDAgLjY1LS43NzUgMS42LTEuNzV6Ii8+PHBhdGggZD0ibTU0LjM1IDkuMDVjLjItLjMyNSAxLjY1LTEuNCAxLjY1LTEuMjI1IDAgLjA3NS0uNDI1LjQyNS0uOTI1LjgyNS0uNS4zNzUtLjgyNS41NzUtLjcyNS40eiIvPjxwYXRoIGQ9Im03OS41IDUuODc1Yy0uMzUtLjItLjUtLjM1LS4zNzUtLjM1LjE1IDAgLjUyNS4xNS44NzUuMzVzLjUyNS4zNS4zNzUuMzVjLS4xMjUgMC0uNTI1LS4xNS0uODc1LS4zNXoiLz48cGF0aCBkPSJtNjAgNS4zNzVjMC0uMTc1IDIuMDI1LTEuMTc1IDIuMTUtMS4wNzUuMDUuMDc1LS40MjUuMzUtMS4wMjUuNjUtLjYyNS4zLTEuMTI1LjUtMS4xMjUuNDI1eiIvPjxwYXRoIGQ9Im02Ny43IDMuMDc1Yy4zLS4wNS44LS4wNSAxLjEyNSAwIC4zLjA1LjA1LjEtLjU3NS4xcy0uODc1LS4wNS0uNTUtLjF6Ii8+PC9nPjwvc3ZnPg==;fontStyle=1" vertex="1" parent="1">
          <mxGeometry x="923.67" y="50" width="72.66" height="100" as="geometry" />
        </mxCell>
        <mxCell id="fgHvfDnMfx1o7fpBP95t-26" value="" style="shape=image;verticalLabelPosition=bottom;verticalAlign=top;imageAspect=0;aspect=fixed;image=data:image/svg+xml,PHN2ZyB4bWxucz0iaHR0cDovL3d3dy53My5vcmcvMjAwMC9zdmciIHdpZHRoPSI1MTEuOTE2NDEyMzUzNTE1NiIgdmlld0JveD0iMC4wMDAwMzA1MTc1NzgxMjUgMC4wMDAwMDQ3NjgzNzE1ODIwMzEyNSA1MTEuOTE2NDEyMzUzNTE1NiAxMjQuNzEyNDA5OTczMTQ0NTMiIHByZXNlcnZlQXNwZWN0UmF0aW89InhNaWRZTWlkIiBoZWlnaHQ9IjEyNC43MTI0MDk5NzMxNDQ1MyI+PHBhdGggZmlsbD0iIzA3MDcwNyIgZD0ibTI2OS4wMDEzNyA5OS4zMTI1MzI2Yy04LjM5NzA3OSA1LjcwNTkyNjQtMTkuODY0Mjg3IDMuNTE3MjM1NC0yNS41NzQ0NzEtNC44Nzk4NDQyLTUuNzEwMTg1LTguMzk3MDc5Mi0zLjUxNzIzNS0xOS44Njg1NDU1IDQuODc5ODQ0LTI1LjU4NzI0NiA4LjM5MjgyMS01LjcwNTkyNjEgMTkuODY0Mjg3LTMuNTEyOTc2OSAyNS41NzQ0NzEgNC44ODQxMDI0IDUuNzE0NDQzIDguMzkyODIxIDMuNTI1NzUyIDE5Ljg2ODU0NTUtNC44Nzk4NDQgMjUuNTgyOTg3OG0xMS4zOTQ4Mi0zMC4wMTE0Njc4Yy04LjE1NDM2NS0xMi4wMTY1MDk5LTI0LjUxNDE5Mi0xNS4xMjQ5NjIyLTM2LjUxNzkyNy02Ljk2MjA4MTQtMTIuMDEyMjUyIDguMTYyODgwOC0xNS4xMjkyMiAyNC41MTg0NDk0LTYuOTYyMDgxIDM2LjUyMjE4NDkgNy4yMjE4MjggMTAuNjM2ODY3NyAyMC44NjA2OTUgMTQuMjgxODQ3NyAzMi4yMjE0NDkgOS4zMjk2MTQ3bDEwLjE3MjczIDE2LjUyMTYzNyA4LjA3MzQ1OS01LjQ4NDUwMi0xMC4xNjg0NzEtMTYuNTIxNjM3YzguNzg4ODI5LTguNzQxOTg5NSAxMC40MTU0NDQtMjIuNzgxMTIyNSAzLjE4MDg0MS0zMy40MDUyMTYybS0yODAuMzk2MTkgMzYuODI2MjYwMmMzLjc4MTI0MDU1IDIuMDQzOTEzIDkuNjA2Mzk0OTEgMy41NzY4NDkgMTYuMTQ2OTE5MSAzLjU3Njg0OSAxNC4zMDczOTY3IDAgMjEuNTYzMjkwNy02Ljg0NzExMiAyMS41NjMyOTA3LTE2LjI0OTExNTEtLjEwMjE5NTctNy4yNTU4OTQtMy45ODU2MzE5LTEyLjA1OTA5MTUtMTMuNDg5ODMxMS0xNS4zMjkzNTM2LTYuMTMxNzQxNS0yLjA0MzkxMzgtOC4wNzM0NTk2LTMuMzcyNDU3OC04LjA3MzQ1OTYtNS43MjI5NTg3IDAtMi40NTI2OTY1IDIuMTQ2MTA5NS0zLjk4NTYzMTkgNS45MjczNTAxLTMuOTg1NjMxOSA0LjE5MDAyMzMgMCA4LjU4NDQzOCAxLjYzNTEzMSAxMC44MzI3NDMyIDIuNzU5MjgzNmwyLjY1NzA4NzktMTAuNjI4MzUxOGMtMy4wNjU4NzA3LTEuNTMyOTM1My04LjE3NTY1NTItMi45NjM2NzUtMTQuMDAwODA5Ni0yLjk2MzY3NS0xMi4zNjU2Nzg1NSAwLTIwLjMzNjk0MjQxIDcuMDUxNTAyNi0yMC4zMzY5NDI0MSAxNi40NTM1MDYyLS4xMDIxOTU2OSA1LjgyNTE1NDMgMy44ODM0MzYyNCAxMS40NDU5MTczIDE0LjMwNzM5NjcxIDE0LjkyMDU3MDggNS43MjI5NTg2IDEuODM5NTIyNCA3LjI1NTg5NCAzLjE2ODA2NjQgNy4yNTU4OTQgNS43MjI5NTg3IDAgMi41NTQ4OTIyLTEuOTQxNzE4MSA0LjA4NzgyNzYtNi42NDI3MTk5IDQuMDg3ODI3Ni00LjU5ODgwNjEgMC0xMC41MjYxNTYxMi0xLjk0MTcxODEtMTMuMzg3NjM1NDYtMy42NzkwNDQ5em02NS4yMDA4NTA2IDMuNjc5MDQ0YzEzLjI4NTQzOTcgMCAyNi4yNjQyOTI0LTguMzgwMDQ2IDI2LjI2NDI5MjQtMjYuNTcwODc5MiAwLTE1LjEyNDk2MjItMTAuMjE5NTY5LTI1LjY1MTExODMtMjUuNDQ2NzI2OS0yNS42NTExMTgzLTE2LjE0NjkxOTEgMC0yNi43NzUyNzA5IDEwLjMyMTc2NDctMjYuNzc1MjcwOSAyNi40Njg2ODM5IDAgMTYuMTQ2OTE4NiAxMS4yNDE1MjU5IDI1Ljc1MzMxMzYgMjUuODU1NTA5NyAyNS43NTMzMTM2em0uMjA0MzkxMy0xMS4xMzkzMjk5Yy02LjU0MDUyNDEgMC0xMC4xMTczNzMzLTYuNDM4MzI4NS0xMC4xMTczNzMzLTE0LjkyMDU3MDggMC03LjQ2MDI4NTQgMi44NjE0NzkzLTE1LjAyMjc2NjUgMTAuMjE5NTY5LTE1LjAyMjc2NjUgNy4wNTE1MDI3IDAgOS45MTI5ODIgNy41NjI0ODExIDkuOTEyOTgyIDE0LjkyMDU3MDggMCA4Ljk5MzIyMDgtMy43ODEyNDA1IDE1LjAyMjc2NjUtOS45MTI5ODIgMTUuMDIyNzY2NXptMzAuNTU2NTExNSAxMC4wMTUxNzc5aDE1LjUzMzc0NDZ2LTI4LjgxOTE4NWMwLTEuNDMwNzM5Ni4xMDIxOTYtMi44NjE0NzkzLjUxMDk3OS0zLjg4MzQzNjIgMS4xMjQxNTItMi44NjE0NzkzIDMuNjc5MDQ1LTUuODI1MTU0NCA3Ljk3MTI2NC01LjgyNTE1NDQgNS42MjA3NjMgMCA3Ljg2OTA2OCA0LjM5NDQxNDcgNy44NjkwNjggMTAuODMyNzQzMnYyNy42OTUwMzI0aDE1LjUzMzc0NXYtMjkuNTM0NTU0OGMwLTE0LjcxNjE3OTQtNy42NjQ2NzctMjEuNTYzMjkwNy0xNy44ODQyNDYtMjEuNTYzMjkwNy04LjM4MDA0NyAwLTEzLjM4NzYzNSA0LjgwMzE5NzUtMTUuNDMxNTQ5IDguMDczNDU5NmgtLjMwNjU4N2wtLjcxNTM3LTYuOTQ5MzA3aC0xMy40ODk4MzEzYy4yMDQzOTEzIDQuNDk2NjEwNC40MDg3ODI3IDkuNzA4NTkwNi40MDg3ODI3IDE1Ljk0MjUyNzd6bTk2LjM3MDUzNjYtMjkuNTM0NTU0OGMwLTExLjc1MjUwNDQtNS4yMTE5ODEtMjEuNTYzMjkwNy0yMS44Njk4NzgtMjEuNTYzMjkwNy05LjA5NTQxNyAwLTE1Ljk0MjUyOCAyLjU1NDg5MjMtMTkuNDE3MTgxIDQuNDk2NjEwNGwyLjg2MTQ3OSA5LjkxMjk4MmMzLjI3MDI2Mi0xLjk0MTcxODIgOC42ODY2MzQtMy42NzkwNDQ5IDEzLjc5NjQxOC0zLjY3OTA0NDkgNy42NjQ2NzcgMCA5LjA5NTQxNyAzLjc4MTI0MDYgOS4wOTU0MTcgNi40MzgzMjg1di42MTMxNzQyYy0xNy42Nzk4NTUgMC0yOS4zMzAxNjQgNi4xMzE3NDE0LTI5LjMzMDE2NCAxOS4xMTA1OTQxIDAgNy45NzEyNjQyIDYuMDI5NTQ2IDE1LjMyOTM1MzIgMTYuMTQ2OTIgMTUuMzI5MzUzMiA1LjkyNzM1IDAgMTEuMDM3MTM0LTIuMTQ2MTA5IDE0LjMwNzM5Ni02LjEzMTc0MWguMzA2NTg3bC45MTk3NjIgNS4wMDc1ODloMTQuMDAwODA5Yy0uNjEzMTc0LTIuNzU5Mjg0LS44MTc1NjUtNy4zNTgwOS0uODE3NTY1LTEyLjA1OTA5MTd6bS0xNS4wMjI3NjcgMTEuMzQzNzIxN2MwIC45MTk3NjEyLS4xMDIxOTYgMS44Mzk1MjI0LS4zMDY1ODcgMi42NTcwODc5LTEuMDIxOTU3IDMuMTY4MDY2NC00LjI5MjIxOSA1LjcyMjk1ODctOC4wNzM0NiA1LjcyMjk1ODctMy40NzQ2NTMgMC02LjEzMTc0MS0xLjk0MTcxODEtNi4xMzE3NDEtNS45MjczNTAxIDAtNS45MjczNSA2LjMzNjEzMy03Ljg2OTA2ODEgMTQuNTExNzg4LTcuODY5MDY4MXptMjIuMjc4NjYxIDE4LjE5MDgzMzFoMTUuNTMzNzQ1di0yNS4yNDIzMzU4YzAtMS4zMjg1NDQuMTAyMTk1LTIuNDUyNjk2Ni4zMDY1ODctMy40NzQ2NTM1IDEuMDIxOTU3LTQuOTA1MzkzMSA0LjkwNTM5My03Ljg2OTA2ODEgMTAuNjI4MzUxLTcuODY5MDY4MSAxLjczNzMyNyAwIDIuOTYzNjc1LjIwNDM5MTMgNC4xOTAwMjQuNDA4NzgyN3YtMTQuNjEzOTgzN2MtMS4xMjQxNTMtLjIwNDM5MTQtMS44Mzk1MjMtLjMwNjU4NzEtMy4yNzAyNjItLjMwNjU4NzEtNC45MDUzOTMgMC0xMC45MzQ5MzkgMy4wNjU4NzA3LTEzLjQ4OTgzMSAxMC40MjM5NjA0aC0uNDA4NzgzbC0uNjEzMTc0LTkuMjk5ODA3OGgtMTMuMjg1NDRjLjMwNjU4NyA0LjI5MjIxOS40MDg3ODMgOS4wOTU0MTY1LjQwODc4MyAxNi40NTM1MDYyem0xMzIuMDYwNDY1LTQ5LjE4NTYzNjRoLTguOTkzMjIxdjMwLjI0OTkyNDRjMCAxLjczNzMyNjgtLjMwNjU4NyAzLjM3MjQ1NzgtLjgxNzU2NiA0LjU5ODgwNjEtMS42MzUxMzEgNC4wODc4Mjc2LTUuODI1MTU0IDguMjc3ODUwOS0xMS44NTQ3IDguMjc3ODUwOS04LjA3MzQ1OSAwLTExLjAzNzEzNC02LjQzODMyODUtMTEuMDM3MTM0LTE1Ljg0MDMzMnYtMjcuMjg2MjQ5NGgtOC45OTMyMjF2MjguOTIxMzgwNGMwIDE3LjI3MTA3MiA5LjI5OTgwOCAyMS42NjU0ODYgMTcuMDY2NjggMjEuNjY1NDg2IDguNzg4ODMgMCAxNC4xMDMwMDUtNS4yMTE5OCAxNi4zNTEzMTEtOS4xOTc2MTJoLjIwNDM5MWwuNTEwOTc4IDguMDczNDZoNy45NzEyNjRjLS4zMDY1ODctMy44ODM0MzYtLjQwODc4Mi04LjM4MDA0Ny0uNDA4NzgyLTEzLjU5MjAyN3ptOS44MTA3ODYgMzYuNjg4MjUyOWMwIDQuMzk0NDE0NS0uMTAyMTk2IDkuNDAyMDAzNS0uNDA4NzgzIDEyLjc3NDQ2MTVoNy43NjY4NzNsLjUxMDk3OC04LjE3NTY1NWguMjA0MzkxYzMuNzgxMjQxIDYuNTQwNTI0IDkuNDAyMDA0IDkuMjk5ODA3IDE2LjU1NTcwMiA5LjI5OTgwNyAxMS4wMzcxMzUgMCAyMi4yNzg2NjEtOC43ODg4MjkgMjIuMjc4NjYxLTI2LjU3MDg3OTEgMC0xNC45MjA1NzA4LTguNTg0NDM4LTI1LjE0MDEzOTktMjAuODQ3OTIxLTI1LjE0MDEzOTktNy45NzEyNjQgMC0xMy42OTQyMjMgMy40NzQ2NTM1LTE2Ljg2MjI4OSA4Ljk5MzIyMDhoLS4yMDQzOTF2LTMwLjk2NTI5NDJoLTguOTkzMjIxem04Ljk5MzIyMS0xNS45NDI1Mjc3YzAtMS40MzA3Mzk3LjIwNDM5MS0yLjY1NzA4OC41MTA5NzgtMy43ODEyNDA2IDEuNzM3MzI3LTYuNzQ0OTE1NSA3LjQ2MDI4NS0xMS4wMzcxMzQ1IDEzLjU5MjAyNy0xMS4wMzcxMzQ1IDkuNjA2Mzk1IDAgMTQuNzE2MTc5IDguNDgyMjQyMyAxNC43MTYxNzkgMTguNDk3NDIgMCAxMS4zNDM3MjE2LTUuNTE4NTY3IDE5LjAwODM5ODMtMTUuMDIyNzY2IDE5LjAwODM5ODMtNi40MzgzMjkgMC0xMS43NTI1MDUtNC4yOTIyMTg5LTEzLjQ4OTgzMS0xMC41MjYxNTYtLjIwNDM5Mi0xLjAyMTk1NjktLjMwNjU4Ny0yLjE0NjEwOTUtLjMwNjU4Ny0zLjI3MDI2MjF6bTgzLjgwMDQ2NiA1LjYyMDc2M2MuMjA0MzkxLTEuMDIxOTU2OS4zMDY1ODctMi4zNTA1MDA5LjMwNjU4Ny00LjE5MDAyMzMgMC05LjA5NTQxNjUtNC4xOTAwMjMtMjMuMzAwNjE3NS0yMC4zMzY5NDItMjMuMzAwNjE3NS0xNC40MDk1OTMgMC0yMy4zMDA2MTggMTEuNzUyNTA0NC0yMy4zMDA2MTggMjYuNjczMDc1MyAwIDE0LjgxODM3NTEgOS4xOTc2MTIgMjQuOTM1NzQ4NyAyNC4zMjI1NzQgMjQuOTM1NzQ4NyA3Ljg2OTA2OSAwIDEzLjM4NzYzNi0xLjczNzMyNyAxNi41NTU3MDItMy4xNjgwNjdsLTEuNjM1MTMxLTYuNDM4MzI4Yy0zLjI3MDI2MiAxLjQzMDczOS03LjI1NTg5NCAyLjU1NDg5Mi0xMy42OTQyMjIgMi41NTQ4OTItOC45OTMyMjEgMC0xNi42NTc4OTgtNS4wMDc1ODg3LTE2Ljg2MjI4OS0xNy4wNjY2ODAyem0tMzQuNTQyMTQ0LTYuNDM4MzI4NWMuNzE1MzctNi4yMzM5MzcyIDQuNTk4ODA3LTE0LjYxMzk4MzggMTMuNzk2NDE5LTE0LjYxMzk4MzggMTAuMDE1MTc3IDAgMTIuNDY3ODc0IDguODkxMDI1MSAxMi4zNjU2NzggMTQuNjEzOTgzOHoiLz48cGF0aCBmaWxsPSIjNDk5Y2QyIiBkPSJtNDk2LjY5MzUzNSAxMDguNzg3MzEzaC02LjI4NTAzNWMwLTUwLjYyNTE5MDYtNDEuNzcyNDg5LTkxLjgxMDA1MzktOTMuMTEzMDQ5LTkxLjgxMDA1Mzl2LTYuMjg1MDM1YzU0LjgxMDk1NSAwIDk5LjM5ODA4NCA0My45OTUyNDQ4IDk5LjM5ODA4NCA5OC4wOTUwODg5em00LjM0MzMxNi0zMy43NjcxNTk4Yy03LjU0MTE5LTMxLjc1NzMxMDktMzMuMjc3NDcxLTU4LjI2NDMxODEtNjUuNTQ1NzYxLTY3LjUzMDA2MDcxbDEuNDQ3NzczLTUuMDM3Mzk1OTJjMzQuMDU2NzEzIDkuNzgwOTc5MjMgNjEuMjE5NDc2IDM3Ljc4MjU5ODQzIDY5LjE5MDc0IDcxLjM1Mzg4Mjczem03LjA3NzA1Mi0yOS44MDI4MTgzYy03Ljc3NTM4OS0xNi45NTU5NjgzLTIxLjAzNTI4LTMxLjc0NDUzNjQtMzcuMzA1Njg1LTQxLjYzNjIyNzU4bDIuMTc1OTE2LTMuNTgxMTA3MzJjMTYuOTkwMDM0IDEwLjMzMDI4MTEgMzAuODA3NzQzIDI1Ljc1NzU3MjIgMzguOTMyMyA0My40NjcyMzM3eiIvPjwvc3ZnPg==" vertex="1" parent="1">
          <mxGeometry x="950" y="267.5" width="163.84" height="40" as="geometry" />
        </mxCell>
        <mxCell id="fgHvfDnMfx1o7fpBP95t-52" style="edgeStyle=orthogonalEdgeStyle;rounded=0;orthogonalLoop=1;jettySize=auto;html=1;" edge="1" parent="1" source="fgHvfDnMfx1o7fpBP95t-30" target="fgHvfDnMfx1o7fpBP95t-50">
          <mxGeometry relative="1" as="geometry">
            <Array as="points">
              <mxPoint x="889" y="400" />
              <mxPoint x="889" y="400" />
            </Array>
          </mxGeometry>
        </mxCell>
        <mxCell id="fgHvfDnMfx1o7fpBP95t-53" value="&lt;font style=&quot;font-size: 14px;&quot;&gt;&lt;b&gt;Build Artifact&lt;/b&gt;&lt;/font&gt;" style="edgeLabel;html=1;align=center;verticalAlign=middle;resizable=0;points=[];" vertex="1" connectable="0" parent="fgHvfDnMfx1o7fpBP95t-52">
          <mxGeometry x="-0.1256" relative="1" as="geometry">
            <mxPoint x="6" y="9" as="offset" />
          </mxGeometry>
        </mxCell>
        <mxCell id="fgHvfDnMfx1o7fpBP95t-55" style="edgeStyle=orthogonalEdgeStyle;rounded=0;orthogonalLoop=1;jettySize=auto;html=1;entryX=0.625;entryY=0.75;entryDx=0;entryDy=0;entryPerimeter=0;" edge="1" parent="1" source="fgHvfDnMfx1o7fpBP95t-30" target="fgHvfDnMfx1o7fpBP95t-1">
          <mxGeometry relative="1" as="geometry">
            <Array as="points">
              <mxPoint x="740" y="343" />
              <mxPoint x="740" y="450" />
            </Array>
          </mxGeometry>
        </mxCell>
        <mxCell id="fgHvfDnMfx1o7fpBP95t-61" value="&lt;font style=&quot;font-size: 14px;&quot;&gt;&lt;b&gt;Test Notification&lt;/b&gt;&lt;/font&gt;" style="edgeLabel;html=1;align=center;verticalAlign=middle;resizable=0;points=[];" vertex="1" connectable="0" parent="fgHvfDnMfx1o7fpBP95t-55">
          <mxGeometry x="0.2385" y="1" relative="1" as="geometry">
            <mxPoint y="-5" as="offset" />
          </mxGeometry>
        </mxCell>
        <mxCell id="fgHvfDnMfx1o7fpBP95t-30" value="" style="shape=image;verticalLabelPosition=bottom;labelBackgroundColor=default;verticalAlign=top;aspect=fixed;imageAspect=0;image=data:image/png,iVBORw0KGgoAAAANSUhEUgAAAgAAAAIACAYAAAD0eNT6AAAABHNCSVQICAgIfAhkiAAAAAlwSFlzAAAOxAAADsQBlSsOGwAAABl0RVh0U29mdHdhcmUAd3d3Lmlua3NjYXBlLm9yZ5vuPBoAACAASURBVHic7d13nF1Vuf/xz0waSQiBUEIJEHqHSJMqRa8gCDYQFJSIYsMuqFw7dsQOFlSIooIXFQQbRQGpCkiRJjV0AwESQkLqzO+PZ84vk2HKmb2etdfae3/fr9d6wb1yzjx7n7K/Z+1VOgi3FbA/sBOwJbAhMB6Y6PDcIlIdy4AngRuAc4FfA11JKxKRAXUUfNwGwNuAtwCb+JUjIjVyC3A4cF/qQkTkxYYbADYGPgUcDYzyL0dEauYZ4JXATakLEZEVtRsARgMfB04CxsYrR0Rq6FksBNyYuhARWa6dALABdi9vt8i1iEh9zcVCwD9TFyIiZqgAsDfwe2C1EmoRkXpTT4BIRjoH+d8OAi5GF38R8bEacAmwc+pCRGTgHoDdgUux6XwiIp50O0AkA/0FgI2xLjr98heRWHQ7QCSxvrcARmMLeOjiLyIx6XaASGJ9A8AngF1SFCIijbMacBmwa+pCRJqo9y2AjYHb0Tx/ESmXbgeIJNC7B+DT6OIvIuVTT4BIAq0egA2w9bq1vK+IpKKeAJEStXoAjkUXfxFJSz0BIiXrwH79dwe2LmzVwDcCGwErlXkQIlKKZYR/VwzVnkGzA0RKsRXhH9jHgL3KLlxESldGAFAIECnJ8YRf/NcvvWoRSaGsAKAQIFKCswjr9t+7/JJFJJEyA4BCgEhk11D8w/n7BPWKSDplBwCFAJGIHqP4B/OIBPWKSDopAoBCgEgk8yj+odwoQb0ikk6qANANzEFTBEVchXygV05Qr4ikkzIAqCdAxFnIh1Fz/UWaJXUAUE+AiCMFABFpVw4BQCFAxIkCgIi0KyQAzAl4bH9NtwNEAikAiEi7QgLAbsDsgMerJ0DEmQKAiLQrJACMBaahECCSDQUAEWlXaAAAhQCRbCgAiEi7PAIAKASIZEEBQETa5RUAQCFAJDkFABFpl2cAAIUAkaQUAESkXd4BABQCRJJRABCRdsUIAKAQIJKEAoCItCtWAACFAJHSKQCISLtiBgBQCBAplQKAiLQrdgAACwFPBfwdhQCRNikAiEi7yggAADugECASnQKAiLSrrAAACgEi0SkAiEi7ygwAoBAgEpUCgIi0q+wAAAoBItEoAIhIu1IEAFAIEIlCAUBE2pUqAIBCgIg7BQARaVfKAAAKASKuFABEpF2pAwAoBIi4UQAQkXblEABAIUDEhQKAiLQrlwAACgEiwRQARKRdOQUAUAgQCaIAICLtyi0AgEKASGEKACLSrhwDACgEiBSiACAi7co1AIBCgMiwKQCISLtyDgCgECAyLAoAItKu3AMAKASItE0BQETaVYUAAAoBIm1RABCRdlUlAIBCgMiQFABEpF1VCgCgECAyKAUAEWlX1QIAKASIDEgBQETaVcUAAAoBIv1SABCRdlU1AIBCgMiLKACISLuqHABAIUBkBQoAItKuqgcAUAgQ+f8UAESkXXUIAKAQIAIoAIhI++oSAEAhQEQBQETaVqcAAAoB0nAKACLSrroFAFAIkAZTABCRdtUxAIBCgDSUAoCItKuuAQAUAqSBFABEpF11DgCgECANowAgIu2qewAAhQBpEAUAEWlXEwIAKARIQygAiEi7mhIAQCFAGkABQETa1aQAAAoBUnMKACLSrqYFAIgXAl5a5kGI9EcBQETa1cQAAAoBUlMKACLSrqYGAFAIkBpSABCRdjU5AIBCgNSMAoCItKvpAQAUAqRGFABEpF0KAEYhQGpBAUBE2qUAsJxCgFSeAoCItEsBYEUKAVJpCgAi0i4FgBdTCJDKUgAQkXYpAPRPIUAqSQFARNqlADAwhQCpHAUAEWmXAsDgFAKkUhQARKRdCgBDUwiQyuii+JtyTIJ6RSSdpRT/vhifoN5UpgGz8Q0BzwK7lHkQUn9Fk+rcFMWKSFLzKH4B2zBBvSmpJ0CydyXF3ojXpShWRJJ6jOIXr0MT1JvaDqgnQDLVCZxf8LFFHyci1fVowGMPd6uiOm4FXg487ficqwKXoBAgDsYz/FT/X2BCimJFJKmfU/yX61Jgm/JLzoJ6AiRb+wKLae9NtwT4nyRVikhqHybsonUnMLH0qvOgECDZOgB7Mw32ZpsDvDpVgSKS3DTCL1q3AZuUXXgmFAIkW2sB3wKeYMU32Czgu8Da6UoTkQx0EjYQsNVewL5rdgY6Sj2C9BQCJAsDffA6gfWwQPAUNvCnq6yiRCRrpwAnOj7fEuBJYJHjc+ZuEjaYz9Mc4JXADc7PKyIiAsCWhK0IqBavqSdARESi+i3pL3ZqA4eArQd+6URM0+69iYiP7YF/ASNSFyL9uhd7jRamLkTypQ+viBQxC1gdLUubq9WxxYeuT12I5Es9ACJS1CrATcCmqQuRft0M7Ji6CMmXAoCIhNgRuAZtDZ6jbiykPZ+6EMlTZ+oCRKTS/gW8FU0TzlEHsE7qIiRfCgAiEuo84D0oBORoVOoCJF8KACLi4QzgMDTqXKQyFABExMv5wN7AA6kLEZGhKQCIiKcbsfX9z8IGoYlIphQARMTbs8CxwF7AFWlLEZGBKACISCzXAvthQeBsYH7ackSkN60DICJlGY8Fgv2x2wRbAmsmraj+tgHuTF2E5Km/ALAB8AZgJ2w74CexFaV+AzxUXmki0gDjgZV7/in9uxz7Xi5CAUDaMgb4JrYnd387TC0GvotW/BIRKdN9FN8ZULsCypDGAX+nvTfUdVhiFxGR+BQAJKpfMLw31a/TlCki0jgKABLNHhR7Y+2boFYRkaZRAJAoOoHjCj72HZ6FiIiISHk6gX0KPnZfxzpERESkRJ3AugUfuzYwwrEWERERKUknNv2viBFoq0kREZFK0lLAIiIiDaQAICIi0kAKACIiIg2kACAiItJACgAiIiINpAAgIiLSQAoAIiIiDaQAICIi0kAKACIiIg2kACAiItJACgAiIiINpAAgIiLSQAoAIiIiDaQAICIi0kAKACIiIg2kACAiItJACgAiIiINpAAgIiLSQAoAIiIiDaQAICIi0kAKACIiIg00MnUBiY0D9gSmARsBa6QtZwXPAw8DtwNXAbPSliMiInXTHdBWSlBvqA7gVcDvgIWEHX+Z7Trg3cBY/1MiIhm7j+LfG1snqFcqpEkBYF/gZtJfzEPaf4H3AiN8T42IZEoBQKJpQgBYCfgh0EX6C7hXuxbY0PMkiUiWFAAkmroHgDWBG0h/wY7Rngb28DtVIpIhBQCJou6zANYArgR2Tl1IJJOAS4G9UxciIiLVUucAMAb4A7BV6kIiGwdcCGyeuhAREamOOk8DPAV4aeoiSrIq8GtgN2BRgr/fCawLrIXNshDJ1Rysa3wesBSYDyxOWpFIInUNALsA70tdRMmmAScAXyrxb04GTgKOANYu8e+KeFqGjaeZ3fPPVnscW4uj1R4CXkhUo4i7DiwNFzUWm0ufm6uxBX6aZj62oNFTJfytA4FzgYkl/C2RXMwC7gXu7NMei/g37wM2KfjYbbD6RF6kjj0Ae9PMiz/AeOCDwKci/539sHEHoyL/HZHcTO5pe/X5/88BbgL+ic06ugF4tNzSRIanjj0AM4BjUheR0OPABli3ZgwrY7+A1OUvMrjHgeuBK4C/AXcUfB71AEgUdesBGAG8NnURia2LDX68NtLzvxNd/EXasS7w+p4GdvvgciwMXIKNKRBJpm7TAF+C7kmDddHH8vqh/xMR6cdk4EjgDGAmtiz5ydigZc2ekdLVLQDskLqATGwf8bm1spiIj2nAp7FxA49iy5XvQ/2+lyVTdbsFsHHAY5cC3wJuJGxchId1gU9QvKt9U8da+lo54nOLNNW6wLt62qPAOcAvgVtTFiX1VrcAsErAY38MfMyrEAcPAr8v+NiYt0FmAVMiPr9I000BTuxpd2ALbIm4q1tX05iAx97lVoWPoiOGIe4mTVdFfG4RWdE2wITURUg91S0ASHxnpS5ARETCKQDIcF0KXJS6CBERCaMAIEW8FbgtdREiIlKcAoAUMQdbCvXnQFfiWkREpIC6zQKQ8szDllz+OrYb4E5otHIVrIktFV1XrW1+FwELev5/C7Glscf3/N9jgHHY4jurll2gSC4UACTU7T1N8jYBm1b2kdSFFLAYmxvf2pZ3JvAINiX1mT5tyTCfuxOY1NNW7/XPqVhQ2gBYH9gQ2/ukak4CPo7tSyCyAgUAkXobhS0u82ny76FZjE3HvRMLla1/PkC8W01dwOyeNpT1sZUwt+v557bAVuS9ONbRwOuAb2C9dc+nLUdy0x3QYs43L+IMih/L+xPUO5hNKH4s2oZUAA4A7ibsMx6z3Y+tdvcBbAOr0XFOQ1QjsEBwHPBTLLAsI/257a89Abwdjf2SXhQAFACkXjYCzif9BadvexBbcfON5N8bEWIV4GBsafHbSX/e+7brgB2jHb1UigKAAoDUwyjgU9jgt9QXmW7gBeBC4L3AZhGPO3frYlNnfwk8S/rXpRsbKHk6sFrE45YKUABQAJDq2xG4ifQXlgXYQlFvJWxvjroagU2h/Q7WJZ/69fovcHjUI5asKQAoAEh1rQx8l7T3nRcC5wGHkt93Qs5GAPtht0XmkjYInAdMjnu4kiMFAAUAqaY9gftId9G4CfvcrB77QBtgHPAW4K+kC3OzgaNiH6jkRQFAAUCqZTTwFew+btkXiXnYvePtox9lc20InIytc5AiCJyDFkhqDAUABQCpji2Bmyn/onA/tojQxPiHKD3GYKttphjb8RCwT/xDlNQUABQApBqOwRZyKfNCcCXwGjR3PLW9gd9S7u2BZcCX0IJxtaYAoAAgeRtL2Hu7SLsaOKSMg5Nh2QbbhKvM2z9XAuuUcXBSPgUABQDJ1xbYkrhlfdlfiv3alLxtja0rUFYQeBzdEqglBQAFAMnTIdjWy2V8wV+HzU+XatkSuIBy3iNLsA2lpEYUABQAJC8d2A5uZdzvfRhbtKejlCOTWHYDrqGcIHAO1dwZUfqhAKAAIPkYiy3KEvtL/BngBGykudRDJ7b730PEf/9cC6xdzmFJTAoACgCSh7WA64n7xd2FDSJbs6RjkvKNA76Kba8c8730MDCtpGOSSBQAFAAkvc2Ae4j7hX0f8MqyDkiS2474twXmAQeWdUDiS3N7RdLbC/gn8XbMWwx8EdgWuCTS35D8/Bub0fEebDBpDCsDv0dLCFeSFngQSesg7J7/uEjPfyt2X/j2SM+fytrABsAUbBObSb3ayixfynYkMKHn3xcAi3r+fR62qNIzvdps4BFgJrZTX1fkYyhDF/BD7CJ9JnF+rY8Gzsa2Pf56hOeXSBQARNJ5E/AzYFSE5+4Gvgd8jOUXvaoZB2yFLX6zDdaDsSl24Y99+3EJ8Bh22+SOPm1u5L8dwxNY2DwO+CYw3vn5O4BTgDWwGSxSAQoAEmoicDCwM/ZLLMbFrI5GY/P8Y9yGexBbNviqCM8d08bY7ZCdetou2HlKYRQwtae9os//9gS2UuI12Dr9N1CNkNWNjZO6EvvFvkuEv/ExbGbJh3v+nmROgwA1CLCIEcAnSL+PudqK7WyWd3nnbh3gcGxWwmzSn7uibT62guLHseBShTUVRmLjQmKtNfEjNMasEkJeZAWAeHIOAKOACwPqU/NvC7HBXjnrBPYATiX+jIeU7XHsu+hA0vVgtOsg4GninIcZKARkL+QFVgCIJ+cA8P2A2tT828PAroO+Yul0APsCp2P31FOfq7Lbs1ivzGvINwxsBNxInOM/g2r0iDRWyIurABBPrgFgR8rdklRt8HYJNvAqN1OwLvH7SH+OcmnPYF3jOwac11hWIt6Ok98p8ThkmEJeWAWAeHINAD8KqEvNt30LG4uRixHA64G/opA4VPsX8E7iTf8s6r3YDAjv4/1qmQch7Qt5UXMLAKdR/FhOTVDvYF5B8WO5P2Jd9wfUpebTlgLHD/VClWgV4IPY7IPU56ZqbQ72C3nDYZ/1eF4FPIf/sX6izIOQoXVgL0xRY7HBR7n4CsXfZC/0PPZ67NdLSlOxYym6MtwtwEvcqlnRQrSBTErzgCOBP6UuBFgPm/b1dvznlTfNUmxBqC9haw2ktj3wB2B9x+fsBqZjsz4kEyGJLrcegHeRPtHn0H4beiIHEeOXgVp77RFgh6FfoujWx361LiD9Oalb6wIuwqYTprYu/oMDF6P9KLIS8mLmFgD2IP0HOIf2+dATOYh/ZXB8TWz3YCvgpbQWNpp/EenPR91bF/AbYPO2Xpl4JgCX43tsz5HnQMhGCnkhcwsAo7H1vVN/eFO3fQPP42A+n8HxNa39m7R7r4/FRvTPIf25aFpbjA28nTzkqxTPWOyWk+dxPYb1MEhiIS9ibgEA4P9I/6FN2WYTd77xmmj1vzLbTaSb5tcBvAVbZyD1eWh6m4ONt0i1lsBobIyC93s7t1kQjRPyAuYYAA4k/Yc1ZftW+Ckc0lsTHl+T2tXYXgspbIotb5v6HKit2O4BXj7I6xbTCGzzKs/j+RVaKCiZus0CaLmJZt5jWoLNHHiohL/1PixsaEOpOK4BDsDWmS/TGOAkbEZM7rM9nsR6Jx7Glt/tvbXvQmwVPrBZPctY/ut5FezHS+8thCdjYyymYrdbcl7Cthv4KXZb5pmS/3Znz9+e7vicnwS+7Ph8Mgwh6S3HHgCA/yF9Uk/RTvE4ecOwE/BnbApT6mOvU7uRNL/8dwXuKlBv7PY4NjL+K8BR2BTXsZHOAVhQ2BI4DPgsdlsxx/UvZgGvi3QOBjMCOKdAvQO1ZWhmQBJ17QEAW3/76NRFlOh+YBo2CLJsa2A9LuuQ/69Gb2OxVc68wvDtwH7YWI6yjAQ+hf0SS92j0w3cBvwNW5PjeuwXfg7WBF7a0/br+Wfq8wVwFvAhbHR9WUZhwei1Ts/3FPYdUsZOptJLSHLLtQcAbPrKnaRP6WW0BeQxb7iJfoDf63gP5Y/23wL4h0PtIe1p7N7ym0k72n24VsE2+TmN9AMlHwD2jnu4LzIa24vC6xiuwYKFlCjkBcs5AIAtr/koaT+YsdsS7EtIyvcG/F7Hxyh/nv9RpJs2+18sPL2CPH5Fh+rAbqF8jXQbIC0FPk254xcm4Ls2yDdLrF0Ie7FyDwAAGwP3kuYDGbstAA71O1UyDOvjt4/6fMrdznckdtui7PfrUmxmweHU/5feTtj8/RQrZ/4RG9hYljWx3iuP2ruAg0usvfFCXqwqBACwD8MFlP9BjNn+Qx7LwjbRSGyKntdF8dUl1r4+cJ1T7e22mcCJ5LltcWzjgWOBmyn3nD9AuTOhNsfGrXjU/gQWKqQEIS9UVQJAy5Gkv1cX2uYDJxN3FLQM7gv4vZ5lbkO9OzZyvKz36pXYbZKctixOaR9sn46ytkp+ATiilCMze+O3TPSf0PoApQh5kaoWAMAGrryD8n8FhbaZ2IV/LfczIsOxN37THsu83/kGytu852pg/3IOq5I2xm4PLCH+a9EFfK6UozKeG7K9q8S6G6nO0wDbsQE2nWcatoDOquQRapZhS38+hG0NeiVwK2GvlYQbg3XlbuXwXJdjc5+XOjzXUE7CtpmN/YvqYuxic33kv1MXm2HTL48m/sC9s4B3Y3sLxPZdfHq25mPbEj/g8FwygJCElsPFUqQsX8Lnl80jlNOT04n90oz9K/NWbPEtKWYa5Sy7fBmwcgnHMxK4wqnmi9GtgKgUAESGtj326yn0C20xsGcJ9Y7E1lmPeUH5LzbALedlc6vkIOBu4r5m1wGrlXAsk7GprR41v62EehtLAUBkcCOAG/D5Mnt3CfWOxgabxbqIdAE/B1Yv4ViaZhS2xv8LxHv9bsdW7YxtH3zGOcwB1iuh3kZSABAZ3An4fPH+soRax2HdprEuHncAe5VwHE23ObYccqzX8S7Kuaj+r1O955ZQayMpAIgMbGNsMFLoF9hD2CDTmEZhi8DEuGB0YeMJtH97eTqAdxJvtcYylp7uxG88gGaWRKAAIDKw8wn/4lqGzTaJqRPfHdr6hpfY9cvAtsJ2iIzx2t5G/FUDp+CzauYd1H8FydIpAIj0b198vmS/ErnODuAMp1r7tt+RZmtiWdEobN2ILvxf439ga/rHdJhTrR+NXGfjKACIvFgnPpuc/AsblBfTKQ519m1LsOV7NQUrL4cRZ3+By4n/Pj3Xoc7nqNaOkdlTABB5sbfjcxF9SeQ6T3Kos2+bhfV+SJ62wLrDvV/3s4kb+NbAZynqH0SssXEUAERWtDLwOOFfVF+OXOfr8e8SvgOYGrluCbcy8Af8Q8DnItf9ZocalwJbR66zMRQARFbkseLfPcTdsGkH/EeHX0b8mQriZwRwGr7vgS7gmMh1ewysPT9yjY2hACCy3DqEb5rTRdwpS2sADwbW2LedhUZYV9Un8O0JWgi8NGK9G+AztVbrUThQABBZ7puEfzGdGbG+kfgvEPN9tJxv1b0T322GHwbWjFivxwJBf4tYX2MoAIiYyYT/MnmOuIurfC+wvr7tqxFrlXK9CZ/9KnpfYEdGqnU0Pvse7BOpvsZQABAxXyf8C+njEes70qG+3u0zEWuVNF6Pz/r7rRZzDYsDHer7a8T6GkEBQMQ2tplH2OfhAWBMpPrWw2c1tVb7TqQ6Jb3DsJHyHu+TLuBVEWv9s0ONL4tYX+0pAIjYL53QL6LDI9XWif3S8br4z0AL/NTddPwGBj5GvJ0ftyc8rFwcqbZGUACQplud8NXVriLeRfXEwNp6t//Dpo9J/X0Uv/fNeRHrPDOwti4sSEgBCgDSdB6r6cXqhpyGTcvy+BK/mPjLvUpePNcJmB6pximET72dEam22lMAkCYbiU15CvkcXBaptjHA7YG1tdrdaJGfJhoBXITPe+gZ4s1w+XZgbYuB9SPVVmsKANJkbyD8izHWgiSfdKitG5gDbBmpRsnfysAt+LyXfh2pRo8FuDSltQAFAGmyKwn7DFwSqa4N8Fnqdxnw6kg1SnVsCMzGJwQcGqnG0F6A2eiaNGwKANJU2xP+ZbhHpNoucKitGxvfIAJwMD6rBT6E9Sp4Wxd4IbC2oyLUVWsKANJUPybs/X9lpLoODqyr1S5E0/1kRSfj8976QqT6Qj+Tf49UV20pAEgTrUb4sr+vi1DXWOD+wLq6gSeJuySxVFMncAXh768F2G0Fb1sRvn7BNhHqqi0FAGmidxH23r+fOPPpPQb+dQEHRahN6mEjYC7h77NfRqovdNbCtyPVVUsKANJEfyfsvf/BCDWtBjwbWFc3cHqE2qRejsEnaO4WobZ9A+uahba2bpsCgDTNhoR1M84FVolQ15cCamq1u4BxEWqT+rmQ8PdbrC15/x1Y18GR6qodBQBpmtC9yL8boaY1CF+OuBvYL0JtUk/r4/Oe2zdCbe8PrCnWegW1owAgTRO6ut60CDV9M7CmbuDsCHVJvX2A8Pfd1RHqmkjYOhgvoJUv26IAIE2yI2Hv+Rsi1LQe4augzUGj/nOyJjYafQ/sF/JOwBbE2y66qBHYezo0BOwfobafBtZ0TISaakcBQJrkVMLe8++JUFPoCmjd2C85SaMTWw76c9gUu6cZ+HVaBswEzgGOJ4/16/ckfOrdXyPUtXdgTRdEqKl2FACkSe6l+Pt9Af7dihMIn5J1K7apkZRrXWzgZshmUl1YF/rRpB25/mvC3oPd+N8a6yBsTYwXsM+XDEIBQJpiS8Le7zHmPX8wsKZutNZ/2SYDP8Bvm+ZWewR4O9ajULaphC/DOyNCXV8IrOnwCDXVigKANMUJhL3fX+tcTwe2TW9ITf9Ey/2WpQN4Lz5rNQzWbgJ2KOmYevPYkneKc02bB9b0K+d6akcBQJriCoq/15/Dlun15LHm/8uda5L+TcJn3ny7bSHwoVKObLm1CR+MGmOPgJsD6nmGOCt21oYCgDTBROwXStH3eozu/0sC6ulGG5+UZRN89mco0n5CueM7QqejPor/BffTgTXFWK2wNhQApAmOJOy97r3xz6aEj7zey7kmebFtgcdJc/FvtQspb4DgZMJ7Abz3odgmsJ7POddTGxo5bNbE5uiuTB6jRhdii2DMxPbe7kpaTT2EfCnNB/7iVUiPowi7d389cRZgkeW2AC4l/foKhwDnAm/EphHGNAtbUOqdAc9xLPAnn3IAuAP4D/Z6FHEACgEDamIPwCjgNcAvSJ/uh2rzsA/Te7D7kFLMI4T9AvMWOvjvzRFqkuU2B54g/ee/d/ti1CNeLnRL3kXYjypPpwTUsxR9dw4o5A1ZtQAwBvgw8BjpP8xF2gLge8A63iem5jYi7Lwf71zPzoH1PA6Mdq5JltsEu5ed+vPety3Dfs2W4U+Btb7XuZ6XB9ZziHM9tRFyUqsUAPbCupFSf4g92lzsA6bpX+15C2Hne1PnekIHWn3auR5ZbgPgAdJ/xgdqT2ADWmM7MLBO710CR2O9oUXrOcW5ntoIeZGrEgBOAJaQ/sPr3X6Ltn5txw8pfo4fcK5lBGE9UAuBtZxrErM+eV/8W+0bsU5ALyMIW+FwKTag0NMfAuq5zrmW2gh5I1YhAISu/Z57u5ZyfhFUWcje4j9wrmW/gFq6gd851yNmMnAX6T/P7bTFWE9FbKGr8L3buZ6QnQsXA+Od66mFkBc49wDwWdJ/WMtol5PfLmO5mETYgKY3ONfz9YBauoHDnOsR61G5g/Sf4+G0b0U5EyvamLDPziXO9UwLqKWbODsWVl7ICc05ABxE+DzrKrXv+Jy22jmEsPO6rnM9twXUMhf/1Qibbg3CeogGa/OBO4EbgQfx/T4q671wdUCNi/D91d1J2DLMH3OspRbqug7AJGxjiiYNkns/Nl0txracg9kHeBO233mOU21Cbo88hI2497IOtrBMUb/FNmwRH5Owef4hr0l/LsMGev4Nuwi2rI314Hyc8DXzVwEOxXbxi+k32HbBRYwGXgb82amWLuyWZ9E1PXZyqqNWQlJorj0ApxEn0efe7qS8da/XJHyqUO7tHLezZd4WWM8r0Q9xsQAAIABJREFUnOtpslWBG/B9vyzAVpwcyljg5w5/L/bFHyyohPRcfNu5nk8E1HKfcy21EPIGzDEArIv/Np1Vam8KP4VDmky6tdHLbB/wOmE9zgmoRZua+JmAjQr3fK/MBXYfZh3fC/ybT1JOL+e1ATXe5VzL/gG1dAGrOddTeSFvwBwDwGdIf+FI2WIvD9tB2K56VWq7+JwywO5fzg6o5f8ca2my8cBV+L5P5lGsm3wk4UGk6PK4w/HJwBo9Fy5blbAeiX0ca6mFkBc2xwAQusRq1VsXMDX0JA7iNRkcYxltCb7v720D63m7Yy2pjARW72mrUf4YpHHYfXnP98l8YN+AmvYK/PuvDfjb7dolsMbXO9dzX0AtRzjXUmmdqQtwtj7lJOKcdRD3XvFbIz53Tu7FbiV5Ce1NuNSlivKsAxwNnIF1IT+DharZPe0Z7J75/dggsc9i3buxdr1bCbgAW4fBy0LsAnxFwHNcja1QWtRmAY9t103AUwGPH+6tkaHcFPDYpW5V1ERIssutB+Aw0v9yzKH9OPREDiL3zZO8mneX++kBtdzhXEssY7Geiisp3k07G3v/7uhY12jgjwXrGagtBF7lVF/IoOWvOdUwlJDxK963JT8YUMv2zrVUWt2mAW4e+PiHgXs8Cgk0ibAvwJi9IN67fOXqdufn2zXgsbn/+h+LDZj8MOHLv64OvKOnXQH8L2HLuI7CwpznHvVLsK15vaa3PRTw2LJWAb2K9mY49GcnLIQtdqrlT9hCSMMdADkTW/NBeglJwbn1AIRssnIVea2m93mKH4v3yNveQgayVam9zuuEYe+rkJkpRb94y3AQcWeEdAG/pFjwHAmc51zPEvxXhzwxoJ7TnWsZyEsCauwGtnOup8jr6r00cS2EvKi5BYAfUfxYPpKg3sFsRfFjeSRiXd6DqHJtob1Jve0aWMsmjrV4GUO56208DrxyGPWNAH7lXMNS4kyz/XZATadGqKc/I4DnAur0Pm/rMrzbkZdQvx7vYHUbBBgyJ3aJWxU+QrrLYs4N/k3E585FF2Hdsn29JOCxz+C/I2GoNYG/A8eX+DfXwbrc21mboRP4Kb4XnS7gWPwXh4KwgYlPulUxuGXYwklFea+22AqEM9v4by8BDkcDAF+kbgFA4vsptq55nT3Biku4hgoZqd1arS4XU7CLf8iYhqI6sT0vTmHgkNuB9QQe4/h3u4F3Yqv3eduFsO7xMj+LtwY81jsAgI3TeQnWC/JsP//7g1i3/0HYQk3Sj5AusdxuAZxB8WN5f4J6B7MJxY/l0ci17YxN4YrV3Zu6XeN3qgDbwrdoLV90riXE6uSzzsZpvDgEdBA226K/1gW8J+CcDaYT27sjpL5tItXWn2MD6oy9DO9oYDfsl/5riBM4ainkzacAEE/OAQDsw/ZYQI05t185niewX05Fayljaed2jMGCUerXpnc7gxV7Mb8V4W98MOy0DSpkoG83dnuozF7ckLEsi9FS1lkKeQMqAMSTewAAWBlbJjTWdqqp2lc8TxK2VGzRWl7qXEtRITNsYrYZ2IXlaxGe+0SPEzeA4wnfHviCiPX1Z+XAmtcvuV4ZgkZFSojngS/1tJWwOeC5pPzvUXzut+csisnYF2dROexg9grgQ6mLGMAx2C0p767wTwFfd37OluOw92foYN3fOtQyHM8Ds7BtjYvYkLgzlGSYFADEy0J8R86HGh3w2NluVYRN4ZsLPO1VSEGj8LlYxeR98f8CFmpjmA78kPDzuQC4MLia4ZtJ8QAwlfiblckwaBaA1FXItp+eF92QndDud6uiuHcDW6YuokRfw3YUjeHNwE/w+d6dQZqR7SEhf4pbFeJCAUDqKiQAPONWRVgdM72KKGgk8NHENZTpW8AnIj334cDP8LlFthSrNYWQALC6WxXiQgFA6iqXHoCQL72QHdg8vA67b+tpCTYoMjenEy/svBZbztjrlusPSTc2JGThoUluVYgLBQCpo05glYDHewaAkCDS3+ImZXqL0/Pcg63gtwk2nXAVbNDo/tjFzGuTmKJ+jM0C6o7w3AcDv8Zvm+PZwOecnquIkM+GegAyowAgdTSW4l2tXcB8x1pCfvWkDAATGd7a+/3pAk7CFmX5Hrakcesiuwi4HFtkZwvgn4F/q6gZ2DiHGBf/V2JLZ4cMSO3rHaQdGBpye0w9AJlRAJA6CvnC9f41umrAY1MGgJcRtjtmF3AE8FWG3mdjZs/fK3ufiV9hF9SuCM+9HzZP33OtlNOA3zs+XxEh4SOkV04iUACQOgrpblUAMHsEPv4LDO+Cvghb9TDGZjv9OQ9bQ2BZhOfeG7gI64ny8kfgw47PV9SCgMd69oSIAwUAqaOcegBCPmMhX7ahdgh47CMUW01xKTbuYEbA327HBcBRxNkdbnfsYj3e8TmvA44kj93sQjbJCulRkggUAKSOcgoAVbVRwGN/RPELxTLg7diy3jH8Ebs1EWP7752xLYsnOD7nDcCrsFX4chDy+VAPQGYUAKSOFADCrRfw2IsD/3YXNjDvtMDn6esS4DDivMbTep5/ouNz3gwcQF5b2aoHoEa0FLCI9Cfk/rXHCobd2NS8udiGU6GuBl6PLVntbUvgL4RN+ezr39gsgtRTQfsKWcI4xkyL3lbCekv2xHphnsfO4wXAnMh/u5IUAKSOQrp31U1pX/Ih3w0hvxL7+hRWz/8GPMdV2IXBc3pny1bAFcBajs95J7YBk+eeFF5y7V17F3Ay/b8O3wdOxfZ38HxvVp5uAUgdhQyW8u6mDPnVk2oDnm7CLpYh+x/055PAZws+9npsMZ4YF//NgL/ie/G/B7v4h6y4F1NuAaAD+Cm2oNRAr8NY4NPY+IyQnTlrRwFA6iinHoCQWjwHkw1XSNfzXm5VLHcyw1+n/0bgQOIsPbwx8Dd8w879wMuBJxyf01tIQI7x6/vTwLFt/rf7Yas+Sg8FAKmjnAJAyIU05cppDwQ89s1uVazoa8DxtNfDcyV2Dz3GALoNsYu/5+52D2EX/0cdnzOGkOmN3gFgI4Y/PuRIrIdFUACQegpdrMSz6z1k6VTPQWXDdXfAY18J7OtUR1/f73nufwzwv7cGDf4PcQbQTcG6/T03SXoU2xchZKe9sqwR8FjvMPZ2igX29znXUVkaBCh1tAD7lVjk/d2Bdb0/51RLyEUoZQD4J/DOgMefDexKnO7sa4DdgO2wVffWxkZ834ldnF+I8DfBuvv/im1q5OUJ7OIf0uNSppBeKc9ttgH2Kfi4fbEfvzGWgK4UBQCpo27svm/RC+gkFAD+Fvj4KdjUuFcQb1vjf/e0MqyFXfw3d3zOWVi3/72OzxlbyI5+3psYFX0tJmKDAb0+45WlWwBSVyEfbs9tS0N+9azpVsXwPQjcEfgc22NT5NYOriatNYDLsCl/XmZj4egux+csQ8h70vOWzEjCbkcU3S20VtQDIB5WwtK453SolDwH34V86Xl2NRdxNrabX4itsQF5VRjg1p+J2PSx7Ryfcw42O+F2x+csS8jYB88egDUo/gN2MVoYCFAAkDCbYPOzX0e95td69gCEXPQ2Ju29yp8Dnyd8bYTNsRBQlYFuLROBS7E1/r3MxQYo3uT4nGWaGvDYR7yKIOzHxn+JvyphJegWgBR1JHb/9S3U6+IPvgHgvoDHrgSs61VIAU/gtzPfxsDfgU2dni+28cCFwC6OzzkfOARbn6CqpgY8dqZTDRAeAAQFACnmUOCX+O53npP1HZ/rOcIGwaW+YH4Fv22JN8DGBGzh9HyxjMe6/V/m+JzzseWIr3J8zrJNIGwMgGfvz+SAx+a80FKpFABkuFYFzqTe7x3POd4QNsUr9TiAh7A11L2sh90O8Lyn7mks9st/b8fnfAELzVW++ANsS/E1Mhbje+GdGvBYBYAedf4Slzjeg28XeY6mOj9fyG2Abd2qKO5U4F+OzzcZm1K3g+NzehgDnI+NVfCyEHgt4dMqc7BNwGMfwncsy9SAx+oWQI+6BYCQN9g4typ8hCy5ucytihd7TcTnzoV3D0DI9ri7ulVR3GLgjfiu5LYmdjvgpY7PGWI0cB5wgONzts7bJY7PmVJIGPWe8bBxwGMVAHrULQCE7Pj1VsLuK3kaBXw44PHPexXSj9zv33pYGxuA5+WegMdOI4/ZOvdjAz89d3RbFVssaDfH5yxiFPBrbICelyXAEcBFjs+Z2rSAx4auKdHXRgGP1S2AHjl8sXgKSXZbY9NUPKeqFLU6NgWpqJhv8Nx6SmLowL5gvBZpCek+H4f98rrFqZYQfwGOwQaAev14WBX7hXwwae6RjwR+gXXTe1kKHAVc4PicqY0ibEaEZw/AKMIG6ob0yNVOd0Dz/JXk4dWEHU9d2mmhJ3IQD2ZwfGW0w7xOGBYong2o5TjHWjwcif3C9Tzf8yl/l7ZObLEjz+NYChxd5kGUZGfCzkvI+IG+tgqoYwn+O35WVt1uAVyHNngA2ywllisiPndOPAffdQM3Bzw+h3EAvZ2Lbfkbsu1yX+OAP+DbDT+YDuAH+F6su7FBsr9wfM5c7B7w2AWE3Qbra/uAx96H722sygtJdbn1AIDtYpbqV2MObQlx15DfM4NjLKP9xuuE9fhqQC0POtfi5WBsipvneV+Eb3d8fzqwbYU96+7CLv51dR7Fz82VzrV8MaCW3znXUnkhb/ocA8AHSH/xSNn+GH4Kh/SLhMdXVvuP29kybwisZ0vnerwciP3C8zz3i7HzFUMH8D3neruA4yPVm4MR2Dr+Rc/PV5zr+X1ALZ5rWtRCyBs/xwCwCmH3W6veyriPOg4bsJX6WGO2pfiudLhBYD0fcqzF2z7Y9sve5/8tEWoN6YkZqH0sQp052Z2w83Oocz0PBtRSx/EZQUJe2BwDAMCnSHfhSNm8u9oGMwb4BtZlm/q4YzXv6WkPB9RysXMt3vbGlj32PP9LgemONX7Jub5u4CTH+nL1WYqfny58dwmd1POcRevZybGWyuvATkpRY7GVrnKzEnAbsFnqQkq0BHtz/7vkv7s+1l27E7aOQtGlQmPZjeKbFX0E+JZjLWdQfET/Qmx6qNe6/DHsga2hv4rjc3YD7wdOD3yezwOfCS9nBZ8BvuD8nDm6geI7It6O77LPB2ODRYvoxvYzCFkvpnZC0m+uPQBgy4x6D1DKuX3E57TVzvkUP6f/51zL6wNq6ab8aXJF7ATMxve93QV8MKCmE5zr6Qa+HlBPlWxE2C/ubzjXEzIA8F7nWmoh5EOQcwAAW4wj5M1blTaD/H555+ITFD+vjznXMhEb4Fa0nk841xPLNGwHRM/3eBfFQu6HnOvoBr5ZoI6qCg1Pr3Su528BtcxwrqUWQl7c3AMAwDuxe4neXwK5tF9hK2NJ//Yl7PxOca7nyoBavEdTx7QdMAv/9/sXaW/9kg6s29/773veEqqCf1D8XC3AdyDtSMIGm77TsZbaCPkwVCEAgI1CfQb/L4OUbRl2/7Fuizl5G0/YqnVHONdzUkAtVRtwthXwOP7v/UuAHQf5u9tjgya9/+7pNKunbQvCelD/5FxP6GqEuW5BnVTICa1KAADbPvKP+H8ppGj/wXfL0rq7meLn+gznWqYF1PI/zrWUYTPCZj8M1Lqw1/Vb2K2BD/X8e8hrPVj7Mc26+EP4lMl3ONfzvwG1PIt+LPUr5AWuUgBoOYCwbtiU7QFstTGtZT08P6D4OY+xOdRNBep4jOpu3rUhtgRr6s9P0fYzmnfxGElY780SbNaKp8sD6vHujaiNkA9GFQNAyxbAJ4G/ErbKVcz2Anax+Ca22ErTvoS8TCfsdfBehe9VDL9r9W3ONZRtfWw9+NSfqeG286hu8ApxCGHn7RLnesZjU2GL1vNp53pqoYlv7Jb/YAuDtJaGXK2nTST9hfY54HlsEJU2Nwp3deDjDwDu9iikx5+Br9H+qP4ZVH8E8yPAy4DL8N0ZLqbfAW/CBhE3zQcCH3+eSxXL7YctPlbUtV6F1E1IyqtyD4A0S0gXdKzuwxMZfK2KpdjI/xGR/n4Ka2GLdKX+Zd/Oax5ywamy7Qkb/PcCtmKfp5D9GxZRfDGw2lMAkCY4jeLv8wXE+wLZBFss5Q7sgt+F9U79kOr8Uh6u1ch7186LafZ321mEnb9znOvpwHqQitZzmXM9taIAIE0Qek/Tezpg060KXE/6i33fdinN/l5bj7B77d34z1bZLbCenDfSSk4BQJogdBCR9z1NsfE215D+ot9qV2HvkyYL6SnrxqZ8et+yOiWwpibtCTNsCgDSFJdR/L0+H10cYphAHtNyr0Sv7xTCf/3HGG0fMn7Hc/BuLSkASFOErmt+WPklN8I44ALSXfwvwnfJ2qr6PmHn8QV8t/6FsIWzuvHfjKh2FACkKbYh7P3uvTugLDcCW8mvzM27uoBv0+zp0C2bEP7r33vVTLA1UEJq0oqpQ1AAkCa5g+Lv90XAGuWX3CiHAk8S/+L/FPCGko6pCi4kPExt7VzTSOCJgJrmoI3ShqQAIE3yGcLe86ELpMjQJmEb78TYxXMp8CP856lX2csJP69/jlDXoYE1nRuhptpRAJAm2YSw9/xt5ZfcWJthF+vBFktqt70AnIlGhPc1EriV8PO7Z4TafhdY0yERaqodBQBpmiKb8fRuO5dfcqOtChyL7eb5HO2/TvOwFf2O63kOebGPE37xvzhCXWtht9yK1jQLdf8PSYNfpInOYfD95IdyLHCjUy0ytDnYr/czse+s7bENmjbDxmS0pu/NB57BNh36D3ALzVzHv11T8Zm29wWH5+jrOMJ2PT0H25FQhqAeAGma9YFlFH/fP4d+UUr1XUz4r/+/RKhrJGFL/3YTFvAbRQFAmugqwt77J5Zfcr8mAS/BfhU3fSEbad+7Cb/4LyPOhfbwwLruiFBTbSkASBMdS9h7/1HS3WPsAN4G3NCnpiXAX4GDEtUl1bAFdrskNACcGam+0JUhPxaprlpSAJAmGovdLw55/x9ZetW2k94VbdQ2g7B7qFJPo7DxK6EX/3nAOhHq2zGwrqXYhkbSJgUAaarQVcb+UXK9Y4Gbh1Hfr4HOkmuUvJ1K+MW/G/hkpPp+E1hXjPUIak0BQJpqM8KXni1zqdFvFKgvxghtqabD8Flq+V7i7J2wNWGDc7uBAyPUVWsKANJkoSOhry6pzjWABQXq60KbGIlNmxzOGgqDvZ9eHqnGswNruxsbHyPDoAAgTfZawr8UY30h9nZUQH3zsFkC0kwTgTsJf593Y2NLYtgYG8QaUttxkWqrNQUAabIRwEzCPgfXlFDn1wJrfABYvYQ6JS+jgMvwufg/RbzNsH4WWNvT2LbSMkwKANJ0JxD+5fg/kWs8zaHGK9G+901zJj4X/27giEg1bkv4xk9fjFRb7SkASNOtDMwm7LPwT+LefzwpsL5WuxCtkd4UoTtf9m5nR6wzdCviRcC6EeurNQUAEZ8vy6Mj1re3Q32t9gs0PbDuPoDf++VBbBxBDHs51PezSLU1ggKAiK3tP4ewz8MjxLsP2YGNcvb6Uj8tUp2S3rH4TPfrxrrm945UZwc2fiakvmXAdpHqawQFABHzJcK/MD8Tsb4D8Pti7wa+HLFWSePNhN9P7908dgscyNEO9f0yYn2NoAAgYlbHpsyFfCYWYLsNxvKVwPr6ttPQ3Om6eAvhU+l6t4uId6toAvBYYH1LsX0NJIACgMhyRVbb69vOiVhfJ/bF7BkCzkBjAqrueMJX0evdHiTutFGPJYl/HLG+xlAAEFluLWAu4V9OMXfkWxXf8QCt0DImYs0SRwfweXzfCwuAaRFr3hpYHFjjQmCDiDU2hgKAyIo8ptzNxKYXxrIF8KxDnb3btcCaEWsWX6MJX0Cnb+vCxhHE0kn4dr/dwHci1tgoCgAiK1qJ8NUBu7HbCTEdgO+Ar27gPnRftQpWAy7H97XvBk6MXPf7HGp8Hlg7cp2NoQAg8mJvJvyLaimwc+Q6Ped7t9psLFxInrYD7sH/df9h5LqnEj7IthvNXnGlACDyYh5zlLuBO4i//O5nHers25ZhU8A0QyAvR2G/gL1f7z8CIyPW3QH8xaHOx4FVItbZOAoAIv3zWKWsm3LuV37bqda+7SLibQAj7VsJn/0g+mtXEn8jneOcan1j5DobRwFAZGDnEf6l1UX8LvUO4CcOtfbX/gscHLl+Gdg2wM3EeW1vxmaVxLQFPr0Wl0aus5EUAEQGti4+o+1nYVMMYxoJnO9Q60Ah5jtoN8EydQIfxqa8xXhNbwMmRT6GMcC/HGpdBGwZudZGUgAQGdx78fnCPZ/499THAL93qre/dg+wX+RjEJsrfzXxXsdbiB9Iwe/W1FdKqLWRFABEBteJ35fxR0uodwT+88P7tv9DYwNiGAV8nHi/+ruBG4i7yl/LwfjsXfEQML6EehtJAUBkaFvh86W8BNinhHpHAD91qHew9iTwHuKOHm+S1wH3Evc1uxxbhz+2jYGnnWo+rIR6G0sBQKQ9n8XnC20WMKWEejuAbzrVPFi7Ha0bEGIa8Dfiv04XUs4YjrHATY51n4dCZhQd2Akuaiz2q6iqNgX2BV6CJdZJ2C+nHMwFHsbmkf8d+0AtS1qRjMYGNG3j8FzXYz0Bix2eayjvB75F/Pf2X4HPYbdLZGhbYmstHEn8zZhOAz5EOd8hM4BjnJ/zN8CbsMW1xFHTegDGYt2WHiNTy2yPAV/FRqVLOrsSvpFJq/2oxLoPIc4CMv21S4A9yzmsStoC+AX+yzj315ZhF/6yfCTScXQD56KeAHchL0iVAkAHlkqfoJwvwVhtIfA1NCgmJY/NglrtYyXWvRPwqGPtQ7VrgDeQT69aavsAF+C7be9gbR7wmlKOzByEjXGJeUy6HeAs5MWoSgBYE/gT5X3xldHuJ/4689K/TmxREo/XMfbua31NJs4mMoO1B7DZD03caXA8MB24kXLP+d3YVMKy7IjPOv/tNIUARyEvRBUCwEbEH1mbqi1ES2OmMhlbIc/jdXwB2KPE2kcCp+IzRWs4bRF2L/dg6t8rsAfwY+A5yv9e+C3lrpc/BXgkwnEM1hQCnIS8CLkHgI2xzSPK/gCW2ZaiaTKpeM1z7sam1G1WbvkcBsxxqL1Im4XtPvcK6hMGdsFuzz1AmnO6GDiBcjdwWg0bqJzieDUmwEHIC5BzAJhInC0zc2wLgZf6nDYZJs9NeB7Gtkwt04bYLJOU79+ngJ9jO92VsTqdlwnYPfbTgQdJew7vpvxbguOwjYRSHrd6AgLUeRrgOdj0mqaYCeyAdTmWbW3sHuBkbCWzJhmDzc7w2k3tXuBl2O2FsozABiN+nvSvXze2Qc3fgeuAa7GBizlYHdi9p+0N7Eb68wU2m+SjwPwS/+ZKwB+Al5f4Nwfya+BoNEWwkJD0lWsPwAGkTaWp2jc9Tt4wvBS4jPJGNTel/Ztylmrtayfg1gL1xm4PY4vYfBmbC74DcbevHQ1sjs1g+Ay27PHdlD9mYqj2KPDqSOdgMKOw1yP18fduuh1QQB17ADqwL7HtUheSwBLsi2tmCX/rQ9hAsrrcv83Njdj98bkl/91R2K/Jz5D/zn9PYuvEP4T1mDzT057GBhy2xjcsxkJq63gmYhf51bHFvyZhMxQ2xAYNr0O599GHqwv4PvBJyu/xGwH8Ejii5L/bDvUEFBCSunLsATiI9Gk0Zftu+Ckc0tsSHl+TWlmbtvRnY+DiNmpUK7fdht16SGE01huS+hwM1tQTMEwhJzvHAPAb0r8JU7ansfvSsUymvPm+anY7YO22Xpk4DgHu66cutXLb09gugaMHf7miGYvd8/c8pquBHzg/ZzcKAcMScqJzCwCjKW+505zb/qEnchAnZ3B8TWv3ABu08+JEMgr4IOmmDDa5LcYG+aVcRGkC/otH3YP1bnVgsyi8z5tCQJtCTnJuAWBP0n9gc2gnh57IQVRtD4W6tIcof52AvtYCvoMtXJT6fNS9LcNmMm3e1isTz2rYxlWex/YUthFbi0JAQiEnOLcA8G7Sf3BzaL8LPZGDmJvB8TW1zcKmoKW2Fjb1cQHpz0nd2jLgImyL4NSm4r/Iz0CrXpYdAjqx2SSHYOPGUgetJOqWjjYMeOwC4ERs4FWXTzmFTcFWFNui4OM3cqylr1T3IMUuvH8D3ootgJLKk8AnsC1mTwCOxbqJpbgl2AC7rwK3J64FbIrv77ExP166sPfutf38b93A+3r+/b2Of7M1W6E1O2AcNoPpfdhsj97uA74OnEmDZhKEpKvcegBOo/ixfD1BvYPZn+LH8kDEuuq6r0KVWhd2Ac7FBGyMwEzSn5uqtbnYbZWUYzz6Ogz/3p0ubBv2ocTsCdiE9ta5uBS79dEIISc1twBwBsWP5f0J6h3MJhQ/lpgrp8UYtatWrP2EPFaiaxmJ/eLS4lBDt39hv3RXLnSm4/kYcV67E4dRQ6wQsGgY/+3NpJuCW6qQE6oAEE+uAWAH9OWeU7sGWG/QVyyNKdi0tVQb4+TYnsVG9O8UcF5jWRkbdBjjuD9foJ5YIWA4rREhIOQEKQDEk2sAAOuyTP1lqra8zSLu1M8QncB+2Jf5E6Q/V2W3ucAvsE2Dcvu+bNmKeDv6fSOgrg7Cbut6tNqHgJCTk9sbWgHAWuwAMAqbaZD6y1VteVuKjQvIeQnbTmAfbLXKOo8leRw4CxthHnNRLg9HEG9hr9MJfz8qBEQWcmIUAOLJOQCAfZl/FOvWTP2Fq7a8XUjaRWOGY2NsYNj5VHuRoQXYwLETge3JO4S1rIQFsVjn5FT8zoNCQCR12wzoDOC4go/9APA9x1pCbYJNSyniMewebBkmAK8CdsGWrM39F08uRgKHEmczpf8Cbwf+FOG5Y+nEuqJ3x+aJ747Nze5MWdQAHsamsl2PbVl8MzaNryqmYbclton0/J+j2H3/wXRg38/HOz/vcNyCbdD1dMIa3IWkIvUAxJN7D4CEO5S4i+n8nPxGmQ/BVzz3AAARQklEQVTHeGBnbPOpU4G/AP/BfnTE/sW3BHgQW3fhdGyRsb2o9vSwDmy6Zqzz14X1CsasP2avRTvtFmCNiMdYqrotBCRSJRcCBwMXAKtEeP63YAu6vBX4R4Tnj20+ti3yjf38b+tgK9Wth93y6L217ziWX6jH9PzfYNPAFvT8+3M9/957C+FngEewZZcfw2a71MVGwM+AvSM9fxc2rfFHkZ4f7AL8QaxXKFVPwA7Y7Z7a9ASEpCH1AMSjHoDm2AkbyR/rV8tS7JdTjJAheRuJjU2IuUnafOB1ZR0QGhPgSgFAAUDS2wi4k7hfWo9jvQHSDDtiS5vHfE/NxjZhK5tuBzhRAFAAkDysht1zjv3F9XvyWnpWfK0KfJ/4C3bdRdx9R4bSAcwg7jEO1SrfE6AAoAAg+RhNOV9qC4AvoU186mQUdm/8KeK/f64g/YDITbAxGykDQOVDgAKAAoDk553AYuJ/ec3GBlZpQHC1vQL4N+Vd9G4kbQCYis3SSH3xb7XK3g5QAFAAkDztTzm/5rqxi8fB5RyWONqZcm4b9deuI83A0lx++fdtlewJCDlgBYB4FAAEYEPgJsr7EvsntoRtFVaza7JdgT9g0+9SXvTKDgG5XvxbrXIhIORgFQDiUQCQlpUof2e0m7ANbBQE8rI78GfSX+h6t7JCQIyL/wv4D5asVAgIOVAFgHgUAKSvwyh/zfxbgOloieeUOrHbM5dR7ms/nHYdMDHWCSDOxX8BNnbibTQ4BIQcpAJAPAoA0p+NsC/bsr/g/4ut8b529COUlgnA+4B7KP/1LtJihYCYF/+WxoaAkANUAIhHAUAGMhL4FOXMEujbFrJ8SVndHohja+CbVHOHRO8QUMbFv6WRISDk4BQA4lEAkKFsh33BpPqyfwj4KmkXg6mLidjUz6tJ93p6Na8pglPxn+o30MW/ZTr+ISDrKYIhB6YAEI8CgLRjJWxBnxS9Aa22DNup7xjSLw5TJSthAy3PxQajpXr9uvGfTRDaE1DmL/++GtUTEHJQCgDxKADIcGyH7U9f9oWjb1uK/Yr9IBov0J+x2DTLnwNzSf963Q+8CjgO/xBQtCdgKuX/8u9rOg3pCQg5IAWAeBQAZLhGAB/Ctrot8yIyUFsKXAl8Etilp74m2hL7frmI9L/0W20R8EUskLQcT/qegJS//PtqRE9AyMEoAMSjACBFrQucTfpFYvq22cCvgXdgF8W6DiKcArwJOJM8F625HDv//UkZAnK6+LfUPgSEHIgCQDwKABJqL9IOEhyqPQ38Efg09iUdcx55LCth2+F+BDiPPC/4rXY/cDhDB68UISDHi39LrUNAyEEoAMSjACAeOrEvsJwvTL3bQ9hKd6cAbwV2Io9gsBKwLfBG4GTgN8DdwBLSn7Oh2rPARxneYk5lhoCcL/4ttQwB2gFMpN66gLOwkeYfAj5OHhfUgWzQ0w7s8/+fA8zEAsJM4GHslsLTvdps7GI3HKsAk7DBWZOwL+Q1etWxYc8/1xnugWTix8BJ2PkZjtN7/vk9/G7V7IbNFjkQGwAJdvG/Artt4uUF4FBs5UQvZ/X88ydYqPYwDavxFQz/9XGhACChXord79wJmExzB3pVxZLUBRS0KvaFOa3N//457BfbAmzAG8BoYHzPv0+gGd9/36H4xSV2CFiDalz8W2oXAprwAZA4JmEfhNelLkSkH63NabQuQZhYIeBSrFelKhf/lrOw7vufUoMQ4HUA0ixrANeii79IE5yOjZHqdnzOXajexb9lBvB27Paal1YIKHVMgAKAFHEOsEXqIkSkNDFCgJcyL/4tM6hBCFAAkOF6Nb6ja0WkGnIMASku/i0zqHgIUACQ4TomdQEikszpwLvIIwSkvPi3zCBOCPgrJSwbXLcAsGjo/2RA27hV4WO7gMcudKvixfaI+NwisqIbsBkNOfkx6XsCcrj4t8zAPwTsgA2UjNoTULdZAHOH/k8G9A5sytA/8H0hi1gfm69d1ByvQvqxVsTnFhH4DzbO5lfAvcB9LJ/VkIsYswPaldPFv2VGzz8rNzsgZCWj3FYCPJb0q27l0M4NPZGDeDqD41NTq1u7FzgVW0+jr/sCnjd2z2aMFQMHa94r/HmbToVWDKxbD8CtqQvIxG0Rn/vfwD4Rn1+kCZZh2zdfBFwI3JW2nMLK7AnI8Zd/XzN6/lmZnoCQZJJbD8AI4BnSp/nUbbfQEzmI1r0/NTW14bUHsB0Cj2Z4A7xy7gFoid0TkPsv/76mU5GegJCCcgsAYB+w1B/0lO1R4i7HOxZbjz31caqp5d7uw34RHoPtKVBUFQIAxAsBVbv4t0ynAiEgpJgcA8CepP/gp2wnh5/CIe2OdcelPlY1tVzao8AFwCeBA7Clsr1UJQBsADwVUGt/raoX/5bpZB4CQgrJMQAAXEn6L4QUbR4lzB3tsTcwq4RjUlPLpS3FuvH/hA3YOw77HMT+zFUhAIzCxgd5nu+qX/xbpuMfAm7BIQTUbRBgy0ew6XxN25nui9iWqGW4ClsO+MPAm4FNS/q7It6ewbYR7t1mYXvUP4ptPfwI8DgWAuTF3gNs6/h8VRjw164ZPf/0HBi4A7ZY0MsJGBjYgaWJosYSd9GZEKcCH01dRIluwhbpWZzo70+k5I0sRAroYvl6IcvIb5Gd/twHbFLwsdsCdzjWMpBbsIuShzpd/Hubjm8IAJv5FhQCQrohcr0FANYldTXpuw3LaLMp/gUhInnL/RbAxID66trtP5DpZHY7oK4BAGwgjvd9qdzaPGxQnojUU+4BYOuA+nq3LuCVJdSb2nQyCgF1DgBgJ+Va0l+oY7RZwK5+p0pEMpR7ANg4oL6+7Szqt0dNf47ExpN4h4BhD0itewAAGAN8m3KXrIzdrgDWczxHIpKn3APAGOD5gBr7tjNpRgiYTgY9AU0IAC27Y8tvpr54h7RHsT0Pyt6AQ0TSyD0AAPw+oEaFAN9zdzOwarsFNCkAtLwC2zBnPukv6O20ZcDfsQv/mAjnQ0TyVYUAsDv+PawKAcXb1cC4of5wnacBtmMMtm7+S7BR9JOw2QOpdWNzkR/GpvBchc1VFpHmqcI0QIAvAyc5P+dZ2Fbtqbdoj206/lME/4JNp1wy2H/UxB4AEZGqqEIPANjFK8ZeLOoJKN6+MdQfVQAQEclXVQIAWK/yDwLqHaidRTNCgPfsgC7gNYP9QQUAEZF8VSkAQLyegKaEgOn49gTMZpAZYwoAIiL5qloAAPUEhPLuCTh3oD+kACAikq8qBgBQCAjlHQL27++PKACIiOSrqgEAdDsg1HT8bgfcTj875CoAiIjkq8oBANQTEMqzJ+Dwvk+uACAikq+qBwBQT0Co6fj0BPyz7xMrAIiI5KsOAQAUAkK9B5/ztV/vJ1UAEBHJV10CACgEhDqZ8HN1du8nVAAQEclXnQIAxBsTcA79DHKrmU7gEsLO03PYMv4Q+EQKACIicdUtAIBCQIj1Cd9++Q2tJ1MAEBHJVx0DAOh2QIjPEHaOZrSeSAFARCRfdQ0AoJ6AoiZgO8YWPT/3t55IAUBEJF91DgCgnoCivk7Y+VmPwCdQABARiavuAQAUAorYnrBzcziBT6AAICISVxMCACgEFHE3xc/Lp+p6UkREpFq6gLcDP3R+3unAL6nnmIArAx67qQKAiIjkohs4HvvV7ulI4CfUryfg2oDHbga6BSAikrOm3ALoTbMD2rMHxc/FvQQ8WAFARCS+JgYAsF/rP0VjAgazDsXPwxMEPFgBQEQkvqYGAFBPwFBWpvg5mEfAgxUARETia3IAAPUEDGYkxY9/CQEPVgAQEYmv6QEA1BMwkIkUP/Y5BDxYAUBEJD4FAKOegBfbkOLH/VhVD1pERJqlCzgOWyzI0/Se56zi9XDjgMfOq+IBi4hIM8UKAcdQzRCwVcBj1QMgIiKV0gW8A/8VA4+heisG7hXwWK0DICKSOY0B6F+sMQEzqEZPQCc2l7/ocZ5AwIMVAERE4lMAGFiTQ8B+hB3jQQQ+gQKAiEhcCgCDa2oI+DnFj20ZsCoBT6AAICISnwLA0Jq2TsAUYBHFj+vm1hMpAIiI5EsBoD1N6gk4k7Bj+k7riRQARETypQDQviaEgN2wLvyQ49mn9WQKACIi+VIAGJ463w5YGbibsON4nF7HoQAgIpIvBYDhq2NPwAjgd0PU1077du8nVQAQEcmXAkAxMUNA2T0BHcCPAuvuxm4drLB6oAKAiEi+FACK6wC+j38IOB8YU9IxjADOcKr7gr5PrgAgIpIvBYAwsXoCLgPWilz7asBFjjXv2fcPKACIiORLASBcrBDwGPDqSDW/HJjpWOuf+/sjCgAiIvlSAPARKwR0A38AdnSqc1vgN871LQI27++PKQCIiORLAcBPzBDQDVwKHA1MGGZd44EjgT9hux161/XV/v5oR8//WNRYYGHA40VEZHD3AZsUfOy2wB2OtdRBJ/Bj4NiIf2MRcCNwDTZv/z5gAfAstgb/OOw13QK7L78r8X5Q3wXsAszv739UD4CISL7UA+Av1uyA3NoLwA4DnYRcljYUEREpSzfwPmxN/Tp7H3DrYP+BegBERPKlHoB46twTsMKKfwNRABARyZcCQFx1DAEzeo5rSAoAIiL5UgCIrxO/1fZSt2FtWqQAICKSLwWAcnQAp5D+Ah7SZgAjh3PQCgAiIvlSACjX/xJnLn7s9hXa7PbvTQFARCRfCgDlew3wNOkv6u20ecBRRQ9UAUBEJF8KAGlsgC3kk/oCP1i7g8DXWAFARCRfCgDpjAI+Aswl/cW+d3seu1URvCWxAoCISL4UANJbGxtgt4y0F/4u4Fxgfa8DUwAQEcmXAkA+Nga+g62rX+aFfxHwcyK8ngoAIiL5UgDIz1rACcANxL3w3wKcBKwX60AUAERE8qUAkLdNsTBwIeEzB+YAfwQ+DmwVu3BtBywikjdtB1wdndiFe2ssGGyK/Xof19NWwy7yC3ra48C92Gt8N/ZaLSur2GGtGCQiIiID6sIu4pUIXdoOWEREpIEUAERERBpIAUBERKSBFABEREQaSAFARESkgRQAREREGkgBQEREpIEUAERERBpIAUBERKSBFABEREQaSAFARESkgRQAREREGqgT27ygKG0mJCISV8j3bMj3u9RcJ7YlYVFreRUiIiIv0gFMDnj8PK9CpH46gecCHr+rVyEiIvIi2wMrBTxeAUAG1AnMDHj8m53qEBGRFzsq4LHPAnO9CpF6OgvoDmgvK79kEZHam4rdoi363Xxd6RVLpXQCNwQ+x7nABg61iIiImQD8Dhgb8Byh3+3SAFsS1gPQDTwO7FN24SIiNbQ18G/Cv5dfW3bhUk33Ev5m6wYuBI4ANiJs4IqISFOMAqYAhwA/A5YQ/l28AFilzIOQ6uno+edngc8lrENERPycgwZpyxBaAWB94D5gdMJaRETEx37AFamLkLy1lgJ+BPhFykJERMTFdejiL23o6PXvU4E7CRt1KiIi6XQD+wJ/T1yHVMCIXv8+BwsE+yeqRUREwvwC+HbqIqQaOvr836OBq9ASvyIiVfMIsCMwO3UhUg19twNeDBwJPJOgFhERKWYJ8CZ08Zdh6BsAAB4EDgLml1yLiIgMXzdwHHBN6kKkWvoLAAD/AN4IvFBiLSIiMjxdwPuxBYREhqXvGIC+9sRW95tUQi0iItK+RcB0bD8WkWEbqAeg5RpgGnBtCbWIiEh7HsKm++niL4WNGPo/4TngbOx2wO7YutUiIlK+pcBp2C3a+xPXIhXXTgAAu890NfBLYDyw3TAeKyIiYbqA87H1/X+Gdf+LBBlqDMBApgBvA94CbOZXjoiI9PI48CvgTOCuxLVIzRQNAL1tgW08sXPPv08FVgZWdXhuEZEmmAc8DzwK/Ae4GfgbcBv261/E3f8D4jqTaPceg9UAAAAASUVORK5CYII=;" vertex="1" parent="1">
          <mxGeometry x="860" y="307.5" width="70" height="70" as="geometry" />
        </mxCell>
        <mxCell id="fgHvfDnMfx1o7fpBP95t-60" style="edgeStyle=orthogonalEdgeStyle;rounded=0;orthogonalLoop=1;jettySize=auto;html=1;entryX=0.5;entryY=1;entryDx=0;entryDy=0;" edge="1" parent="1" source="fgHvfDnMfx1o7fpBP95t-50" target="fgHvfDnMfx1o7fpBP95t-19">
          <mxGeometry relative="1" as="geometry">
            <Array as="points">
              <mxPoint x="635" y="510" />
            </Array>
          </mxGeometry>
        </mxCell>
        <mxCell id="fgHvfDnMfx1o7fpBP95t-62" value="&lt;font style=&quot;font-size: 14px;&quot;&gt;&lt;b&gt;Build Notification&lt;/b&gt;&lt;/font&gt;" style="edgeLabel;html=1;align=center;verticalAlign=middle;resizable=0;points=[];" vertex="1" connectable="0" parent="fgHvfDnMfx1o7fpBP95t-60">
          <mxGeometry x="0.1477" y="1" relative="1" as="geometry">
            <mxPoint x="27" as="offset" />
          </mxGeometry>
        </mxCell>
        <mxCell id="fgHvfDnMfx1o7fpBP95t-68" style="edgeStyle=orthogonalEdgeStyle;rounded=0;orthogonalLoop=1;jettySize=auto;html=1;entryX=0.5;entryY=1;entryDx=0;entryDy=0;" edge="1" parent="1" source="fgHvfDnMfx1o7fpBP95t-50" target="fgHvfDnMfx1o7fpBP95t-54">
          <mxGeometry relative="1" as="geometry">
            <Array as="points">
              <mxPoint x="1032" y="480" />
            </Array>
          </mxGeometry>
        </mxCell>
        <mxCell id="fgHvfDnMfx1o7fpBP95t-69" value="&lt;font style=&quot;font-size: 14px;&quot;&gt;&lt;b&gt;Push Artifact&lt;/b&gt;&lt;/font&gt;" style="edgeLabel;html=1;align=center;verticalAlign=middle;resizable=0;points=[];" vertex="1" connectable="0" parent="fgHvfDnMfx1o7fpBP95t-68">
          <mxGeometry x="0.5782" relative="1" as="geometry">
            <mxPoint as="offset" />
          </mxGeometry>
        </mxCell>
        <mxCell id="fgHvfDnMfx1o7fpBP95t-71" style="edgeStyle=orthogonalEdgeStyle;rounded=0;orthogonalLoop=1;jettySize=auto;html=1;" edge="1" parent="1" source="fgHvfDnMfx1o7fpBP95t-50" target="fgHvfDnMfx1o7fpBP95t-70">
          <mxGeometry relative="1" as="geometry">
            <Array as="points">
              <mxPoint x="889" y="570" />
              <mxPoint x="1140" y="570" />
              <mxPoint x="1140" y="120" />
            </Array>
          </mxGeometry>
        </mxCell>
        <mxCell id="fgHvfDnMfx1o7fpBP95t-72" value="&lt;font style=&quot;font-size: 14px;&quot;&gt;&lt;b&gt;Docker image&lt;/b&gt;&lt;/font&gt;" style="edgeLabel;html=1;align=center;verticalAlign=middle;resizable=0;points=[];" vertex="1" connectable="0" parent="fgHvfDnMfx1o7fpBP95t-71">
          <mxGeometry x="0.6728" y="1" relative="1" as="geometry">
            <mxPoint x="51" y="-24" as="offset" />
          </mxGeometry>
        </mxCell>
        <mxCell id="fgHvfDnMfx1o7fpBP95t-50" value="" style="shape=image;html=1;verticalAlign=top;verticalLabelPosition=bottom;labelBackgroundColor=#ffffff;imageAspect=0;aspect=fixed;image=https://cdn3.iconfinder.com/data/icons/dompicon-glyph-file-format-2/256/file-jar-format-type-128.png" vertex="1" parent="1">
          <mxGeometry x="839.17" y="460" width="99" height="99" as="geometry" />
        </mxCell>
        <mxCell id="fgHvfDnMfx1o7fpBP95t-54" value="" style="shape=image;verticalLabelPosition=bottom;verticalAlign=top;imageAspect=0;aspect=fixed;image=data:image/png,iVBORw0KGgoAAAANSUhEUgAAAQAAAAEACAYAAABccqhmAAAABmJLR0QAAAAAAAD5Q7t/AAAACXBIWXMAAA3XAAAN1wFCKJt4AAAAB3RJTUUH4wgBDjUVEbrkfwAAGE9JREFUeNrtnWt0VOW5x//Pnkkg3L1gamZnZsAAmdlA0dSqtbXY0nMUkmPtOvScD+JZtV12qQsSSJAqKMFLBbklWo/ai12irnUWulaXJqIuWrG11R6UaiFhEgySTCCFA2Jp5JbM7Od8CFRtqQUylz3v/H+fk5nZz36f337fvf97bwExnpJgZIaIXLuna3vt6fx9edPCfwGSs/qGFtz9/jdWHGIFzcViCcwlML58oh1ymi2RjQJET/f/RLRAROYNOZ7YGWmqrcb62T5WkwIgOUI4PG2MHY4sl6S1FdBZg/io8yBoiAwr3ew01X6ZlaUAiMf3ZyAYuTGhfe1QWQRgSGo+Vi5xBa9HmmqbIi/WhlhmCoB4DDtc/lU7FN0iIk8CuCAtXyKohOr2aFNdvb1+fhGrTgGQbK/zA1NtO+Ssg1qbAExL/zfKMBVdOmKYtSPStOBGKIR7gQIgGaakpGKYHY7Wiz+5A9A5QGYbUQAbIk9GNtRtcpoWfJ57hAIgmWr+oFNlFRzdDsVSQLM7FVf9qivyh0hT7bqpr9RdwL1DAZB0NX4ockkgFH3dEn0BQMhT40gwp79f2yPNdYuc9fWF3FsUAEnZdH/i+XY42mjB2iyAly/HjQF0uTusd1ukacFM7jkKgAyCioqKAjsYqbYK/DuhmAdorgRyJkLkxUhz7UZnQ22Ue5ICIGe8zo/M2Hfg6LsQaQAwKkc3Y4br4t3ypgWNZRvmjuJepQDIP2v8cZMm2aHoi5bIRpxBfNfDFIjIvAK3kLFiCoD8I4LBKefY4chyy/VtBWDi+vl8xoopAHKKfRAIRm50Jdl2Ir5r+Bl0ucQV/CbSXLeesWIKIK+xw5On26HIO2mN73rUAoDOPhkrDm+qH8rRQAHkzzr/osmlA/FddxMgU/O3EgOx4qGHe9+LNC24kSODAjC78U/Ed62EezK+S/CJWHFzLWPFFICZYzwQjM62Co7GBuK74JT31ExnrJgCMIpgsLyiNBR9XQTrAQRZkdMYkwOx4jbGiimAnCUUilxoh6OPu2JtVuBKVuSMOQfQ5W5R71bGiimAnOFkfDcJaYPiZtZ40CcIJp2MFU9uromwIBSAZykJOlX7DhyN5Xh816vMSML3R8aKKQDvNX54Srkdim44cZvuRaxI2jgZK24rb669GfX1HL8UQPYYiO9GGy1NbgNwLSuSMS4U4PHIF3o3T9qwkOdXKIBMM91vB52bXXHbB27ThZ81yQoVluu+HmmuW+80LeIVFgog/QRCztV2aN8WiD4O6FhWJOsIoLNd6Y8xVkwBpG+dfyK+K9BX8zu+61kPDFPRpUVHencwVkwBpIzi4qnDGd/NIRSlEHky2lz76qTn6yhqCuDsDymBYHR2wZAE47s56QFcbfn0nUhT7bqyDXO5VKMATp/S0slfsEOR34pgPQSlrEgOj2/BnAK3kE8rpgD+ObY9MWCHok+p5W4G5EvmHRRP9y9dNWzbzznxtOItkea6GRzpFMCncByn0A5GquHzxwDcABj1uisVwbNJS2853X+IbRn1MlT/C8A+w3b1ZEA3RppqmyZvWMjAlmED/awoCTpVlmgDgPEG7t4trqK6J976u7P576mv1A1P9GGhiv4AKXvTsGfoV9VHE77+uzpmPvwXCiDfGj88pdxykw0Q/KuBm/cnqNTvjrf+FIA72A+LNC2cANH7AZ1tYq0UqG97e+RPUV/vUgDGr/Odc+HXpVDcCvMSfP0QPDrU33dXR0dHyo9qA+tnXTswlTaOLa5lVbfPXPk7CsBIpvvt4P6bBo5kON+87dNmcX013d0tO9P5LRVv31xweO/I7whgYh0VkOcs9dW1Vq2IUwCGEAhGvy6WrIXqFAN3YTug83d3bX8pk9/qvDz/3GS/LBWR2wAY9rIPPSJqrTwyYsTyzqvrj1EAuTvdLxO//lAVJq5dP4TKitEjsba1tbUvWz/CeXHhNFfdRgBXGdgd3XB1SaxqzToKIIcoLp46vKAosRAKE89eu4A8kyg4Xru3o2O/V35UeVNdlYg2AhhnYJNsSialpv26VVspAI9vTyAYmSMiKwB8zkC3bYJl1eze1eLJgWivn180cphvHqCLAYw0TryKZ/p9fbUdMx/eTwF4jNJS51K10AjoFca1vaJboUv2xGM5MRWd2DQ/4IP1AMS4UNWJpReWFY8Y+chrV9cnKICsr/MnBuAreABQEwfbEQhW+nFkeWdnZ86djHKa5n/RhdUIweUGTp3bYGHB9pmrX6IAstL4dhGs0fMgRk43VQTPJS2p63m/NbcvRykk0rxgDkxdlimak+JW76hc+z4FkCEG4rtoBNS4E06Avu3CV93T1fKGSVtleKy4T1Ufy8VYcU4JIBB2pomrjRADLzmlOL7rVRgrpgDOYrp/Mr4rtwFqWOgEfRA8lq74rleJNi34ug68P8HAWLG8rXCr2yrXvEEBDIKKioqCffuPfcfk+K6l/up4fNv7yEOmb6r37z3cexNjxRTAKdb5kRnWwBHCMXDst0Fk/u7O1pdBDI8V47CorPJqrNhzArDtyATxy/3mxnd12e548SPAawm2/qeZ3FwTceFbqzDwFm2Pxoo9I4CxY50RQ4ZrnaHx3QQETyT8fUu8FN/1KibHilXxKiy3pm3W2m0UwABWIBi5ASIPClBs4Hh+FUm3Zvfutm1s7TOYCZodK04I8ESf1bck27HirArAHud8Ea42AuYlxQDsVMUde+Lbn2U7nz2Tnr+9xLKSyxkrNkgAhsd3D0OwKlfju17FeaH2UtdCIwDj7vUQoE3End86a+3LRgvgE/HdJQBGmLa8E8FzSZ9V27OzpZstm44KM1acswIoCTpVIvqQAGEDR6aR8V2vkg+xYnX9S9qve7A35wVQEopebAkaofiKgWOxByrLTI/venZZ8Pz8Mtfn+6GhseIeBZalO1acNgEEAuXnSYF1t8nx3WNDkksOtLf3shWzC2PFHhLAQHz3yK0Qaxmgow2c7ud1fNer5EOs2Jdwa1u+uabbswIwPb4rIjXdna2vsN28S9mGuWP97pB7Bfo9mBUr/kCB2rbK1U96TgCB8eUTJSmrAak0cEwdhOo9jO/mFgbFitMaGhqUAMaPHz+6P1FUr6K3ASgwbAwlIPhvy/XVx+PbPmRL5Sa5HCvORGx4UAIIBKOzRbDewHHzKyTd+YzvmoGzvr7QLeq9BYJ7kRux4g6B3rm9ck3aU6QUwN8UXhV3Mr5rJjkQK874rcMUwInCQ7BqqL/vgY6OjuNsFcNnBN6LFSsUT1uWdXvrrJV7M/nF+S4ABeRpv+D2zs7WvWyNPMIjsWIVvAVXqtuqVr2Zje/PXwEI3lJ1q/d0tb3Jbshfshgr7oHqHbHKNU9BoNlrg/wTQI+q3rEnHntqYAZASEZjxUcBfchN+u/PRNafAvh4U48q3FWJYwUr9u3bephDnpxSBBvqvua62gAg9a+SVzS7KvPa/23VrlQN6rKyspGDeZq0lScLvmYfEs6ertjdbH7yWbTOXPVq8fCRlyjwfQAHUtSnMQWuiVWtrkpV8weD5RWloejrR/sKBxV0MloACsRE5JrdXbGqrq72XRze5HR47er6RFvl6h9bfneSqj4EIHmWH3UQiprYka4pbZWrUxIhD4UiF9rh6OOuWJsVuHKwn+c3dB8ehOo9e+KxHw1i55F8nw1cs/YggOrJzTWPnWGsuF+AnycUi3dUrU7JLOLkTXZJyD1QjErVNpomgAQET7h9icU9PTsOcAiTVNBS2RADcE15U12VJdqgwPjP+PNfAjJ/e+WqllR9f0nQqdp34OhaiFyU6m0zSQC/EldrurtjLRyyJB20Va1qctbXv6KnjhW/J9DFqYzvloSnlFuaXAPotenaptwXgOI9BRYzvksysiz4dn0fgMZJz9/+rM+XXKrAf4rK2j7f8Qc6Zj6ckhRpMDjlHNdK1kOTt6a7R3NZAAPx3QLGd0nmab/uwR4A3y/bMHdeqhofmO63g/tvcsW9D4qxmdiOXBSAAvJ0gSULd+1q2cehSLJJqpo/EHK+JrK/AapTMvn7c0wA+oalOi8eb9vCoUdMoLR08kUq7mpAr8tGLjWnBGCptSgeb2Xzk5ynuHjq8IKixEJVdxGAodn6HX7uCkIyigSCkTkiiRXQ7L/chAIgJGPTfedStdAIqGdeb0YBEJL2xp9UopZ/uXrwXZgUACFpwnGcwkO97i0qci+gnnwWIQVASBooCTpVhz5CI0Q8/TRiCoCQFBIOO59LKP4H0K/mwu+1uMsISR2ui7JcaX4KgJA8hwIghAIghFAAhBAKgBBCARBCKABCCAVACDEOJgFJypj2i5oxfX6rwrXkUlF8HoANoFhEn9s+a82drBAFQNLAxKb5AZ/4IoOfD7ofxWau+f2Z/Ev5SzVhcX3XQ/X645AvAfDJ3zzZRhVF3EsUAEkTPsu6Fqo/GfQHubINwNTT+VOnqfbLrsg8JPVbAHweu8uVUAAkHZQ31U0XcVe7wCV8uTIFQPKl8Qem+muh+k0e7SkAkkdEmxfM1qQ8DuAcVoMCIHlCeFP90KIjHz2uqjeyGhQAySOm/aJmzPHDvc8DuIrVoABIHhF5uebC4wnfRgAOq2E2TAKST1G2Ye4o9PteZPNTACT/GFqgQ16A4GKWgksAkn9MgOoEloEzAEIIBUAIoQAIIRQAIYQCIIQYAq8CkMHQCWAzoFsBaydEP3DhfihqqaU6xhUZLZAJKtrBUlEAxAzeA+RnPiReaKlsiLEcFADJD95UterbKlduhPBBABQAyQ8E3QKZu33WqudZDAqA5BdPHi/0V7//jRWHWAoKgOQPSUAWxypXrWApKACSXxyH6rdiVas3sBTmwxwA+ST9IvIfsao1bH4KgOQhbTzZRwEQQigAQggFQAihAAghFAAhhAIghFAAhBAKgBBCARBCKABCCAVACKEACCEUACGEAiCEUACEEAqAEEIBEEIoAEIIBUAIoQAIIRQAIYQCIIRQAIQQCoAQQgEQQigAQggFQAihAAghFAAhhAIghFAAhBAKgBBCARBCKABCCAVACAVACKEACCEUACGEAiCEUACEEAqAEEIBEEIoAEIIBUAIyWX8LEHuk3Tdl3zi+8bgDwfuR6wmBUByjB1Va/cA2MNKEC4BCCEUACGEAiCEUACEEAqAEEIBEEIoAEIoAJaAEAqAEEIBEEIoAI/iChpKgs6V3G3Ei5QEnStdQQMFkDa0whL9rR2KNIXD5WEOOeIFbHtiwA456yzR1wGtoADSjlQm1Gq1w5HlY8c6IzgESXYa3y6yg84i+PwxQOcAEC4BMscwqCwaMgxtgWDkxlwsPsnp6X4VfKNbIbocwEieA8jesiAgIk/aoeibdjh6GYcmSWvjh6IX28Hory3RFwAdl+vbY9JVgMugeMMOOevGjZtczKFKUjvdd861w9FGC/IWBFeZsl2mXQa0AJ3T77oddjhaX1ZWNoRDlwyGioqKAjsYqYZPd0IxD1CfYQ1jJCOgWHqsr3BbIBidzWFMzm6dH5mx78DRdyDSAGCMidtodhBIMEEE60tD0Y3BYNThkCanN92PTLBDkSZLZCMAo8dNXiQBFZjhCt6xw9HGcHjaGA5xcirGjnVG2OFoPXyyDZDKfNjmfIoCF0AxL6F9O+1gpBqAj0OenOyDQDByY+Ew7YBiKYC8OXeUj/cCnAuRBjsUfat0XOQqjv08n+6Ho5fZoegbIvKkAHl39Sifbwa6WF35tR2KNIVCk8axFfKLQGCqbYecdVC8CSBv8yO8GxBSmYS/1Q5Hlp8/adJI1sNsSkoqhtlBZ5H4Ezkb36UAUo4WQWXR0GP+GGPFBjd/0KmSgqMn47u8h4QC+DsRDMSKw9H/DYQjl7MehjR+KHKJHY7+xhJ9QYAwK/IxgzoTPrEs+N7hw/0fQKwrAAw1aYkokO+OGnPBReeec8Gbf/7zfr4zLyfX+eXnjT7vguUC6ycwr/EPQ/BAUUHfzw4ePJg86wVwqgotBdbdULnNtKjkiUKvGurve6Cjo+M428r7VFRUFOzbf+RWiLUM0NGmTVMBedovuL2zs3XvYD8spWvdklD0YkvQCMVXDBxXHaq4c098+7NsMS+v8yMzLJFGAFHzVqjYrJZW7+mM/T5VHynp2QlOlYg+ZOh661fiak13d6yF7eah6f748omS9K0BdJZ5Wyd7VN0798RjTw3MAFL4yWkzcUnFMMt/bC5El8C8M64JCJ5w+xKLe3p2HGD7ZY9weNqYBI7/ACrzARQa1vhHIe5Dx4a49x9ob+9Nyzek3cyBqbb4kz8E9AaYd3ntIFTv2R2P/QhAku2YUaxAMHKDiKwEcIF5m6fNPrjzurrad6VVMZnaHDscvQyKRhiYulIgZonM7+5sfYV9mYmxNHk61G0A8HkDN+9dsbS6e1fsNxmZY2TD2hB50MzctTZb6q+Ox7e9zzblbDIXZpNZKeIn1m01MO/Oqz4IHjs2JLkkXeu2fKOkpGKYVXj0dqjcDmiRYZvXD8HPs3U+KasWHThzK6sNvfe6ByrLdsdbfwrAZRuf3fgMBKP/LoKVAEIGbl/Wryh5Yhp14tptA4x8+oq+7cJX3dPV8gb7+fQJBssrVKxGBcx7E5TiPQUWeyFT4pl1lOnpLRE8l/RZtT07W7rZ3v+YUChyYVKkHirfZao0jwTw12VBHsSK/TiyvLOz8xjb/VQHALkHwCjjjvmQpwssWbhrV8s+T62xvFoxw2PFO1VxB2PFHy8BReQhASIGTvdTHt/NCwF8PDiMjhW/Csuav3tXy9a8bPxxkyZZrm8NgJnmbV364rt5JQBg4CWMsEbPMzlWnPD3Ldnb0bE/Hxo/GJxyjmslFpkc3z1+2Lpv//5Wz99GnlNhCtueGICv4AFDgyAfQnXZ7njxI8BrCUN7/0R811oF6FjzNi8z8d28FcBfRWBwrBhAG4AFu7u2v2TSRgVCztUCtwGQqQbus4zGd/NeAJ88mpgcKxbXV9Pd3bIzp9f5F00utRJ6/4kHcJpGzt8MlvPTaMNjxf0QPDrU33dXR0fHX3LphxcXTx1eUJRYCMUimPW4uJP75ecm3A5uzDratiMT4MMaQ2PFf4JKfY7Eik/Gd1cBCJq2IwT4pShq4vHtrYZsj1mYHSuWLa6iuife+jsv/rrS0slfUCvZCMiXzFuReSe+SwH8E/IiVmxJXc/7rXFvNP6kEvX5lkLxPZj3qHmjHwpr9AswDI8VH4FgZTZjxY7jFB7qdW8xNL7rAvKMF+O7FMCZLgtMjhUruhW6ZE88ti6zSy2nyhJtADDewJp6Or5LAQxi0JobK9bXYPmq0x0rLglPKbc0uRbANQa2Q07EdymAQWB4rNgF5Jl+v69u386t/5faujnnwq9LobgVgN+wNsip+C4FkJIBbXqsWFaMHom1ra2tfYP7qOl+O7j/JgjuY3yXAjBPBOOcL8LVh2BkrFjaAXfB7q7YhrP570DI+ZoIGqA6xcBd/45YWpOL8V0KIPUYHSseCK9IdTzeuv00p/tl4tcfqmK2gfua73KgAE7N2LHOiCHDtQ6KHyAPY8V5EN991I/CpZ2d7/6Zo50C+IwjoNGx4gNQve9vjoASCEbmiMgKAJ8zcwZkTnyXAsgQJseKBfiDqFSr4rhaaAT0CuN2oKHxXQoggziOU/iXj3SuQu4y813zJo4DOSTQe0eNkIcHfxWEAiAwPlZsCnkR36UAsrksMPtpxbk8l8mb+C4F4InzA0Y/rTiXhnDexXdTCaeyZ0nvof07Ro8c8mPI0F4ILodxT7f1fOMfheia40fk23v/tP0t1oMzgKxheKzYi/P9Zr/o3M7Otk7WggLwjgiMjhV7AsZ3KQDPY/jTirMC47s8B5A789PeQwf+OLTwgsf8hegHcAWMu302Y/RD8IhfCq+Pd7X8GjzJxxlA7p0fMDpWnM6ByfguBWAOZj+tOJXzJ8Z3M7peZQkyQ0889svi84suhmoNIIdYkb/jIwiWDS3sm8Lm5wzAaBgr/hSM71IAebosCEUvthQNEFyVp9N9xncpAJJ/sWLGd70CLwN6gPyJFTO+yxkA+UzMjRUzvksBkNMXwUCsuBHA5Tm+KYzvUgDkLMnlWPEHUL2X8V2eAyCDmDfnYKy4H4JHCn3Hru/qfI/xXc4ASOrOD3g7Vsz4LgVAMoDnYsWM7+buGpMlyD08FCtmfJczAJJNshQrZnyXAiCeWhZkKlbM+C4FQLx8fiBdsWLGd02ElwENI/WxYsZ3OQMgOcngY8WM71IAJPdFcOaxYsZ3KQBiGKcTK2Z8l+cAiKF8VqyY8d085f8BFCPmJnJxCowAAAAASUVORK5CYII=" vertex="1" parent="1">
          <mxGeometry x="987.92" y="334" width="88" height="88" as="geometry" />
        </mxCell>
        <mxCell id="fgHvfDnMfx1o7fpBP95t-74" style="edgeStyle=orthogonalEdgeStyle;rounded=0;orthogonalLoop=1;jettySize=auto;html=1;" edge="1" parent="1" source="fgHvfDnMfx1o7fpBP95t-70" target="fgHvfDnMfx1o7fpBP95t-73">
          <mxGeometry relative="1" as="geometry" />
        </mxCell>
        <mxCell id="fgHvfDnMfx1o7fpBP95t-75" value="&lt;font style=&quot;font-size: 14px;&quot;&gt;&lt;b&gt;Deploy&lt;/b&gt;&lt;/font&gt;" style="edgeLabel;html=1;align=center;verticalAlign=middle;resizable=0;points=[];" vertex="1" connectable="0" parent="fgHvfDnMfx1o7fpBP95t-74">
          <mxGeometry x="-0.1489" relative="1" as="geometry">
            <mxPoint as="offset" />
          </mxGeometry>
        </mxCell>
        <mxCell id="fgHvfDnMfx1o7fpBP95t-70" value="" style="image;sketch=0;aspect=fixed;html=1;points=[];align=center;fontSize=12;image=img/lib/mscae/Docker.svg;" vertex="1" parent="1">
          <mxGeometry x="1250" y="72" width="109.76" height="90" as="geometry" />
        </mxCell>
        <mxCell id="fgHvfDnMfx1o7fpBP95t-78" style="edgeStyle=orthogonalEdgeStyle;rounded=0;orthogonalLoop=1;jettySize=auto;html=1;" edge="1" parent="1" source="fgHvfDnMfx1o7fpBP95t-73" target="fgHvfDnMfx1o7fpBP95t-76">
          <mxGeometry relative="1" as="geometry" />
        </mxCell>
        <mxCell id="fgHvfDnMfx1o7fpBP95t-79" value="&lt;font style=&quot;font-size: 14px;&quot;&gt;&lt;b&gt;Application Logs&lt;/b&gt;&lt;/font&gt;" style="edgeLabel;html=1;align=center;verticalAlign=middle;resizable=0;points=[];" vertex="1" connectable="0" parent="fgHvfDnMfx1o7fpBP95t-78">
          <mxGeometry x="0.4736" relative="1" as="geometry">
            <mxPoint as="offset" />
          </mxGeometry>
        </mxCell>
        <mxCell id="fgHvfDnMfx1o7fpBP95t-73" value="Kubernetes" style="shape=image;verticalLabelPosition=bottom;labelBackgroundColor=default;verticalAlign=top;aspect=fixed;imageAspect=0;image=data:image/svg+xml,PHN2ZyB4bWxucz0iaHR0cDovL3d3dy53My5vcmcvMjAwMC9zdmciIGhlaWdodD0iOTZweCIgd2lkdGg9Ijk2cHgiIHZpZXdCb3g9IjAgMCA0OCA0OCI+PHBhdGggZD0iTTI1Ljg3NSwyNC4yMDhjMC4xMDIsMC4xMzEsMC4xNDUsMC4zMiwwLjExNiwwLjQ5NWwtMC4yNzYsMS4yMDgmIzk7Yy0wLjAyOSwwLjE4OS0wLjE2LDAuMzM1LTAuMzE5LDAuNDIybC0xLjExOCwwLjUyNGMtMC4xNiwwLjA4Ny0wLjM2MywwLjA4Ny0wLjUyMywwbC0xLjExOC0wLjUyNCYjOTtjLTAuMTYtMC4wODctMC4yOS0wLjIzMy0wLjMxOS0wLjQyMmwtMC4yNzYtMS4yMDhjLTAuMDI5LTAuMTc1LDAuMDE1LTAuMzY0LDAuMTE2LTAuNDk1bDAuNzg0LTAuOTc1JiM5O0MyMy4wNDMsMjMuMDg3LDIzLjIxOCwyMywyMy40MDYsMjNoMS4yMmMwLjE4OSwwLDAuMzYzLDAuMDg3LDAuNDY1LDAuMjMzTDI1Ljg3NSwyNC4yMDh6IiBmaWxsPSIjMDI3N2JkIi8+PHBhdGggZD0iTTI1LjMxMiwxNS4zM2wwLjA0OCwwLjM3NWMwLjEzNCwxLjAzNywwLjIzLDIuMDg1LDAuMzI2LDMuMTIyYzAuMDM4LDAuNDEzLDAuMDc3LDAuODE3LDAuMTA1LDEuMjMmIzk7YzAuMDE5LDAuMzE3LDAuMzc0LDAuNDgsMC42MzMsMC4yOThjMC4zMjYtMC4yNCwwLjY2Mi0wLjQ4LDEuMDA3LTAuNzExYzAuODYzLTAuNTg2LDEuNzE2LTEuMTcyLDIuNTk4LTEuNzM5bDAuMzI2LTAuMjAyJiM5O0MyOC45ODQsMTYuNDU0LDI3LjIzOSwxNS41OTksMjUuMzEyLDE1LjMzeiBNMjUuMzEyLDE1LjMzbDAuMDQ4LDAuMzc1YzAuMTM0LDEuMDM3LDAuMjMsMi4wODUsMC4zMjYsMy4xMjImIzk7YzAuMDM4LDAuNDEzLDAuMDc3LDAuODE3LDAuMTA1LDEuMjNjMC4wMTksMC4zMTcsMC4zNzQsMC40OCwwLjYzMywwLjI5OGMwLjMyNi0wLjI0LDAuNjYyLTAuNDgsMS4wMDctMC43MTEmIzk7YzAuODYzLTAuNTg2LDEuNzE2LTEuMTcyLDIuNTk4LTEuNzM5bDAuMzI2LTAuMjAyQzI4Ljk4NCwxNi40NTQsMjcuMjM5LDE1LjU5OSwyNS4zMTIsMTUuMzN6IE0yNS4zMTIsMTUuMzNsMC4wNDgsMC4zNzUmIzk7YzAuMTM0LDEuMDM3LDAuMjMsMi4wODUsMC4zMjYsMy4xMjJjMC4wMzgsMC40MTMsMC4wNzcsMC44MTcsMC4xMDUsMS4yM2MwLjAxOSwwLjMxNywwLjM3NCwwLjQ4LDAuNjMzLDAuMjk4JiM5O2MwLjMyNi0wLjI0LDAuNjYyLTAuNDgsMS4wMDctMC43MTFjMC44NjMtMC41ODYsMS43MTYtMS4xNzIsMi41OTgtMS43MzlsMC4zMjYtMC4yMDJDMjguOTg0LDE2LjQ1NCwyNy4yMzksMTUuNTk5LDI1LjMxMiwxNS4zM3ogTTI1LjMxMiwxNS4zM2wwLjA0OCwwLjM3NWMwLjEzNCwxLjAzNywwLjIzLDIuMDg1LDAuMzI2LDMuMTIyYzAuMDM4LDAuNDEzLDAuMDc3LDAuODE3LDAuMTA1LDEuMjMmIzk7YzAuMDE5LDAuMzE3LDAuMzc0LDAuNDgsMC42MzMsMC4yOThjMC4zMjYtMC4yNCwwLjY2Mi0wLjQ4LDEuMDA3LTAuNzExYzAuODYzLTAuNTg2LDEuNzE2LTEuMTcyLDIuNTk4LTEuNzM5bDAuMzI2LTAuMjAyJiM5O0MyOC45ODQsMTYuNDU0LDI3LjIzOSwxNS41OTksMjUuMzEyLDE1LjMzeiBNMjUuMzEyLDE1LjMzbDAuMDQ4LDAuMzc1YzAuMTM0LDEuMDM3LDAuMjMsMi4wODUsMC4zMjYsMy4xMjImIzk7YzAuMDM4LDAuNDEzLDAuMDc3LDAuODE3LDAuMTA1LDEuMjNjMC4wMTksMC4zMTcsMC4zNzQsMC40OCwwLjYzMywwLjI5OGMwLjMyNi0wLjI0LDAuNjYyLTAuNDgsMS4wMDctMC43MTEmIzk7YzAuODYzLTAuNTg2LDEuNzE2LTEuMTcyLDIuNTk4LTEuNzM5bDAuMzI2LTAuMjAyQzI4Ljk4NCwxNi40NTQsMjcuMjM5LDE1LjU5OSwyNS4zMTIsMTUuMzN6IE0zMi4xMTksMTkuODM1bC0wLjI1OSwwLjI3OSYjOTtjLTAuNzE5LDAuNzY5LTEuNDU3LDEuNTA4LTIuMTk2LDIuMjQ4Yy0wLjQ3LDAuNDgtMC45NzgsMC45NDEtMS40NjcsMS40MTJjMC42NTIsMC4xNjMsMS4zMDQsMC4zMzYsMS45NTYsMC41MjgmIzk7YzEuMDA3LDAuMjg4LDIuMDA0LDAuNTY3LDMuMDAxLDAuODkzbDAuMzU1LDAuMTE1YzAuMDEtMC4xNTQsMC4wMS0wLjMxNywwLjAxLTAuNDhDMzMuNTE5LDIyLjk5NiwzMy4wMTEsMjEuMjg2LDMyLjExOSwxOS44MzV6IE0zMi4xMTksMTkuODM1bC0wLjI1OSwwLjI3OWMtMC43MTksMC43NjktMS40NTcsMS41MDgtMi4xOTYsMi4yNDhjLTAuNDcsMC40OC0wLjk3OCwwLjk0MS0xLjQ2NywxLjQxMiYjOTtjMC42NTIsMC4xNjMsMS4zMDQsMC4zMzYsMS45NTYsMC41MjhjMS4wMDcsMC4yODgsMi4wMDQsMC41NjcsMy4wMDEsMC44OTNsMC4zNTUsMC4xMTVjMC4wMS0wLjE1NCwwLjAxLTAuMzE3LDAuMDEtMC40OCYjOTtDMzMuNTE5LDIyLjk5NiwzMy4wMTEsMjEuMjg2LDMyLjExOSwxOS44MzV6IE0yNS4zMTIsMTUuMzNsMC4wNDgsMC4zNzVjMC4xMzQsMS4wMzcsMC4yMywyLjA4NSwwLjMyNiwzLjEyMiYjOTtjMC4wMzgsMC40MTMsMC4wNzcsMC44MTcsMC4xMDUsMS4yM2MwLjAxOSwwLjMxNywwLjM3NCwwLjQ4LDAuNjMzLDAuMjk4YzAuMzI2LTAuMjQsMC42NjItMC40OCwxLjAwNy0wLjcxMSYjOTtjMC44NjMtMC41ODYsMS43MTYtMS4xNzIsMi41OTgtMS43MzlsMC4zMjYtMC4yMDJDMjguOTg0LDE2LjQ1NCwyNy4yMzksMTUuNTk5LDI1LjMxMiwxNS4zM3ogTTI1LjMxMiwxNS4zM2wwLjA0OCwwLjM3NSYjOTtjMC4xMzQsMS4wMzcsMC4yMywyLjA4NSwwLjMyNiwzLjEyMmMwLjAzOCwwLjQxMywwLjA3NywwLjgxNywwLjEwNSwxLjIzYzAuMDE5LDAuMzE3LDAuMzc0LDAuNDgsMC42MzMsMC4yOTgmIzk7YzAuMzI2LTAuMjQsMC42NjItMC40OCwxLjAwNy0wLjcxMWMwLjg2My0wLjU4NiwxLjcxNi0xLjE3MiwyLjU5OC0xLjczOWwwLjMyNi0wLjIwMkMyOC45ODQsMTYuNDU0LDI3LjIzOSwxNS41OTksMjUuMzEyLDE1LjMzeiBNMzIuNjI3LDI4LjAyYy0xLjA0NS0wLjA2Ny0yLjA4MS0wLjE2My0zLjEyNi0wLjI1OWMtMC40NTEtMC4wMzgtMC44OTItMC4wODYtMS4zNDItMC4xMzVjLTAuMjg4LTAuMDM4LTAuNTE4LDAuMjUtMC40MTIsMC41MjgmIzk7YzAuMTYzLDAuNDMyLDAuMzE2LDAuODY1LDAuNDcsMS4zMDdjMC4zMzYsMC45OCwwLjY4MSwxLjk2OSwwLjk5NywyLjk2OGwwLjEwNSwwLjM0NmMxLjY2OC0xLjE0MywyLjk2My0yLjc5NSwzLjY0My00LjczNiYjOTtMMzIuNjI3LDI4LjAyeiBNMzIuMTE5LDE5LjgzNWwtMC4yNTksMC4yNzljLTAuNzE5LDAuNzY5LTEuNDU3LDEuNTA4LTIuMTk2LDIuMjQ4Yy0wLjQ3LDAuNDgtMC45NzgsMC45NDEtMS40NjcsMS40MTImIzk7YzAuNjUyLDAuMTYzLDEuMzA0LDAuMzM2LDEuOTU2LDAuNTI4YzEuMDA3LDAuMjg4LDIuMDA0LDAuNTY3LDMuMDAxLDAuODkzbDAuMzU1LDAuMTE1YzAuMDEtMC4xNTQsMC4wMS0wLjMxNywwLjAxLTAuNDgmIzk7QzMzLjUxOSwyMi45OTYsMzMuMDExLDIxLjI4NiwzMi4xMTksMTkuODM1eiBNMzIuMTE5LDE5LjgzNWwtMC4yNTksMC4yNzljLTAuNzE5LDAuNzY5LTEuNDU3LDEuNTA4LTIuMTk2LDIuMjQ4JiM5O2MtMC40NywwLjQ4LTAuOTc4LDAuOTQxLTEuNDY3LDEuNDEyYzAuNjUyLDAuMTYzLDEuMzA0LDAuMzM2LDEuOTU2LDAuNTI4YzEuMDA3LDAuMjg4LDIuMDA0LDAuNTY3LDMuMDAxLDAuODkzbDAuMzU1LDAuMTE1JiM5O2MwLjAxLTAuMTU0LDAuMDEtMC4zMTcsMC4wMS0wLjQ4QzMzLjUxOSwyMi45OTYsMzMuMDExLDIxLjI4NiwzMi4xMTksMTkuODM1eiBNMzIuNjI3LDI4LjAyYy0xLjA0NS0wLjA2Ny0yLjA4MS0wLjE2My0zLjEyNi0wLjI1OSYjOTtjLTAuNDUxLTAuMDM4LTAuODkyLTAuMDg2LTEuMzQyLTAuMTM1Yy0wLjI4OC0wLjAzOC0wLjUxOCwwLjI1LTAuNDEyLDAuNTI4YzAuMTYzLDAuNDMyLDAuMzE2LDAuODY1LDAuNDcsMS4zMDcmIzk7YzAuMzM2LDAuOTgsMC42ODEsMS45NjksMC45OTcsMi45NjhsMC4xMDUsMC4zNDZjMS42NjgtMS4xNDMsMi45NjMtMi43OTUsMy42NDMtNC43MzZMMzIuNjI3LDI4LjAyeiBNMjUuMzEyLDE1LjMzbDAuMDQ4LDAuMzc1JiM5O2MwLjEzNCwxLjAzNywwLjIzLDIuMDg1LDAuMzI2LDMuMTIyYzAuMDM4LDAuNDEzLDAuMDc3LDAuODE3LDAuMTA1LDEuMjNjMC4wMTksMC4zMTcsMC4zNzQsMC40OCwwLjYzMywwLjI5OCYjOTtjMC4zMjYtMC4yNCwwLjY2Mi0wLjQ4LDEuMDA3LTAuNzExYzAuODYzLTAuNTg2LDEuNzE2LTEuMTcyLDIuNTk4LTEuNzM5bDAuMzI2LTAuMjAyQzI4Ljk4NCwxNi40NTQsMjcuMjM5LDE1LjU5OSwyNS4zMTIsMTUuMzN6IE0yNS4zMTIsMTUuMzNsMC4wNDgsMC4zNzVjMC4xMzQsMS4wMzcsMC4yMywyLjA4NSwwLjMyNiwzLjEyMmMwLjAzOCwwLjQxMywwLjA3NywwLjgxNywwLjEwNSwxLjIzJiM5O2MwLjAxOSwwLjMxNywwLjM3NCwwLjQ4LDAuNjMzLDAuMjk4YzAuMzI2LTAuMjQsMC42NjItMC40OCwxLjAwNy0wLjcxMWMwLjg2My0wLjU4NiwxLjcxNi0xLjE3MiwyLjU5OC0xLjczOWwwLjMyNi0wLjIwMiYjOTtDMjguOTg0LDE2LjQ1NCwyNy4yMzksMTUuNTk5LDI1LjMxMiwxNS4zM3ogTTMyLjYyNywyOC4wMmMtMS4wNDUtMC4wNjctMi4wODEtMC4xNjMtMy4xMjYtMC4yNTkmIzk7Yy0wLjQ1MS0wLjAzOC0wLjg5Mi0wLjA4Ni0xLjM0Mi0wLjEzNWMtMC4yODgtMC4wMzgtMC41MTgsMC4yNS0wLjQxMiwwLjUyOGMwLjE2MywwLjQzMiwwLjMxNiwwLjg2NSwwLjQ3LDEuMzA3JiM5O2MwLjMzNiwwLjk4LDAuNjgxLDEuOTY5LDAuOTk3LDIuOTY4bDAuMTA1LDAuMzQ2YzEuNjY4LTEuMTQzLDIuOTYzLTIuNzk1LDMuNjQzLTQuNzM2TDMyLjYyNywyOC4wMnogTTMyLjExOSwxOS44MzVsLTAuMjU5LDAuMjc5JiM5O2MtMC43MTksMC43NjktMS40NTcsMS41MDgtMi4xOTYsMi4yNDhjLTAuNDcsMC40OC0wLjk3OCwwLjk0MS0xLjQ2NywxLjQxMmMwLjY1MiwwLjE2MywxLjMwNCwwLjMzNiwxLjk1NiwwLjUyOCYjOTtjMS4wMDcsMC4yODgsMi4wMDQsMC41NjcsMy4wMDEsMC44OTNsMC4zNTUsMC4xMTVjMC4wMS0wLjE1NCwwLjAxLTAuMzE3LDAuMDEtMC40OEMzMy41MTksMjIuOTk2LDMzLjAxMSwyMS4yODYsMzIuMTE5LDE5LjgzNXogTTMyLjExOSwxOS44MzVsLTAuMjU5LDAuMjc5Yy0wLjcxOSwwLjc2OS0xLjQ1NywxLjUwOC0yLjE5NiwyLjI0OGMtMC40NywwLjQ4LTAuOTc4LDAuOTQxLTEuNDY3LDEuNDEyJiM5O2MwLjY1MiwwLjE2MywxLjMwNCwwLjMzNiwxLjk1NiwwLjUyOGMxLjAwNywwLjI4OCwyLjAwNCwwLjU2NywzLjAwMSwwLjg5M2wwLjM1NSwwLjExNWMwLjAxLTAuMTU0LDAuMDEtMC4zMTcsMC4wMS0wLjQ4JiM5O0MzMy41MTksMjIuOTk2LDMzLjAxMSwyMS4yODYsMzIuMTE5LDE5LjgzNXogTTMyLjYyNywyOC4wMmMtMS4wNDUtMC4wNjctMi4wODEtMC4xNjMtMy4xMjYtMC4yNTkmIzk7Yy0wLjQ1MS0wLjAzOC0wLjg5Mi0wLjA4Ni0xLjM0Mi0wLjEzNWMtMC4yODgtMC4wMzgtMC41MTgsMC4yNS0wLjQxMiwwLjUyOGMwLjE2MywwLjQzMiwwLjMxNiwwLjg2NSwwLjQ3LDEuMzA3JiM5O2MwLjMzNiwwLjk4LDAuNjgxLDEuOTY5LDAuOTk3LDIuOTY4bDAuMTA1LDAuMzQ2YzEuNjY4LTEuMTQzLDIuOTYzLTIuNzk1LDMuNjQzLTQuNzM2TDMyLjYyNywyOC4wMnogTTI1LjMxMiwxNS4zM2wwLjA0OCwwLjM3NSYjOTtjMC4xMzQsMS4wMzcsMC4yMywyLjA4NSwwLjMyNiwzLjEyMmMwLjAzOCwwLjQxMywwLjA3NywwLjgxNywwLjEwNSwxLjIzYzAuMDE5LDAuMzE3LDAuMzc0LDAuNDgsMC42MzMsMC4yOTgmIzk7YzAuMzI2LTAuMjQsMC42NjItMC40OCwxLjAwNy0wLjcxMWMwLjg2My0wLjU4NiwxLjcxNi0xLjE3MiwyLjU5OC0xLjczOWwwLjMyNi0wLjIwMkMyOC45ODQsMTYuNDU0LDI3LjIzOSwxNS41OTksMjUuMzEyLDE1LjMzeiBNMjYuNjA2LDMzLjYyYy0wLjU1Ni0wLjg4NC0xLjA3NC0xLjc5Ni0xLjU5Mi0yLjY5OWMtMC4yMy0wLjM5NC0wLjQ1MS0wLjc4OC0wLjY2Mi0xLjE5MWMtMC4xNTMtMC4yNzktMC41NDctMC4yNzktMC43LDAmIzk7Yy0wLjIyMSwwLjQxMy0wLjQ1MSwwLjgxNy0wLjY5LDEuMjFjLTAuNTI3LDAuOTAzLTEuMDU1LDEuODA2LTEuNjExLDIuNjlsLTAuMjQsMC4zODRjMC44OTIsMC4yNzksMS44NDEsMC40MjMsMi44MTksMC40MjMmIzk7YzEuMDA3LDAsMS45ODUtMC4xNTQsMi44OTYtMC40NTJMMjYuNjA2LDMzLjYyeiBNMjUuMzEyLDE1LjMzbDAuMDQ4LDAuMzc1YzAuMTM0LDEuMDM3LDAuMjMsMi4wODUsMC4zMjYsMy4xMjImIzk7YzAuMDM4LDAuNDEzLDAuMDc3LDAuODE3LDAuMTA1LDEuMjNjMC4wMTksMC4zMTcsMC4zNzQsMC40OCwwLjYzMywwLjI5OGMwLjMyNi0wLjI0LDAuNjYyLTAuNDgsMS4wMDctMC43MTEmIzk7YzAuODYzLTAuNTg2LDEuNzE2LTEuMTcyLDIuNTk4LTEuNzM5bDAuMzI2LTAuMjAyQzI4Ljk4NCwxNi40NTQsMjcuMjM5LDE1LjU5OSwyNS4zMTIsMTUuMzN6IE0zMi42MjcsMjguMDImIzk7Yy0xLjA0NS0wLjA2Ny0yLjA4MS0wLjE2My0zLjEyNi0wLjI1OWMtMC40NTEtMC4wMzgtMC44OTItMC4wODYtMS4zNDItMC4xMzVjLTAuMjg4LTAuMDM4LTAuNTE4LDAuMjUtMC40MTIsMC41MjgmIzk7YzAuMTYzLDAuNDMyLDAuMzE2LDAuODY1LDAuNDcsMS4zMDdjMC4zMzYsMC45OCwwLjY4MSwxLjk2OSwwLjk5NywyLjk2OGwwLjEwNSwwLjM0NmMxLjY2OC0xLjE0MywyLjk2My0yLjc5NSwzLjY0My00LjczNiYjOTtMMzIuNjI3LDI4LjAyeiBNMzIuMTE5LDE5LjgzNWwtMC4yNTksMC4yNzljLTAuNzE5LDAuNzY5LTEuNDU3LDEuNTA4LTIuMTk2LDIuMjQ4Yy0wLjQ3LDAuNDgtMC45NzgsMC45NDEtMS40NjcsMS40MTImIzk7YzAuNjUyLDAuMTYzLDEuMzA0LDAuMzM2LDEuOTU2LDAuNTI4YzEuMDA3LDAuMjg4LDIuMDA0LDAuNTY3LDMuMDAxLDAuODkzbDAuMzU1LDAuMTE1YzAuMDEtMC4xNTQsMC4wMS0wLjMxNywwLjAxLTAuNDgmIzk7QzMzLjUxOSwyMi45OTYsMzMuMDExLDIxLjI4NiwzMi4xMTksMTkuODM1eiBNMzIuMTE5LDE5LjgzNWwtMC4yNTksMC4yNzljLTAuNzE5LDAuNzY5LTEuNDU3LDEuNTA4LTIuMTk2LDIuMjQ4JiM5O2MtMC40NywwLjQ4LTAuOTc4LDAuOTQxLTEuNDY3LDEuNDEyYzAuNjUyLDAuMTYzLDEuMzA0LDAuMzM2LDEuOTU2LDAuNTI4YzEuMDA3LDAuMjg4LDIuMDA0LDAuNTY3LDMuMDAxLDAuODkzbDAuMzU1LDAuMTE1JiM5O2MwLjAxLTAuMTU0LDAuMDEtMC4zMTcsMC4wMS0wLjQ4QzMzLjUxOSwyMi45OTYsMzMuMDExLDIxLjI4NiwzMi4xMTksMTkuODM1eiBNMzIuNjI3LDI4LjAyYy0xLjA0NS0wLjA2Ny0yLjA4MS0wLjE2My0zLjEyNi0wLjI1OSYjOTtjLTAuNDUxLTAuMDM4LTAuODkyLTAuMDg2LTEuMzQyLTAuMTM1Yy0wLjI4OC0wLjAzOC0wLjUxOCwwLjI1LTAuNDEyLDAuNTI4YzAuMTYzLDAuNDMyLDAuMzE2LDAuODY1LDAuNDcsMS4zMDcmIzk7YzAuMzM2LDAuOTgsMC42ODEsMS45NjksMC45OTcsMi45NjhsMC4xMDUsMC4zNDZjMS42NjgtMS4xNDMsMi45NjMtMi43OTUsMy42NDMtNC43MzZMMzIuNjI3LDI4LjAyeiBNMjUuMzEyLDE1LjMzbDAuMDQ4LDAuMzc1JiM5O2MwLjEzNCwxLjAzNywwLjIzLDIuMDg1LDAuMzI2LDMuMTIyYzAuMDM4LDAuNDEzLDAuMDc3LDAuODE3LDAuMTA1LDEuMjNjMC4wMTksMC4zMTcsMC4zNzQsMC40OCwwLjYzMywwLjI5OCYjOTtjMC4zMjYtMC4yNCwwLjY2Mi0wLjQ4LDEuMDA3LTAuNzExYzAuODYzLTAuNTg2LDEuNzE2LTEuMTcyLDIuNTk4LTEuNzM5bDAuMzI2LTAuMjAyQzI4Ljk4NCwxNi40NTQsMjcuMjM5LDE1LjU5OSwyNS4zMTIsMTUuMzN6IE0yNi42MDYsMzMuNjJjLTAuNTU2LTAuODg0LTEuMDc0LTEuNzk2LTEuNTkyLTIuNjk5Yy0wLjIzLTAuMzk0LTAuNDUxLTAuNzg4LTAuNjYyLTEuMTkxYy0wLjE1My0wLjI3OS0wLjU0Ny0wLjI3OS0wLjcsMCYjOTtjLTAuMjIxLDAuNDEzLTAuNDUxLDAuODE3LTAuNjksMS4yMWMtMC41MjcsMC45MDMtMS4wNTUsMS44MDYtMS42MTEsMi42OWwtMC4yNCwwLjM4NGMwLjg5MiwwLjI3OSwxLjg0MSwwLjQyMywyLjgxOSwwLjQyMyYjOTtjMS4wMDcsMCwxLjk4NS0wLjE1NCwyLjg5Ni0wLjQ1MkwyNi42MDYsMzMuNjJ6IE0xOS44NzUsMjcuNDkyYy0wLjQ1MSwwLjA1OC0wLjg5MiwwLjEyNS0xLjM0MiwwLjE3MyYjOTtjLTEuMDQ1LDAuMTI1LTIuMDcxLDAuMjUtMy4xMTYsMC4zNDZsLTAuNTE4LDAuMDQ4YzAuNywxLjk2LDIuMDIzLDMuNjMxLDMuNzIsNC43NjVsMC4xMzQtMC40MDQmIzk7YzAuMzI2LTAuOTk5LDAuNjcxLTEuOTc5LDEuMDI2LTIuOTY4YzAuMTYzLTAuNDgsMC4zMzYtMC45NTEsMC41MTgtMS40MzFDMjAuNDEyLDI3Ljc0MSwyMC4xNzIsMjcuNDQ0LDE5Ljg3NSwyNy40OTJ6IE0yNi42MDYsMzMuNjJjLTAuNTU2LTAuODg0LTEuMDc0LTEuNzk2LTEuNTkyLTIuNjk5Yy0wLjIzLTAuMzk0LTAuNDUxLTAuNzg4LTAuNjYyLTEuMTkxYy0wLjE1My0wLjI3OS0wLjU0Ny0wLjI3OS0wLjcsMCYjOTtjLTAuMjIxLDAuNDEzLTAuNDUxLDAuODE3LTAuNjksMS4yMWMtMC41MjcsMC45MDMtMS4wNTUsMS44MDYtMS42MTEsMi42OWwtMC4yNCwwLjM4NGMwLjg5MiwwLjI3OSwxLjg0MSwwLjQyMywyLjgxOSwwLjQyMyYjOTtjMS4wMDcsMCwxLjk4NS0wLjE1NCwyLjg5Ni0wLjQ1MkwyNi42MDYsMzMuNjJ6IE0yNS4zMTIsMTUuMzNsMC4wNDgsMC4zNzVjMC4xMzQsMS4wMzcsMC4yMywyLjA4NSwwLjMyNiwzLjEyMiYjOTtjMC4wMzgsMC40MTMsMC4wNzcsMC44MTcsMC4xMDUsMS4yM2MwLjAxOSwwLjMxNywwLjM3NCwwLjQ4LDAuNjMzLDAuMjk4YzAuMzI2LTAuMjQsMC42NjItMC40OCwxLjAwNy0wLjcxMSYjOTtjMC44NjMtMC41ODYsMS43MTYtMS4xNzIsMi41OTgtMS43MzlsMC4zMjYtMC4yMDJDMjguOTg0LDE2LjQ1NCwyNy4yMzksMTUuNTk5LDI1LjMxMiwxNS4zM3ogTTMyLjYyNywyOC4wMiYjOTtjLTEuMDQ1LTAuMDY3LTIuMDgxLTAuMTYzLTMuMTI2LTAuMjU5Yy0wLjQ1MS0wLjAzOC0wLjg5Mi0wLjA4Ni0xLjM0Mi0wLjEzNWMtMC4yODgtMC4wMzgtMC41MTgsMC4yNS0wLjQxMiwwLjUyOCYjOTtjMC4xNjMsMC40MzIsMC4zMTYsMC44NjUsMC40NywxLjMwN2MwLjMzNiwwLjk4LDAuNjgxLDEuOTY5LDAuOTk3LDIuOTY4bDAuMTA1LDAuMzQ2YzEuNjY4LTEuMTQzLDIuOTYzLTIuNzk1LDMuNjQzLTQuNzM2JiM5O0wzMi42MjcsMjguMDJ6IE0zMi4xMTksMTkuODM1bC0wLjI1OSwwLjI3OWMtMC43MTksMC43NjktMS40NTcsMS41MDgtMi4xOTYsMi4yNDhjLTAuNDcsMC40OC0wLjk3OCwwLjk0MS0xLjQ2NywxLjQxMiYjOTtjMC42NTIsMC4xNjMsMS4zMDQsMC4zMzYsMS45NTYsMC41MjhjMS4wMDcsMC4yODgsMi4wMDQsMC41NjcsMy4wMDEsMC44OTNsMC4zNTUsMC4xMTVjMC4wMS0wLjE1NCwwLjAxLTAuMzE3LDAuMDEtMC40OCYjOTtDMzMuNTE5LDIyLjk5NiwzMy4wMTEsMjEuMjg2LDMyLjExOSwxOS44MzV6IE0zMi4xMTksMTkuODM1bC0wLjI1OSwwLjI3OWMtMC43MTksMC43NjktMS40NTcsMS41MDgtMi4xOTYsMi4yNDgmIzk7Yy0wLjQ3LDAuNDgtMC45NzgsMC45NDEtMS40NjcsMS40MTJjMC42NTIsMC4xNjMsMS4zMDQsMC4zMzYsMS45NTYsMC41MjhjMS4wMDcsMC4yODgsMi4wMDQsMC41NjcsMy4wMDEsMC44OTNsMC4zNTUsMC4xMTUmIzk7YzAuMDEtMC4xNTQsMC4wMS0wLjMxNywwLjAxLTAuNDhDMzMuNTE5LDIyLjk5NiwzMy4wMTEsMjEuMjg2LDMyLjExOSwxOS44MzV6IE0zMi42MjcsMjguMDJjLTEuMDQ1LTAuMDY3LTIuMDgxLTAuMTYzLTMuMTI2LTAuMjU5JiM5O2MtMC40NTEtMC4wMzgtMC44OTItMC4wODYtMS4zNDItMC4xMzVjLTAuMjg4LTAuMDM4LTAuNTE4LDAuMjUtMC40MTIsMC41MjhjMC4xNjMsMC40MzIsMC4zMTYsMC44NjUsMC40NywxLjMwNyYjOTtjMC4zMzYsMC45OCwwLjY4MSwxLjk2OSwwLjk5NywyLjk2OGwwLjEwNSwwLjM0NmMxLjY2OC0xLjE0MywyLjk2My0yLjc5NSwzLjY0My00LjczNkwzMi42MjcsMjguMDJ6IE0yNS4zMTIsMTUuMzNsMC4wNDgsMC4zNzUmIzk7YzAuMTM0LDEuMDM3LDAuMjMsMi4wODUsMC4zMjYsMy4xMjJjMC4wMzgsMC40MTMsMC4wNzcsMC44MTcsMC4xMDUsMS4yM2MwLjAxOSwwLjMxNywwLjM3NCwwLjQ4LDAuNjMzLDAuMjk4JiM5O2MwLjMyNi0wLjI0LDAuNjYyLTAuNDgsMS4wMDctMC43MTFjMC44NjMtMC41ODYsMS43MTYtMS4xNzIsMi41OTgtMS43MzlsMC4zMjYtMC4yMDJDMjguOTg0LDE2LjQ1NCwyNy4yMzksMTUuNTk5LDI1LjMxMiwxNS4zM3ogTTI2LjYwNiwzMy42MmMtMC41NTYtMC44ODQtMS4wNzQtMS43OTYtMS41OTItMi42OTljLTAuMjMtMC4zOTQtMC40NTEtMC43ODgtMC42NjItMS4xOTFjLTAuMTUzLTAuMjc5LTAuNTQ3LTAuMjc5LTAuNywwJiM5O2MtMC4yMjEsMC40MTMtMC40NTEsMC44MTctMC42OSwxLjIxYy0wLjUyNywwLjkwMy0xLjA1NSwxLjgwNi0xLjYxMSwyLjY5bC0wLjI0LDAuMzg0YzAuODkyLDAuMjc5LDEuODQxLDAuNDIzLDIuODE5LDAuNDIzJiM5O2MxLjAwNywwLDEuOTg1LTAuMTU0LDIuODk2LTAuNDUyTDI2LjYwNiwzMy42MnogTTE5Ljg3NSwyNy40OTJjLTAuNDUxLDAuMDU4LTAuODkyLDAuMTI1LTEuMzQyLDAuMTczJiM5O2MtMS4wNDUsMC4xMjUtMi4wNzEsMC4yNS0zLjExNiwwLjM0NmwtMC41MTgsMC4wNDhjMC43LDEuOTYsMi4wMjMsMy42MzEsMy43Miw0Ljc2NWwwLjEzNC0wLjQwNCYjOTtjMC4zMjYtMC45OTksMC42NzEtMS45NzksMS4wMjYtMi45NjhjMC4xNjMtMC40OCwwLjMzNi0wLjk1MSwwLjUxOC0xLjQzMUMyMC40MTIsMjcuNzQxLDIwLjE3MiwyNy40NDQsMTkuODc1LDI3LjQ5MnogTTE5Ljg3NSwyNy40OTJjLTAuNDUxLDAuMDU4LTAuODkyLDAuMTI1LTEuMzQyLDAuMTczYy0xLjA0NSwwLjEyNS0yLjA3MSwwLjI1LTMuMTE2LDAuMzQ2bC0wLjUxOCwwLjA0OCYjOTtjMC43LDEuOTYsMi4wMjMsMy42MzEsMy43Miw0Ljc2NWwwLjEzNC0wLjQwNGMwLjMyNi0wLjk5OSwwLjY3MS0xLjk3OSwxLjAyNi0yLjk2OGMwLjE2My0wLjQ4LDAuMzM2LTAuOTUxLDAuNTE4LTEuNDMxJiM5O0MyMC40MTIsMjcuNzQxLDIwLjE3MiwyNy40NDQsMTkuODc1LDI3LjQ5MnogTTI2LjYwNiwzMy42MmMtMC41NTYtMC44ODQtMS4wNzQtMS43OTYtMS41OTItMi42OTkmIzk7Yy0wLjIzLTAuMzk0LTAuNDUxLTAuNzg4LTAuNjYyLTEuMTkxYy0wLjE1My0wLjI3OS0wLjU0Ny0wLjI3OS0wLjcsMGMtMC4yMjEsMC40MTMtMC40NTEsMC44MTctMC42OSwxLjIxJiM5O2MtMC41MjcsMC45MDMtMS4wNTUsMS44MDYtMS42MTEsMi42OWwtMC4yNCwwLjM4NGMwLjg5MiwwLjI3OSwxLjg0MSwwLjQyMywyLjgxOSwwLjQyM2MxLjAwNywwLDEuOTg1LTAuMTU0LDIuODk2LTAuNDUyJiM5O0wyNi42MDYsMzMuNjJ6IE0yNS4zMTIsMTUuMzNsMC4wNDgsMC4zNzVjMC4xMzQsMS4wMzcsMC4yMywyLjA4NSwwLjMyNiwzLjEyMmMwLjAzOCwwLjQxMywwLjA3NywwLjgxNywwLjEwNSwxLjIzJiM5O2MwLjAxOSwwLjMxNywwLjM3NCwwLjQ4LDAuNjMzLDAuMjk4YzAuMzI2LTAuMjQsMC42NjItMC40OCwxLjAwNy0wLjcxMWMwLjg2My0wLjU4NiwxLjcxNi0xLjE3MiwyLjU5OC0xLjczOWwwLjMyNi0wLjIwMiYjOTtDMjguOTg0LDE2LjQ1NCwyNy4yMzksMTUuNTk5LDI1LjMxMiwxNS4zM3ogTTMyLjYyNywyOC4wMmMtMS4wNDUtMC4wNjctMi4wODEtMC4xNjMtMy4xMjYtMC4yNTkmIzk7Yy0wLjQ1MS0wLjAzOC0wLjg5Mi0wLjA4Ni0xLjM0Mi0wLjEzNWMtMC4yODgtMC4wMzgtMC41MTgsMC4yNS0wLjQxMiwwLjUyOGMwLjE2MywwLjQzMiwwLjMxNiwwLjg2NSwwLjQ3LDEuMzA3JiM5O2MwLjMzNiwwLjk4LDAuNjgxLDEuOTY5LDAuOTk3LDIuOTY4bDAuMTA1LDAuMzQ2YzEuNjY4LTEuMTQzLDIuOTYzLTIuNzk1LDMuNjQzLTQuNzM2TDMyLjYyNywyOC4wMnogTTMyLjExOSwxOS44MzVsLTAuMjU5LDAuMjc5JiM5O2MtMC43MTksMC43NjktMS40NTcsMS41MDgtMi4xOTYsMi4yNDhjLTAuNDcsMC40OC0wLjk3OCwwLjk0MS0xLjQ2NywxLjQxMmMwLjY1MiwwLjE2MywxLjMwNCwwLjMzNiwxLjk1NiwwLjUyOCYjOTtjMS4wMDcsMC4yODgsMi4wMDQsMC41NjcsMy4wMDEsMC44OTNsMC4zNTUsMC4xMTVjMC4wMS0wLjE1NCwwLjAxLTAuMzE3LDAuMDEtMC40OEMzMy41MTksMjIuOTk2LDMzLjAxMSwyMS4yODYsMzIuMTE5LDE5LjgzNXogTTMyLjExOSwxOS44MzVsLTAuMjU5LDAuMjc5Yy0wLjcxOSwwLjc2OS0xLjQ1NywxLjUwOC0yLjE5NiwyLjI0OGMtMC40NywwLjQ4LTAuOTc4LDAuOTQxLTEuNDY3LDEuNDEyJiM5O2MwLjY1MiwwLjE2MywxLjMwNCwwLjMzNiwxLjk1NiwwLjUyOGMxLjAwNywwLjI4OCwyLjAwNCwwLjU2NywzLjAwMSwwLjg5M2wwLjM1NSwwLjExNWMwLjAxLTAuMTU0LDAuMDEtMC4zMTcsMC4wMS0wLjQ4JiM5O0MzMy41MTksMjIuOTk2LDMzLjAxMSwyMS4yODYsMzIuMTE5LDE5LjgzNXogTTMyLjYyNywyOC4wMmMtMS4wNDUtMC4wNjctMi4wODEtMC4xNjMtMy4xMjYtMC4yNTkmIzk7Yy0wLjQ1MS0wLjAzOC0wLjg5Mi0wLjA4Ni0xLjM0Mi0wLjEzNWMtMC4yODgtMC4wMzgtMC41MTgsMC4yNS0wLjQxMiwwLjUyOGMwLjE2MywwLjQzMiwwLjMxNiwwLjg2NSwwLjQ3LDEuMzA3JiM5O2MwLjMzNiwwLjk4LDAuNjgxLDEuOTY5LDAuOTk3LDIuOTY4bDAuMTA1LDAuMzQ2YzEuNjY4LTEuMTQzLDIuOTYzLTIuNzk1LDMuNjQzLTQuNzM2TDMyLjYyNywyOC4wMnogTTI1LjMxMiwxNS4zM2wwLjA0OCwwLjM3NSYjOTtjMC4xMzQsMS4wMzcsMC4yMywyLjA4NSwwLjMyNiwzLjEyMmMwLjAzOCwwLjQxMywwLjA3NywwLjgxNywwLjEwNSwxLjIzYzAuMDE5LDAuMzE3LDAuMzc0LDAuNDgsMC42MzMsMC4yOTgmIzk7YzAuMzI2LTAuMjQsMC42NjItMC40OCwxLjAwNy0wLjcxMWMwLjg2My0wLjU4NiwxLjcxNi0xLjE3MiwyLjU5OC0xLjczOWwwLjMyNi0wLjIwMkMyOC45ODQsMTYuNDU0LDI3LjIzOSwxNS41OTksMjUuMzEyLDE1LjMzeiBNMjYuNjA2LDMzLjYyYy0wLjU1Ni0wLjg4NC0xLjA3NC0xLjc5Ni0xLjU5Mi0yLjY5OWMtMC4yMy0wLjM5NC0wLjQ1MS0wLjc4OC0wLjY2Mi0xLjE5MWMtMC4xNTMtMC4yNzktMC41NDctMC4yNzktMC43LDAmIzk7Yy0wLjIyMSwwLjQxMy0wLjQ1MSwwLjgxNy0wLjY5LDEuMjFjLTAuNTI3LDAuOTAzLTEuMDU1LDEuODA2LTEuNjExLDIuNjlsLTAuMjQsMC4zODRjMC44OTIsMC4yNzksMS44NDEsMC40MjMsMi44MTksMC40MjMmIzk7YzEuMDA3LDAsMS45ODUtMC4xNTQsMi44OTYtMC40NTJMMjYuNjA2LDMzLjYyeiBNMTkuODc1LDI3LjQ5MmMtMC40NTEsMC4wNTgtMC44OTIsMC4xMjUtMS4zNDIsMC4xNzMmIzk7Yy0xLjA0NSwwLjEyNS0yLjA3MSwwLjI1LTMuMTE2LDAuMzQ2bC0wLjUxOCwwLjA0OGMwLjcsMS45NiwyLjAyMywzLjYzMSwzLjcyLDQuNzY1bDAuMTM0LTAuNDA0JiM5O2MwLjMyNi0wLjk5OSwwLjY3MS0xLjk3OSwxLjAyNi0yLjk2OGMwLjE2My0wLjQ4LDAuMzM2LTAuOTUxLDAuNTE4LTEuNDMxQzIwLjQxMiwyNy43NDEsMjAuMTcyLDI3LjQ0NCwxOS44NzUsMjcuNDkyeiBNMTkuMzM4LDIzLjExMWMtMC4zMjYtMC4yOTgtMC42NDItMC41OTYtMC45NTktMC45MTNjLTAuNzQ4LTAuNzQtMS40ODYtMS40Ny0yLjIxNS0yLjIyOWwtMC4zMDctMC4zMTcmIzk7Yy0wLjk1OSwxLjQ4OS0xLjUxNSwzLjI2Ni0xLjUxNSw1LjE3OGMwLDAuMTgzLDAuMDEsMC4zNTUsMC4wMSwwLjUyOGwwLjQ1MS0wLjE1NGMwLjk4OC0wLjM1NSwxLjk4NS0wLjY2MywyLjk3Mi0wLjk4OSYjOTtjMC40Ny0wLjE1NCwwLjk0LTAuMjg4LDEuNDA5LTAuNDMyQzE5LjQ4MiwyMy42OTcsMTkuNTY4LDIzLjMyMiwxOS4zMzgsMjMuMTExeiBNMTkuODc1LDI3LjQ5MiYjOTtjLTAuNDUxLDAuMDU4LTAuODkyLDAuMTI1LTEuMzQyLDAuMTczYy0xLjA0NSwwLjEyNS0yLjA3MSwwLjI1LTMuMTE2LDAuMzQ2bC0wLjUxOCwwLjA0OGMwLjcsMS45NiwyLjAyMywzLjYzMSwzLjcyLDQuNzY1JiM5O2wwLjEzNC0wLjQwNGMwLjMyNi0wLjk5OSwwLjY3MS0xLjk3OSwxLjAyNi0yLjk2OGMwLjE2My0wLjQ4LDAuMzM2LTAuOTUxLDAuNTE4LTEuNDMxQzIwLjQxMiwyNy43NDEsMjAuMTcyLDI3LjQ0NCwxOS44NzUsMjcuNDkyeiBNMjYuNjA2LDMzLjYyYy0wLjU1Ni0wLjg4NC0xLjA3NC0xLjc5Ni0xLjU5Mi0yLjY5OWMtMC4yMy0wLjM5NC0wLjQ1MS0wLjc4OC0wLjY2Mi0xLjE5MWMtMC4xNTMtMC4yNzktMC41NDctMC4yNzktMC43LDAmIzk7Yy0wLjIyMSwwLjQxMy0wLjQ1MSwwLjgxNy0wLjY5LDEuMjFjLTAuNTI3LDAuOTAzLTEuMDU1LDEuODA2LTEuNjExLDIuNjlsLTAuMjQsMC4zODRjMC44OTIsMC4yNzksMS44NDEsMC40MjMsMi44MTksMC40MjMmIzk7YzEuMDA3LDAsMS45ODUtMC4xNTQsMi44OTYtMC40NTJMMjYuNjA2LDMzLjYyeiBNMjUuMzEyLDE1LjMzbDAuMDQ4LDAuMzc1YzAuMTM0LDEuMDM3LDAuMjMsMi4wODUsMC4zMjYsMy4xMjImIzk7YzAuMDM4LDAuNDEzLDAuMDc3LDAuODE3LDAuMTA1LDEuMjNjMC4wMTksMC4zMTcsMC4zNzQsMC40OCwwLjYzMywwLjI5OGMwLjMyNi0wLjI0LDAuNjYyLTAuNDgsMS4wMDctMC43MTEmIzk7YzAuODYzLTAuNTg2LDEuNzE2LTEuMTcyLDIuNTk4LTEuNzM5bDAuMzI2LTAuMjAyQzI4Ljk4NCwxNi40NTQsMjcuMjM5LDE1LjU5OSwyNS4zMTIsMTUuMzN6IE0zMi42MjcsMjguMDImIzk7Yy0xLjA0NS0wLjA2Ny0yLjA4MS0wLjE2My0zLjEyNi0wLjI1OWMtMC40NTEtMC4wMzgtMC44OTItMC4wODYtMS4zNDItMC4xMzVjLTAuMjg4LTAuMDM4LTAuNTE4LDAuMjUtMC40MTIsMC41MjgmIzk7YzAuMTYzLDAuNDMyLDAuMzE2LDAuODY1LDAuNDcsMS4zMDdjMC4zMzYsMC45OCwwLjY4MSwxLjk2OSwwLjk5NywyLjk2OGwwLjEwNSwwLjM0NmMxLjY2OC0xLjE0MywyLjk2My0yLjc5NSwzLjY0My00LjczNiYjOTtMMzIuNjI3LDI4LjAyeiBNMzIuMTE5LDE5LjgzNWwtMC4yNTksMC4yNzljLTAuNzE5LDAuNzY5LTEuNDU3LDEuNTA4LTIuMTk2LDIuMjQ4Yy0wLjQ3LDAuNDgtMC45NzgsMC45NDEtMS40NjcsMS40MTImIzk7YzAuNjUyLDAuMTYzLDEuMzA0LDAuMzM2LDEuOTU2LDAuNTI4YzEuMDA3LDAuMjg4LDIuMDA0LDAuNTY3LDMuMDAxLDAuODkzbDAuMzU1LDAuMTE1YzAuMDEtMC4xNTQsMC4wMS0wLjMxNywwLjAxLTAuNDgmIzk7QzMzLjUxOSwyMi45OTYsMzMuMDExLDIxLjI4NiwzMi4xMTksMTkuODM1eiBNMzIuMTE5LDE5LjgzNWwtMC4yNTksMC4yNzljLTAuNzE5LDAuNzY5LTEuNDU3LDEuNTA4LTIuMTk2LDIuMjQ4JiM5O2MtMC40NywwLjQ4LTAuOTc4LDAuOTQxLTEuNDY3LDEuNDEyYzAuNjUyLDAuMTYzLDEuMzA0LDAuMzM2LDEuOTU2LDAuNTI4YzEuMDA3LDAuMjg4LDIuMDA0LDAuNTY3LDMuMDAxLDAuODkzbDAuMzU1LDAuMTE1JiM5O2MwLjAxLTAuMTU0LDAuMDEtMC4zMTcsMC4wMS0wLjQ4QzMzLjUxOSwyMi45OTYsMzMuMDExLDIxLjI4NiwzMi4xMTksMTkuODM1eiBNMjkuNTAxLDI3Ljc2MWMtMC40NTEtMC4wMzgtMC44OTItMC4wODYtMS4zNDItMC4xMzUmIzk7Yy0wLjI4OC0wLjAzOC0wLjUxOCwwLjI1LTAuNDEyLDAuNTI4YzAuMTYzLDAuNDMyLDAuMzE2LDAuODY1LDAuNDcsMS4zMDdjMC4zMzYsMC45OCwwLjY4MSwxLjk2OSwwLjk5NywyLjk2OGwwLjEwNSwwLjM0NiYjOTtjMS42NjgtMS4xNDMsMi45NjMtMi43OTUsMy42NDMtNC43MzZsLTAuMzM2LTAuMDE5QzMxLjU4MiwyNy45NTMsMzAuNTQ3LDI3Ljg1NywyOS41MDEsMjcuNzYxeiBNMzAuMzU1LDE3LjcwMyYjOTtjLTEuMzcxLTEuMjQ5LTMuMTE2LTIuMTA0LTUuMDQzLTIuMzczbDAuMDQ4LDAuMzc1YzAuMTM0LDEuMDM3LDAuMjMsMi4wODUsMC4zMjYsMy4xMjJjMC4wMzgsMC40MTMsMC4wNzcsMC44MTcsMC4xMDUsMS4yMyYjOTtjMC4wMTksMC4zMTcsMC4zNzQsMC40OCwwLjYzMywwLjI5OGMwLjMyNi0wLjI0LDAuNjYyLTAuNDgsMS4wMDctMC43MTFjMC44NjMtMC41ODYsMS43MTYtMS4xNzIsMi41OTgtMS43MzlMMzAuMzU1LDE3LjcwM3ogTTI1LjAxNCwzMC45MjFjLTAuMjMtMC4zOTQtMC40NTEtMC43ODgtMC42NjItMS4xOTFjLTAuMTUzLTAuMjc5LTAuNTQ3LTAuMjc5LTAuNywwYy0wLjIyMSwwLjQxMy0wLjQ1MSwwLjgxNy0wLjY5LDEuMjEmIzk7Yy0wLjUyNywwLjkwMy0xLjA1NSwxLjgwNi0xLjYxMSwyLjY5bC0wLjI0LDAuMzg0YzAuODkyLDAuMjc5LDEuODQxLDAuNDIzLDIuODE5LDAuNDIzYzEuMDA3LDAsMS45ODUtMC4xNTQsMi44OTYtMC40NTImIzk7bC0wLjIyMS0wLjM2NUMyNi4wNSwzMi43MzcsMjUuNTMyLDMxLjgyNCwyNS4wMTQsMzAuOTIxeiBNMTkuODc1LDI3LjQ5MmMtMC40NTEsMC4wNTgtMC44OTIsMC4xMjUtMS4zNDIsMC4xNzMmIzk7Yy0xLjA0NSwwLjEyNS0yLjA3MSwwLjI1LTMuMTE2LDAuMzQ2bC0wLjUxOCwwLjA0OGMwLjcsMS45NiwyLjAyMywzLjYzMSwzLjcyLDQuNzY1bDAuMTM0LTAuNDA0JiM5O2MwLjMyNi0wLjk5OSwwLjY3MS0xLjk3OSwxLjAyNi0yLjk2OGMwLjE2My0wLjQ4LDAuMzM2LTAuOTUxLDAuNTE4LTEuNDMxQzIwLjQxMiwyNy43NDEsMjAuMTcyLDI3LjQ0NCwxOS44NzUsMjcuNDkyeiBNMTkuMTg1LDIzLjc4M2MwLjI5Ny0wLjA4NiwwLjM4NC0wLjQ2MSwwLjE1My0wLjY3MmMtMC4zMjYtMC4yOTgtMC42NDItMC41OTYtMC45NTktMC45MTNjLTAuNzQ4LTAuNzQtMS40ODYtMS40Ny0yLjIxNS0yLjIyOSYjOTtsLTAuMzA3LTAuMzE3Yy0wLjk1OSwxLjQ4OS0xLjUxNSwzLjI2Ni0xLjUxNSw1LjE3OGMwLDAuMTgzLDAuMDEsMC4zNTUsMC4wMSwwLjUyOGwwLjQ1MS0wLjE1NCYjOTtjMC45ODgtMC4zNTUsMS45ODUtMC42NjMsMi45NzItMC45ODlDMTguMjQ1LDI0LjA2MiwxOC43MTUsMjMuOTI4LDE5LjE4NSwyMy43ODN6IE00NC43NjYsMjguMTc0bC0zLjY2My0xNi4xMiYjOTtjLTAuMTYzLTAuNzItMC42NDItMS4zMTYtMS4zMDQtMS42NDNMMjQuOTc2LDMuMjQ1Yy0wLjY2Mi0wLjMyNy0xLjQyOS0wLjMyNy0yLjA5LDBMOC4wNjMsMTAuNDExJiM5O2MtMC42NjIsMC4zMjctMS4xNDEsMC45MjItMS4zMDQsMS42NDNsLTMuNjYzLDE2LjEyYy0wLjE2MywwLjcyLDAuMDEsMS40NywwLjQ2LDIuMDM3bDEwLjI1OSwxMi45MyYjOTtjMC40NiwwLjU3NiwxLjE2LDAuOTEzLDEuODg5LDAuOTEzaDE2LjQ1M2MwLjcyOSwwLDEuNDI5LTAuMzM2LDEuODg5LTAuOTEzbDEwLjI1OS0xMi45MyYjOTtDNDQuNzU2LDI5LjY0Myw0NC45MjksMjguODk0LDQ0Ljc2NiwyOC4xNzR6IE0zOS42NDYsMjguODQ2Yy0wLjI4OCwwLjA2Ny0wLjU3NSwwLTAuODA1LTAuMTQ0Yy0wLjQ3LTAuMzE3LTAuOTY4LTAuNDktMS40NjctMC42MzQmIzk7Yy0wLjI0OS0wLjA2Ny0wLjUwOC0wLjEyNS0wLjc1Ny0wLjE2M2MtMC4yNDktMC4wNzctMC41MzcsMC0wLjgyNSwwLjEzNGMtMC4yODgsMC4xNjMtMC41NDcsMC4xMzUtMC44MTUsMC4xMTVoLTAuMDI5JiM5O2MtMC44MjUsMi43MzgtMi42MzcsNS4wNTMtNS4wMzQsNi41MjN2MC4wMWMwLjA3NywwLjI1LDAuMTYzLDAuNDksMC4wODYsMC44MTdjLTAuMDY3LDAuMzE3LTAuMDc3LDAuNjA1LDAuMDU4LDAuODM2JiM5O2MwLjEwNSwwLjIzMSwwLjIyMSwwLjQ3MSwwLjM0NSwwLjY5MmMwLjI1OSwwLjQ1MSwwLjU0NywwLjkwMywwLjk2OCwxLjI3OGMwLjQyMiwwLjM5NCwwLjQ1MSwxLjA0NywwLjA2NywxLjQ3OSYjOTtjLTAuMzkzLDAuNDIzLTEuMDQ1LDAuNDUxLTEuNDc3LDAuMDY3Yy0wLjIyMS0wLjIwMi0wLjMzNi0wLjQ3MS0wLjMzNi0wLjc0OWMtMC4wMTktMC41NjctMC4xNjMtMS4wNjYtMC4zMzYtMS41NjYmIzk7Yy0wLjA4Ni0wLjI0LTAuMTgyLTAuNDgtMC4yOTctMC43MmMtMC4wODYtMC4yNS0wLjMxNi0wLjQyMy0wLjU5NS0wLjU4NmMtMC4yNjgtMC4xNDQtMC40MDMtMC4zNDYtMC41MzctMC41NjcmIzk7Yy0xLjIyNywwLjQ1Mi0yLjU1LDAuNjkyLTMuOTMxLDAuNjkyYy0xLjM2MSwwLTIuNjY1LTAuMjQtMy44NzQtMC42NzJjLTAuMTE1LDAuMjExLTAuMjQ5LDAuNDAzLTAuNTE4LDAuNTQ4JiM5O2MtMC4yNzgsMC4xNTQtMC41MDgsMC4zMzYtMC41OTQsMC41ODZjLTAuMTE1LDAuMjMxLTAuMjIxLDAuNDcxLTAuMzA3LDAuNzExYy0wLjE3MywwLjUtMC4zMjYsMC45OTktMC4zMzYsMS41NjYmIzk7Yy0wLjAxOSwwLjU3Ni0wLjUwOCwxLjAyOC0xLjA4MywxLjAwOWMtMC41NzUtMC4wMTktMS4wMjYtMC40OTktMS4wMDctMS4wNzZjMC4wMS0wLjI5OCwwLjE0NC0wLjU1NywwLjM0NS0wLjc0JiM5O2MwLjQyMi0wLjM4NCwwLjcxLTAuODI2LDAuOTc4LTEuMjY4YzAuMTI1LTAuMjMxLDAuMjQtMC40NjEsMC4zNDUtMC43MDFjMC4xMzQtMC4yMjEsMC4xMjUtMC41MTksMC4wNjctMC44MzYmIzk7Yy0wLjA2Ny0wLjI5OCwwLTAuNTM4LDAuMDc3LTAuNzU5Yy0yLjQwNy0xLjQ1MS00LjI0OC0zLjc1Ni01LjA5MS02LjQ5NGMtMC4yMjEsMC4wMTktMC40MzEsMC4wMTktMC42ODEtMC4xMDYmIzk7Yy0wLjI5Ny0wLjEyNS0wLjU3NS0wLjIwMi0wLjgyNS0wLjExNWMtMC4yNTksMC4wNDgtMC41MDgsMC4xMTUtMC43NTcsMC4xOTJjLTAuNDk5LDAuMTYzLTAuOTg4LDAuMzQ2LTEuNDQ4LDAuNjcyJiM5O2MtMC40NywwLjMzNi0xLjEyMiwwLjIyMS0xLjQ1Ny0wLjI1Yy0wLjMyNi0wLjQ3MS0wLjIyMS0xLjEyNCwwLjI0OS0xLjQ1MWMwLjI0LTAuMTczLDAuNTM3LTAuMjMxLDAuODA1LTAuMTgzJiM5O2MwLjU0NywwLjExNSwxLjA3NCwwLjA3NywxLjU5MiwwLjAxYzAuMjU5LTAuMDI5LDAuNTE4LTAuMDc3LDAuNzY3LTAuMTQ0YzAuMjU5LTAuMDE5LDAuNDg5LTAuMjExLDAuNy0wLjQ1MSYjOTtjMC4xODItMC4yMTEsMC4zOTMtMC4yOTgsMC42MDQtMC4zNzVjLTAuMDM4LTAuMzk0LTAuMDU4LTAuNzk3LTAuMDU4LTEuMjAxYzAtMi40NTksMC43NjctNC43MzYsMi4wODEtNi42MDkmIzk7Yy0wLjE3My0wLjE3My0wLjMzNi0wLjM0Ni0wLjQwMy0wLjY1M2MtMC4wODYtMC4zMDctMC4yMDEtMC41NzYtMC40MjItMC43MmMtMC4yMDEtMC4xNzMtMC40MDMtMC4zMjctMC42MTQtMC40NzEmIzk7Yy0wLjQ0MS0wLjI4OC0wLjg5Mi0wLjU1Ny0xLjQyOS0wLjcyYy0wLjU1Ni0wLjE1NC0wLjg4Mi0wLjc0LTAuNzE5LTEuMjg3YzAuMTYzLTAuNTU3LDAuNzM4LTAuODc0LDEuMjk0LTAuNzImIzk7YzAuMjc4LDAuMDg2LDAuNTA4LDAuMjc5LDAuNjMzLDAuNTE5YzAuMjU5LDAuNSwwLjYxNCwwLjg5MywwLjk4OCwxLjI1OGMwLjE4MiwwLjE4MywwLjM4NCwwLjM1NSwwLjU4NSwwLjUwOSYjOTtjMC4xODIsMC4xOTIsMC40NywwLjI1LDAuNzg2LDAuMjY5YzAuMzM2LDAuMDEsMC41NDYsMC4xNTQsMC43NjcsMC4yOThsMC4wMSwwLjAxYzEuODAzLTEuNzQ4LDQuMTgtMi45MDEsNi44MTctMy4xNTEmIzk7YzAuMDI5LTAuMjU5LDAuMDQ4LTAuNTE5LDAuMjQ5LTAuNzc4YzAuMTkyLTAuMjU5LDAuMzI2LTAuNTE5LDAuMjk3LTAuNzc4YzAuMDEtMC4yNTksMC0wLjUxOS0wLjAxOS0wLjc4OCYjOTtjLTAuMDU4LTAuNTE5LTAuMTM0LTEuMDM4LTAuMzU1LTEuNTU2Yy0wLjIzLTAuNTI4LDAuMDE5LTEuMTQzLDAuNTQ3LTEuMzc0YzAuNTI3LTAuMjIxLDEuMTQxLDAuMDE5LDEuMzcxLDAuNTQ4JiM5O2MwLjExNSwwLjI3OSwwLjEwNSwwLjU3NiwwLDAuODI2Yy0wLjIyMSwwLjUxOS0wLjI5NywxLjAzNy0wLjM1NSwxLjU1NmMtMC4wMTksMC4yNjktMC4wMjksMC41MjgtMC4wMTksMC43ODgmIzk7Yy0wLjAyOSwwLjI1OSwwLjEwNSwwLjUxOSwwLjI5NywwLjc3OGMwLjIwMSwwLjI1OSwwLjIyMSwwLjUxOSwwLjI0OSwwLjc3OGMyLjcwNCwwLjI1OSw1LjEzOSwxLjQ2LDYuOTYxLDMuMjg1JiM5O2MwLjIyMS0wLjE0NCwwLjQzMS0wLjI5OCwwLjc2Ny0wLjMwN2MwLjMxNi0wLjAxOSwwLjYwNC0wLjA3NywwLjc4Ni0wLjI2OWMwLjIwMS0wLjE2MywwLjM5My0wLjMzNiwwLjU4NS0wLjUxOSYjOTtjMC4zNjQtMC4zNjUsMC43MTktMC43NTksMC45NzgtMS4yNThjMC4yNTktMC41MTksMC44OTItMC43MiwxLjQtMC40NTFjMC41MTgsMC4yNTksMC43MTksMC44OTMsMC40NTEsMS40MDMmIzk7Yy0wLjEzNCwwLjI2OS0wLjM2NCwwLjQ1Mi0wLjYzMywwLjUyOGMtMC41MzcsMC4xNTQtMC45ODgsMC40MzItMS40MTksMC43MmMtMC4yMTEsMC4xNTQtMC40MjIsMC4zMDctMC42MTQsMC40OCYjOTtjLTAuMjIxLDAuMTQ0LTAuMzM2LDAuNDEzLTAuNDIyLDAuNzJjLTAuMDY3LDAuMzI3LTAuMjQ5LDAuNTA5LTAuNDMxLDAuNzAxYzEuMjQ2LDEuODM1LDEuOTY2LDQuMDU0LDEuOTY2LDYuNDM2JiM5O2MwLDAuMzY1LTAuMDE5LDAuNzMtMC4wNDgsMS4wODZoMC4wMWMwLjI0OSwwLjA3NywwLjQ5OSwwLjE0NCwwLjcxOSwwLjQwM2MwLjIyMSwwLjIzMSwwLjQ1MSwwLjQwMywwLjcxLDAuNDIzJiM5O2MwLjI1OSwwLjA1OCwwLjUwOCwwLjA5NiwwLjc2NywwLjEyNWMwLjUyNywwLjA0OCwxLjA0NSwwLjA2NywxLjYwMS0wLjA1OGMwLjU2Ni0wLjEyNSwxLjEyMiwwLjIzMSwxLjI0NiwwLjc5NyYjOTtDNDAuNTY2LDI4LjE2NCw0MC4yMTEsMjguNzIxLDM5LjY0NiwyOC44NDZ6IE0zMS44NiwyMC4xMTRjLTAuNzE5LDAuNzY5LTEuNDU3LDEuNTA4LTIuMTk2LDIuMjQ4JiM5O2MtMC40NywwLjQ4LTAuOTc4LDAuOTQxLTEuNDY3LDEuNDEyYzAuNjUyLDAuMTYzLDEuMzA0LDAuMzM2LDEuOTU2LDAuNTI4YzEuMDA3LDAuMjg4LDIuMDA0LDAuNTY3LDMuMDAxLDAuODkzbDAuMzU1LDAuMTE1JiM5O2MwLjAxLTAuMTU0LDAuMDEtMC4zMTcsMC4wMS0wLjQ4YzAtMS44MzUtMC41MDgtMy41NDUtMS40LTQuOTk1TDMxLjg2LDIwLjExNHogTTI5LjUwMSwyNy43NjEmIzk7Yy0wLjQ1MS0wLjAzOC0wLjg5Mi0wLjA4Ni0xLjM0Mi0wLjEzNWMtMC4yODgtMC4wMzgtMC41MTgsMC4yNS0wLjQxMiwwLjUyOGMwLjE2MywwLjQzMiwwLjMxNiwwLjg2NSwwLjQ3LDEuMzA3JiM5O2MwLjMzNiwwLjk4LDAuNjgxLDEuOTY5LDAuOTk3LDIuOTY4bDAuMTA1LDAuMzQ2YzEuNjY4LTEuMTQzLDIuOTYzLTIuNzk1LDMuNjQzLTQuNzM2bC0wLjMzNi0wLjAxOSYjOTtDMzEuNTgyLDI3Ljk1MywzMC41NDcsMjcuODU3LDI5LjUwMSwyNy43NjF6IE0zMC4zNTUsMTcuNzAzYy0xLjM3MS0xLjI0OS0zLjExNi0yLjEwNC01LjA0My0yLjM3M2wwLjA0OCwwLjM3NSYjOTtjMC4xMzQsMS4wMzcsMC4yMywyLjA4NSwwLjMyNiwzLjEyMmMwLjAzOCwwLjQxMywwLjA3NywwLjgxNywwLjEwNSwxLjIzYzAuMDE5LDAuMzE3LDAuMzc0LDAuNDgsMC42MzMsMC4yOTgmIzk7YzAuMzI2LTAuMjQsMC42NjItMC40OCwxLjAwNy0wLjcxMWMwLjg2My0wLjU4NiwxLjcxNi0xLjE3MiwyLjU5OC0xLjczOUwzMC4zNTUsMTcuNzAzeiBNMjUuMDE0LDMwLjkyMSYjOTtjLTAuMjMtMC4zOTQtMC40NTEtMC43ODgtMC42NjItMS4xOTFjLTAuMTUzLTAuMjc5LTAuNTQ3LTAuMjc5LTAuNywwYy0wLjIyMSwwLjQxMy0wLjQ1MSwwLjgxNy0wLjY5LDEuMjEmIzk7Yy0wLjUyNywwLjkwMy0xLjA1NSwxLjgwNi0xLjYxMSwyLjY5bC0wLjI0LDAuMzg0YzAuODkyLDAuMjc5LDEuODQxLDAuNDIzLDIuODE5LDAuNDIzYzEuMDA3LDAsMS45ODUtMC4xNTQsMi44OTYtMC40NTImIzk7bC0wLjIyMS0wLjM2NUMyNi4wNSwzMi43MzcsMjUuNTMyLDMxLjgyNCwyNS4wMTQsMzAuOTIxeiBNMjIuMTc2LDE4LjgyN2MwLjA5Ni0xLjAzOCwwLjE5Mi0yLjA4NSwwLjMyNi0zLjEyMmwwLjA0OC0wLjM3NSYjOTtjLTEuODUsMC4yNTktMy41MjgsMS4wNTctNC44NzEsMi4yMjlsMC4yOTcsMC4xODNjMC44OTIsMC41NTcsMS43NTUsMS4xNDMsMi42MTgsMS43MjljMC40OTksMC4zMTcsMC45NjgsMC42NzIsMS40MzgsMS4wMDkmIzk7QzIyLjA3MSwxOS45MzEsMjIuMTE5LDE5LjM3NCwyMi4xNzYsMTguODI3eiBNMTkuODc1LDI3LjQ5MmMtMC40NTEsMC4wNTgtMC44OTIsMC4xMjUtMS4zNDIsMC4xNzMmIzk7Yy0xLjA0NSwwLjEyNS0yLjA3MSwwLjI1LTMuMTE2LDAuMzQ2bC0wLjUxOCwwLjA0OGMwLjcsMS45NiwyLjAyMywzLjYzMSwzLjcyLDQuNzY1bDAuMTM0LTAuNDA0JiM5O2MwLjMyNi0wLjk5OSwwLjY3MS0xLjk3OSwxLjAyNi0yLjk2OGMwLjE2My0wLjQ4LDAuMzM2LTAuOTUxLDAuNTE4LTEuNDMxQzIwLjQxMiwyNy43NDEsMjAuMTcyLDI3LjQ0NCwxOS44NzUsMjcuNDkyeiBNMTkuMTg1LDIzLjc4M2MwLjI5Ny0wLjA4NiwwLjM4NC0wLjQ2MSwwLjE1My0wLjY3MmMtMC4zMjYtMC4yOTgtMC42NDItMC41OTYtMC45NTktMC45MTNjLTAuNzQ4LTAuNzQtMS40ODYtMS40Ny0yLjIxNS0yLjIyOSYjOTtsLTAuMzA3LTAuMzE3Yy0wLjk1OSwxLjQ4OS0xLjUxNSwzLjI2Ni0xLjUxNSw1LjE3OGMwLDAuMTgzLDAuMDEsMC4zNTUsMC4wMSwwLjUyOGwwLjQ1MS0wLjE1NCYjOTtjMC45ODgtMC4zNTUsMS45ODUtMC42NjMsMi45NzItMC45ODlDMTguMjQ1LDI0LjA2MiwxOC43MTUsMjMuOTI4LDE5LjE4NSwyMy43ODN6IE0xOS4zMzgsMjMuMTExJiM5O2MtMC4zMjYtMC4yOTgtMC42NDItMC41OTYtMC45NTktMC45MTNjLTAuNzQ4LTAuNzQtMS40ODYtMS40Ny0yLjIxNS0yLjIyOWwtMC4zMDctMC4zMTdjLTAuOTU5LDEuNDg5LTEuNTE1LDMuMjY2LTEuNTE1LDUuMTc4JiM5O2MwLDAuMTgzLDAuMDEsMC4zNTUsMC4wMSwwLjUyOGwwLjQ1MS0wLjE1NGMwLjk4OC0wLjM1NSwxLjk4NS0wLjY2MywyLjk3Mi0wLjk4OWMwLjQ3LTAuMTU0LDAuOTQtMC4yODgsMS40MDktMC40MzImIzk7QzE5LjQ4MiwyMy42OTcsMTkuNTY4LDIzLjMyMiwxOS4zMzgsMjMuMTExeiBNMTkuODc1LDI3LjQ5MmMtMC40NTEsMC4wNTgtMC44OTIsMC4xMjUtMS4zNDIsMC4xNzMmIzk7Yy0xLjA0NSwwLjEyNS0yLjA3MSwwLjI1LTMuMTE2LDAuMzQ2bC0wLjUxOCwwLjA0OGMwLjcsMS45NiwyLjAyMywzLjYzMSwzLjcyLDQuNzY1bDAuMTM0LTAuNDA0JiM5O2MwLjMyNi0wLjk5OSwwLjY3MS0xLjk3OSwxLjAyNi0yLjk2OGMwLjE2My0wLjQ4LDAuMzM2LTAuOTUxLDAuNTE4LTEuNDMxQzIwLjQxMiwyNy43NDEsMjAuMTcyLDI3LjQ0NCwxOS44NzUsMjcuNDkyeiBNMjYuNjA2LDMzLjYyYy0wLjU1Ni0wLjg4NC0xLjA3NC0xLjc5Ni0xLjU5Mi0yLjY5OWMtMC4yMy0wLjM5NC0wLjQ1MS0wLjc4OC0wLjY2Mi0xLjE5MWMtMC4xNTMtMC4yNzktMC41NDctMC4yNzktMC43LDAmIzk7Yy0wLjIyMSwwLjQxMy0wLjQ1MSwwLjgxNy0wLjY5LDEuMjFjLTAuNTI3LDAuOTAzLTEuMDU1LDEuODA2LTEuNjExLDIuNjlsLTAuMjQsMC4zODRjMC44OTIsMC4yNzksMS44NDEsMC40MjMsMi44MTksMC40MjMmIzk7YzEuMDA3LDAsMS45ODUtMC4xNTQsMi44OTYtMC40NTJMMjYuNjA2LDMzLjYyeiBNMjUuMzEyLDE1LjMzbDAuMDQ4LDAuMzc1YzAuMTM0LDEuMDM3LDAuMjMsMi4wODUsMC4zMjYsMy4xMjImIzk7YzAuMDM4LDAuNDEzLDAuMDc3LDAuODE3LDAuMTA1LDEuMjNjMC4wMTksMC4zMTcsMC4zNzQsMC40OCwwLjYzMywwLjI5OGMwLjMyNi0wLjI0LDAuNjYyLTAuNDgsMS4wMDctMC43MTEmIzk7YzAuODYzLTAuNTg2LDEuNzE2LTEuMTcyLDIuNTk4LTEuNzM5bDAuMzI2LTAuMjAyQzI4Ljk4NCwxNi40NTQsMjcuMjM5LDE1LjU5OSwyNS4zMTIsMTUuMzN6IE0zMi42MjcsMjguMDImIzk7Yy0xLjA0NS0wLjA2Ny0yLjA4MS0wLjE2My0zLjEyNi0wLjI1OWMtMC40NTEtMC4wMzgtMC44OTItMC4wODYtMS4zNDItMC4xMzVjLTAuMjg4LTAuMDM4LTAuNTE4LDAuMjUtMC40MTIsMC41MjgmIzk7YzAuMTYzLDAuNDMyLDAuMzE2LDAuODY1LDAuNDcsMS4zMDdjMC4zMzYsMC45OCwwLjY4MSwxLjk2OSwwLjk5NywyLjk2OGwwLjEwNSwwLjM0NmMxLjY2OC0xLjE0MywyLjk2My0yLjc5NSwzLjY0My00LjczNiYjOTtMMzIuNjI3LDI4LjAyeiBNMzIuMTE5LDE5LjgzNWwtMC4yNTksMC4yNzljLTAuNzE5LDAuNzY5LTEuNDU3LDEuNTA4LTIuMTk2LDIuMjQ4Yy0wLjQ3LDAuNDgtMC45NzgsMC45NDEtMS40NjcsMS40MTImIzk7YzAuNjUyLDAuMTYzLDEuMzA0LDAuMzM2LDEuOTU2LDAuNTI4YzEuMDA3LDAuMjg4LDIuMDA0LDAuNTY3LDMuMDAxLDAuODkzbDAuMzU1LDAuMTE1YzAuMDEtMC4xNTQsMC4wMS0wLjMxNywwLjAxLTAuNDgmIzk7QzMzLjUxOSwyMi45OTYsMzMuMDExLDIxLjI4NiwzMi4xMTksMTkuODM1eiBNMzIuMTE5LDE5LjgzNWwtMC4yNTksMC4yNzljLTAuNzE5LDAuNzY5LTEuNDU3LDEuNTA4LTIuMTk2LDIuMjQ4JiM5O2MtMC40NywwLjQ4LTAuOTc4LDAuOTQxLTEuNDY3LDEuNDEyYzAuNjUyLDAuMTYzLDEuMzA0LDAuMzM2LDEuOTU2LDAuNTI4YzEuMDA3LDAuMjg4LDIuMDA0LDAuNTY3LDMuMDAxLDAuODkzbDAuMzU1LDAuMTE1JiM5O2MwLjAxLTAuMTU0LDAuMDEtMC4zMTcsMC4wMS0wLjQ4QzMzLjUxOSwyMi45OTYsMzMuMDExLDIxLjI4NiwzMi4xMTksMTkuODM1eiBNMzIuNjI3LDI4LjAyYy0xLjA0NS0wLjA2Ny0yLjA4MS0wLjE2My0zLjEyNi0wLjI1OSYjOTtjLTAuNDUxLTAuMDM4LTAuODkyLTAuMDg2LTEuMzQyLTAuMTM1Yy0wLjI4OC0wLjAzOC0wLjUxOCwwLjI1LTAuNDEyLDAuNTI4YzAuMTYzLDAuNDMyLDAuMzE2LDAuODY1LDAuNDcsMS4zMDcmIzk7YzAuMzM2LDAuOTgsMC42ODEsMS45NjksMC45OTcsMi45NjhsMC4xMDUsMC4zNDZjMS42NjgtMS4xNDMsMi45NjMtMi43OTUsMy42NDMtNC43MzZMMzIuNjI3LDI4LjAyeiBNMjUuMzEyLDE1LjMzbDAuMDQ4LDAuMzc1JiM5O2MwLjEzNCwxLjAzNywwLjIzLDIuMDg1LDAuMzI2LDMuMTIyYzAuMDM4LDAuNDEzLDAuMDc3LDAuODE3LDAuMTA1LDEuMjNjMC4wMTksMC4zMTcsMC4zNzQsMC40OCwwLjYzMywwLjI5OCYjOTtjMC4zMjYtMC4yNCwwLjY2Mi0wLjQ4LDEuMDA3LTAuNzExYzAuODYzLTAuNTg2LDEuNzE2LTEuMTcyLDIuNTk4LTEuNzM5bDAuMzI2LTAuMjAyQzI4Ljk4NCwxNi40NTQsMjcuMjM5LDE1LjU5OSwyNS4zMTIsMTUuMzN6IE0yNi42MDYsMzMuNjJjLTAuNTU2LTAuODg0LTEuMDc0LTEuNzk2LTEuNTkyLTIuNjk5Yy0wLjIzLTAuMzk0LTAuNDUxLTAuNzg4LTAuNjYyLTEuMTkxYy0wLjE1My0wLjI3OS0wLjU0Ny0wLjI3OS0wLjcsMCYjOTtjLTAuMjIxLDAuNDEzLTAuNDUxLDAuODE3LTAuNjksMS4yMWMtMC41MjcsMC45MDMtMS4wNTUsMS44MDYtMS42MTEsMi42OWwtMC4yNCwwLjM4NGMwLjg5MiwwLjI3OSwxLjg0MSwwLjQyMywyLjgxOSwwLjQyMyYjOTtjMS4wMDcsMCwxLjk4NS0wLjE1NCwyLjg5Ni0wLjQ1MkwyNi42MDYsMzMuNjJ6IE0xOS44NzUsMjcuNDkyYy0wLjQ1MSwwLjA1OC0wLjg5MiwwLjEyNS0xLjM0MiwwLjE3MyYjOTtjLTEuMDQ1LDAuMTI1LTIuMDcxLDAuMjUtMy4xMTYsMC4zNDZsLTAuNTE4LDAuMDQ4YzAuNywxLjk2LDIuMDIzLDMuNjMxLDMuNzIsNC43NjVsMC4xMzQtMC40MDQmIzk7YzAuMzI2LTAuOTk5LDAuNjcxLTEuOTc5LDEuMDI2LTIuOTY4YzAuMTYzLTAuNDgsMC4zMzYtMC45NTEsMC41MTgtMS40MzFDMjAuNDEyLDI3Ljc0MSwyMC4xNzIsMjcuNDQ0LDE5Ljg3NSwyNy40OTJ6IE0xOS4zMzgsMjMuMTExYy0wLjMyNi0wLjI5OC0wLjY0Mi0wLjU5Ni0wLjk1OS0wLjkxM2MtMC43NDgtMC43NC0xLjQ4Ni0xLjQ3LTIuMjE1LTIuMjI5bC0wLjMwNy0wLjMxNyYjOTtjLTAuOTU5LDEuNDg5LTEuNTE1LDMuMjY2LTEuNTE1LDUuMTc4YzAsMC4xODMsMC4wMSwwLjM1NSwwLjAxLDAuNTI4bDAuNDUxLTAuMTU0YzAuOTg4LTAuMzU1LDEuOTg1LTAuNjYzLDIuOTcyLTAuOTg5JiM5O2MwLjQ3LTAuMTU0LDAuOTQtMC4yODgsMS40MDktMC40MzJDMTkuNDgyLDIzLjY5NywxOS41NjgsMjMuMzIyLDE5LjMzOCwyMy4xMTF6IE0xOS44NzUsMjcuNDkyJiM5O2MtMC40NTEsMC4wNTgtMC44OTIsMC4xMjUtMS4zNDIsMC4xNzNjLTEuMDQ1LDAuMTI1LTIuMDcxLDAuMjUtMy4xMTYsMC4zNDZsLTAuNTE4LDAuMDQ4YzAuNywxLjk2LDIuMDIzLDMuNjMxLDMuNzIsNC43NjUmIzk7bDAuMTM0LTAuNDA0YzAuMzI2LTAuOTk5LDAuNjcxLTEuOTc5LDEuMDI2LTIuOTY4YzAuMTYzLTAuNDgsMC4zMzYtMC45NTEsMC41MTgtMS40MzFDMjAuNDEyLDI3Ljc0MSwyMC4xNzIsMjcuNDQ0LDE5Ljg3NSwyNy40OTJ6IE0yNi42MDYsMzMuNjJjLTAuNTU2LTAuODg0LTEuMDc0LTEuNzk2LTEuNTkyLTIuNjk5Yy0wLjIzLTAuMzk0LTAuNDUxLTAuNzg4LTAuNjYyLTEuMTkxYy0wLjE1My0wLjI3OS0wLjU0Ny0wLjI3OS0wLjcsMCYjOTtjLTAuMjIxLDAuNDEzLTAuNDUxLDAuODE3LTAuNjksMS4yMWMtMC41MjcsMC45MDMtMS4wNTUsMS44MDYtMS42MTEsMi42OWwtMC4yNCwwLjM4NGMwLjg5MiwwLjI3OSwxLjg0MSwwLjQyMywyLjgxOSwwLjQyMyYjOTtjMS4wMDcsMCwxLjk4NS0wLjE1NCwyLjg5Ni0wLjQ1MkwyNi42MDYsMzMuNjJ6IE0yNS4zMTIsMTUuMzNsMC4wNDgsMC4zNzVjMC4xMzQsMS4wMzcsMC4yMywyLjA4NSwwLjMyNiwzLjEyMiYjOTtjMC4wMzgsMC40MTMsMC4wNzcsMC44MTcsMC4xMDUsMS4yM2MwLjAxOSwwLjMxNywwLjM3NCwwLjQ4LDAuNjMzLDAuMjk4YzAuMzI2LTAuMjQsMC42NjItMC40OCwxLjAwNy0wLjcxMSYjOTtjMC44NjMtMC41ODYsMS43MTYtMS4xNzIsMi41OTgtMS43MzlsMC4zMjYtMC4yMDJDMjguOTg0LDE2LjQ1NCwyNy4yMzksMTUuNTk5LDI1LjMxMiwxNS4zM3ogTTMyLjYyNywyOC4wMiYjOTtjLTEuMDQ1LTAuMDY3LTIuMDgxLTAuMTYzLTMuMTI2LTAuMjU5Yy0wLjQ1MS0wLjAzOC0wLjg5Mi0wLjA4Ni0xLjM0Mi0wLjEzNWMtMC4yODgtMC4wMzgtMC41MTgsMC4yNS0wLjQxMiwwLjUyOCYjOTtjMC4xNjMsMC40MzIsMC4zMTYsMC44NjUsMC40NywxLjMwN2MwLjMzNiwwLjk4LDAuNjgxLDEuOTY5LDAuOTk3LDIuOTY4bDAuMTA1LDAuMzQ2YzEuNjY4LTEuMTQzLDIuOTYzLTIuNzk1LDMuNjQzLTQuNzM2JiM5O0wzMi42MjcsMjguMDJ6IE0zMi4xMTksMTkuODM1bC0wLjI1OSwwLjI3OWMtMC43MTksMC43NjktMS40NTcsMS41MDgtMi4xOTYsMi4yNDhjLTAuNDcsMC40OC0wLjk3OCwwLjk0MS0xLjQ2NywxLjQxMiYjOTtjMC42NTIsMC4xNjMsMS4zMDQsMC4zMzYsMS45NTYsMC41MjhjMS4wMDcsMC4yODgsMi4wMDQsMC41NjcsMy4wMDEsMC44OTNsMC4zNTUsMC4xMTVjMC4wMS0wLjE1NCwwLjAxLTAuMzE3LDAuMDEtMC40OCYjOTtDMzMuNTE5LDIyLjk5NiwzMy4wMTEsMjEuMjg2LDMyLjExOSwxOS44MzV6IE0zMi4xMTksMTkuODM1bC0wLjI1OSwwLjI3OWMtMC43MTksMC43NjktMS40NTcsMS41MDgtMi4xOTYsMi4yNDgmIzk7Yy0wLjQ3LDAuNDgtMC45NzgsMC45NDEtMS40NjcsMS40MTJjMC42NTIsMC4xNjMsMS4zMDQsMC4zMzYsMS45NTYsMC41MjhjMS4wMDcsMC4yODgsMi4wMDQsMC41NjcsMy4wMDEsMC44OTNsMC4zNTUsMC4xMTUmIzk7YzAuMDEtMC4xNTQsMC4wMS0wLjMxNywwLjAxLTAuNDhDMzMuNTE5LDIyLjk5NiwzMy4wMTEsMjEuMjg2LDMyLjExOSwxOS44MzV6IE0zMi42MjcsMjguMDJjLTEuMDQ1LTAuMDY3LTIuMDgxLTAuMTYzLTMuMTI2LTAuMjU5JiM5O2MtMC40NTEtMC4wMzgtMC44OTItMC4wODYtMS4zNDItMC4xMzVjLTAuMjg4LTAuMDM4LTAuNTE4LDAuMjUtMC40MTIsMC41MjhjMC4xNjMsMC40MzIsMC4zMTYsMC44NjUsMC40NywxLjMwNyYjOTtjMC4zMzYsMC45OCwwLjY4MSwxLjk2OSwwLjk5NywyLjk2OGwwLjEwNSwwLjM0NmMxLjY2OC0xLjE0MywyLjk2My0yLjc5NSwzLjY0My00LjczNkwzMi42MjcsMjguMDJ6IE0yNS4zMTIsMTUuMzNsMC4wNDgsMC4zNzUmIzk7YzAuMTM0LDEuMDM3LDAuMjMsMi4wODUsMC4zMjYsMy4xMjJjMC4wMzgsMC40MTMsMC4wNzcsMC44MTcsMC4xMDUsMS4yM2MwLjAxOSwwLjMxNywwLjM3NCwwLjQ4LDAuNjMzLDAuMjk4JiM5O2MwLjMyNi0wLjI0LDAuNjYyLTAuNDgsMS4wMDctMC43MTFjMC44NjMtMC41ODYsMS43MTYtMS4xNzIsMi41OTgtMS43MzlsMC4zMjYtMC4yMDJDMjguOTg0LDE2LjQ1NCwyNy4yMzksMTUuNTk5LDI1LjMxMiwxNS4zM3ogTTI2LjYwNiwzMy42MmMtMC41NTYtMC44ODQtMS4wNzQtMS43OTYtMS41OTItMi42OTljLTAuMjMtMC4zOTQtMC40NTEtMC43ODgtMC42NjItMS4xOTFjLTAuMTUzLTAuMjc5LTAuNTQ3LTAuMjc5LTAuNywwJiM5O2MtMC4yMjEsMC40MTMtMC40NTEsMC44MTctMC42OSwxLjIxYy0wLjUyNywwLjkwMy0xLjA1NSwxLjgwNi0xLjYxMSwyLjY5bC0wLjI0LDAuMzg0YzAuODkyLDAuMjc5LDEuODQxLDAuNDIzLDIuODE5LDAuNDIzJiM5O2MxLjAwNywwLDEuOTg1LTAuMTU0LDIuODk2LTAuNDUyTDI2LjYwNiwzMy42MnogTTE5Ljg3NSwyNy40OTJjLTAuNDUxLDAuMDU4LTAuODkyLDAuMTI1LTEuMzQyLDAuMTczJiM5O2MtMS4wNDUsMC4xMjUtMi4wNzEsMC4yNS0zLjExNiwwLjM0NmwtMC41MTgsMC4wNDhjMC43LDEuOTYsMi4wMjMsMy42MzEsMy43Miw0Ljc2NWwwLjEzNC0wLjQwNCYjOTtjMC4zMjYtMC45OTksMC42NzEtMS45NzksMS4wMjYtMi45NjhjMC4xNjMtMC40OCwwLjMzNi0wLjk1MSwwLjUxOC0xLjQzMUMyMC40MTIsMjcuNzQxLDIwLjE3MiwyNy40NDQsMTkuODc1LDI3LjQ5MnogTTI2LjYwNiwzMy42MmMtMC41NTYtMC44ODQtMS4wNzQtMS43OTYtMS41OTItMi42OTljLTAuMjMtMC4zOTQtMC40NTEtMC43ODgtMC42NjItMS4xOTFjLTAuMTUzLTAuMjc5LTAuNTQ3LTAuMjc5LTAuNywwJiM5O2MtMC4yMjEsMC40MTMtMC40NTEsMC44MTctMC42OSwxLjIxYy0wLjUyNywwLjkwMy0xLjA1NSwxLjgwNi0xLjYxMSwyLjY5bC0wLjI0LDAuMzg0YzAuODkyLDAuMjc5LDEuODQxLDAuNDIzLDIuODE5LDAuNDIzJiM5O2MxLjAwNywwLDEuOTg1LTAuMTU0LDIuODk2LTAuNDUyTDI2LjYwNiwzMy42MnogTTI1LjMxMiwxNS4zM2wwLjA0OCwwLjM3NWMwLjEzNCwxLjAzNywwLjIzLDIuMDg1LDAuMzI2LDMuMTIyJiM5O2MwLjAzOCwwLjQxMywwLjA3NywwLjgxNywwLjEwNSwxLjIzYzAuMDE5LDAuMzE3LDAuMzc0LDAuNDgsMC42MzMsMC4yOThjMC4zMjYtMC4yNCwwLjY2Mi0wLjQ4LDEuMDA3LTAuNzExJiM5O2MwLjg2My0wLjU4NiwxLjcxNi0xLjE3MiwyLjU5OC0xLjczOWwwLjMyNi0wLjIwMkMyOC45ODQsMTYuNDU0LDI3LjIzOSwxNS41OTksMjUuMzEyLDE1LjMzeiBNMzIuNjI3LDI4LjAyJiM5O2MtMS4wNDUtMC4wNjctMi4wODEtMC4xNjMtMy4xMjYtMC4yNTljLTAuNDUxLTAuMDM4LTAuODkyLTAuMDg2LTEuMzQyLTAuMTM1Yy0wLjI4OC0wLjAzOC0wLjUxOCwwLjI1LTAuNDEyLDAuNTI4JiM5O2MwLjE2MywwLjQzMiwwLjMxNiwwLjg2NSwwLjQ3LDEuMzA3YzAuMzM2LDAuOTgsMC42ODEsMS45NjksMC45OTcsMi45NjhsMC4xMDUsMC4zNDZjMS42NjgtMS4xNDMsMi45NjMtMi43OTUsMy42NDMtNC43MzYmIzk7TDMyLjYyNywyOC4wMnogTTMyLjExOSwxOS44MzVsLTAuMjU5LDAuMjc5Yy0wLjcxOSwwLjc2OS0xLjQ1NywxLjUwOC0yLjE5NiwyLjI0OGMtMC40NywwLjQ4LTAuOTc4LDAuOTQxLTEuNDY3LDEuNDEyJiM5O2MwLjY1MiwwLjE2MywxLjMwNCwwLjMzNiwxLjk1NiwwLjUyOGMxLjAwNywwLjI4OCwyLjAwNCwwLjU2NywzLjAwMSwwLjg5M2wwLjM1NSwwLjExNWMwLjAxLTAuMTU0LDAuMDEtMC4zMTcsMC4wMS0wLjQ4JiM5O0MzMy41MTksMjIuOTk2LDMzLjAxMSwyMS4yODYsMzIuMTE5LDE5LjgzNXogTTMyLjExOSwxOS44MzVsLTAuMjU5LDAuMjc5Yy0wLjcxOSwwLjc2OS0xLjQ1NywxLjUwOC0yLjE5NiwyLjI0OCYjOTtjLTAuNDcsMC40OC0wLjk3OCwwLjk0MS0xLjQ2NywxLjQxMmMwLjY1MiwwLjE2MywxLjMwNCwwLjMzNiwxLjk1NiwwLjUyOGMxLjAwNywwLjI4OCwyLjAwNCwwLjU2NywzLjAwMSwwLjg5M2wwLjM1NSwwLjExNSYjOTtjMC4wMS0wLjE1NCwwLjAxLTAuMzE3LDAuMDEtMC40OEMzMy41MTksMjIuOTk2LDMzLjAxMSwyMS4yODYsMzIuMTE5LDE5LjgzNXogTTMyLjYyNywyOC4wMmMtMS4wNDUtMC4wNjctMi4wODEtMC4xNjMtMy4xMjYtMC4yNTkmIzk7Yy0wLjQ1MS0wLjAzOC0wLjg5Mi0wLjA4Ni0xLjM0Mi0wLjEzNWMtMC4yODgtMC4wMzgtMC41MTgsMC4yNS0wLjQxMiwwLjUyOGMwLjE2MywwLjQzMiwwLjMxNiwwLjg2NSwwLjQ3LDEuMzA3JiM5O2MwLjMzNiwwLjk4LDAuNjgxLDEuOTY5LDAuOTk3LDIuOTY4bDAuMTA1LDAuMzQ2YzEuNjY4LTEuMTQzLDIuOTYzLTIuNzk1LDMuNjQzLTQuNzM2TDMyLjYyNywyOC4wMnogTTI1LjMxMiwxNS4zM2wwLjA0OCwwLjM3NSYjOTtjMC4xMzQsMS4wMzcsMC4yMywyLjA4NSwwLjMyNiwzLjEyMmMwLjAzOCwwLjQxMywwLjA3NywwLjgxNywwLjEwNSwxLjIzYzAuMDE5LDAuMzE3LDAuMzc0LDAuNDgsMC42MzMsMC4yOTgmIzk7YzAuMzI2LTAuMjQsMC42NjItMC40OCwxLjAwNy0wLjcxMWMwLjg2My0wLjU4NiwxLjcxNi0xLjE3MiwyLjU5OC0xLjczOWwwLjMyNi0wLjIwMkMyOC45ODQsMTYuNDU0LDI3LjIzOSwxNS41OTksMjUuMzEyLDE1LjMzeiBNMjYuNjA2LDMzLjYyYy0wLjU1Ni0wLjg4NC0xLjA3NC0xLjc5Ni0xLjU5Mi0yLjY5OWMtMC4yMy0wLjM5NC0wLjQ1MS0wLjc4OC0wLjY2Mi0xLjE5MWMtMC4xNTMtMC4yNzktMC41NDctMC4yNzktMC43LDAmIzk7Yy0wLjIyMSwwLjQxMy0wLjQ1MSwwLjgxNy0wLjY5LDEuMjFjLTAuNTI3LDAuOTAzLTEuMDU1LDEuODA2LTEuNjExLDIuNjlsLTAuMjQsMC4zODRjMC44OTIsMC4yNzksMS44NDEsMC40MjMsMi44MTksMC40MjMmIzk7YzEuMDA3LDAsMS45ODUtMC4xNTQsMi44OTYtMC40NTJMMjYuNjA2LDMzLjYyeiBNMjYuNjA2LDMzLjYyYy0wLjU1Ni0wLjg4NC0xLjA3NC0xLjc5Ni0xLjU5Mi0yLjY5OSYjOTtjLTAuMjMtMC4zOTQtMC40NTEtMC43ODgtMC42NjItMS4xOTFjLTAuMTUzLTAuMjc5LTAuNTQ3LTAuMjc5LTAuNywwYy0wLjIyMSwwLjQxMy0wLjQ1MSwwLjgxNy0wLjY5LDEuMjEmIzk7Yy0wLjUyNywwLjkwMy0xLjA1NSwxLjgwNi0xLjYxMSwyLjY5bC0wLjI0LDAuMzg0YzAuODkyLDAuMjc5LDEuODQxLDAuNDIzLDIuODE5LDAuNDIzYzEuMDA3LDAsMS45ODUtMC4xNTQsMi44OTYtMC40NTImIzk7TDI2LjYwNiwzMy42MnogTTI1LjMxMiwxNS4zM2wwLjA0OCwwLjM3NWMwLjEzNCwxLjAzNywwLjIzLDIuMDg1LDAuMzI2LDMuMTIyYzAuMDM4LDAuNDEzLDAuMDc3LDAuODE3LDAuMTA1LDEuMjMmIzk7YzAuMDE5LDAuMzE3LDAuMzc0LDAuNDgsMC42MzMsMC4yOThjMC4zMjYtMC4yNCwwLjY2Mi0wLjQ4LDEuMDA3LTAuNzExYzAuODYzLTAuNTg2LDEuNzE2LTEuMTcyLDIuNTk4LTEuNzM5bDAuMzI2LTAuMjAyJiM5O0MyOC45ODQsMTYuNDU0LDI3LjIzOSwxNS41OTksMjUuMzEyLDE1LjMzeiBNMzIuNjI3LDI4LjAyYy0xLjA0NS0wLjA2Ny0yLjA4MS0wLjE2My0zLjEyNi0wLjI1OSYjOTtjLTAuNDUxLTAuMDM4LTAuODkyLTAuMDg2LTEuMzQyLTAuMTM1Yy0wLjI4OC0wLjAzOC0wLjUxOCwwLjI1LTAuNDEyLDAuNTI4YzAuMTYzLDAuNDMyLDAuMzE2LDAuODY1LDAuNDcsMS4zMDcmIzk7YzAuMzM2LDAuOTgsMC42ODEsMS45NjksMC45OTcsMi45NjhsMC4xMDUsMC4zNDZjMS42NjgtMS4xNDMsMi45NjMtMi43OTUsMy42NDMtNC43MzZMMzIuNjI3LDI4LjAyeiBNMzIuMTE5LDE5LjgzNWwtMC4yNTksMC4yNzkmIzk7Yy0wLjcxOSwwLjc2OS0xLjQ1NywxLjUwOC0yLjE5NiwyLjI0OGMtMC40NywwLjQ4LTAuOTc4LDAuOTQxLTEuNDY3LDEuNDEyYzAuNjUyLDAuMTYzLDEuMzA0LDAuMzM2LDEuOTU2LDAuNTI4JiM5O2MxLjAwNywwLjI4OCwyLjAwNCwwLjU2NywzLjAwMSwwLjg5M2wwLjM1NSwwLjExNWMwLjAxLTAuMTU0LDAuMDEtMC4zMTcsMC4wMS0wLjQ4QzMzLjUxOSwyMi45OTYsMzMuMDExLDIxLjI4NiwzMi4xMTksMTkuODM1eiBNMzIuMTE5LDE5LjgzNWwtMC4yNTksMC4yNzljLTAuNzE5LDAuNzY5LTEuNDU3LDEuNTA4LTIuMTk2LDIuMjQ4Yy0wLjQ3LDAuNDgtMC45NzgsMC45NDEtMS40NjcsMS40MTImIzk7YzAuNjUyLDAuMTYzLDEuMzA0LDAuMzM2LDEuOTU2LDAuNTI4YzEuMDA3LDAuMjg4LDIuMDA0LDAuNTY3LDMuMDAxLDAuODkzbDAuMzU1LDAuMTE1YzAuMDEtMC4xNTQsMC4wMS0wLjMxNywwLjAxLTAuNDgmIzk7QzMzLjUxOSwyMi45OTYsMzMuMDExLDIxLjI4NiwzMi4xMTksMTkuODM1eiBNMzIuNjI3LDI4LjAyYy0xLjA0NS0wLjA2Ny0yLjA4MS0wLjE2My0zLjEyNi0wLjI1OSYjOTtjLTAuNDUxLTAuMDM4LTAuODkyLTAuMDg2LTEuMzQyLTAuMTM1Yy0wLjI4OC0wLjAzOC0wLjUxOCwwLjI1LTAuNDEyLDAuNTI4YzAuMTYzLDAuNDMyLDAuMzE2LDAuODY1LDAuNDcsMS4zMDcmIzk7YzAuMzM2LDAuOTgsMC42ODEsMS45NjksMC45OTcsMi45NjhsMC4xMDUsMC4zNDZjMS42NjgtMS4xNDMsMi45NjMtMi43OTUsMy42NDMtNC43MzZMMzIuNjI3LDI4LjAyeiBNMjUuMzEyLDE1LjMzbDAuMDQ4LDAuMzc1JiM5O2MwLjEzNCwxLjAzNywwLjIzLDIuMDg1LDAuMzI2LDMuMTIyYzAuMDM4LDAuNDEzLDAuMDc3LDAuODE3LDAuMTA1LDEuMjNjMC4wMTksMC4zMTcsMC4zNzQsMC40OCwwLjYzMywwLjI5OCYjOTtjMC4zMjYtMC4yNCwwLjY2Mi0wLjQ4LDEuMDA3LTAuNzExYzAuODYzLTAuNTg2LDEuNzE2LTEuMTcyLDIuNTk4LTEuNzM5bDAuMzI2LTAuMjAyQzI4Ljk4NCwxNi40NTQsMjcuMjM5LDE1LjU5OSwyNS4zMTIsMTUuMzN6IE0yNi42MDYsMzMuNjJjLTAuNTU2LTAuODg0LTEuMDc0LTEuNzk2LTEuNTkyLTIuNjk5Yy0wLjIzLTAuMzk0LTAuNDUxLTAuNzg4LTAuNjYyLTEuMTkxYy0wLjE1My0wLjI3OS0wLjU0Ny0wLjI3OS0wLjcsMCYjOTtjLTAuMjIxLDAuNDEzLTAuNDUxLDAuODE3LTAuNjksMS4yMWMtMC41MjcsMC45MDMtMS4wNTUsMS44MDYtMS42MTEsMi42OWwtMC4yNCwwLjM4NGMwLjg5MiwwLjI3OSwxLjg0MSwwLjQyMywyLjgxOSwwLjQyMyYjOTtjMS4wMDcsMCwxLjk4NS0wLjE1NCwyLjg5Ni0wLjQ1MkwyNi42MDYsMzMuNjJ6IE0yNS4zMTIsMTUuMzNsMC4wNDgsMC4zNzVjMC4xMzQsMS4wMzcsMC4yMywyLjA4NSwwLjMyNiwzLjEyMiYjOTtjMC4wMzgsMC40MTMsMC4wNzcsMC44MTcsMC4xMDUsMS4yM2MwLjAxOSwwLjMxNywwLjM3NCwwLjQ4LDAuNjMzLDAuMjk4YzAuMzI2LTAuMjQsMC42NjItMC40OCwxLjAwNy0wLjcxMSYjOTtjMC44NjMtMC41ODYsMS43MTYtMS4xNzIsMi41OTgtMS43MzlsMC4zMjYtMC4yMDJDMjguOTg0LDE2LjQ1NCwyNy4yMzksMTUuNTk5LDI1LjMxMiwxNS4zM3ogTTMyLjYyNywyOC4wMiYjOTtjLTEuMDQ1LTAuMDY3LTIuMDgxLTAuMTYzLTMuMTI2LTAuMjU5Yy0wLjQ1MS0wLjAzOC0wLjg5Mi0wLjA4Ni0xLjM0Mi0wLjEzNWMtMC4yODgtMC4wMzgtMC41MTgsMC4yNS0wLjQxMiwwLjUyOCYjOTtjMC4xNjMsMC40MzIsMC4zMTYsMC44NjUsMC40NywxLjMwN2MwLjMzNiwwLjk4LDAuNjgxLDEuOTY5LDAuOTk3LDIuOTY4bDAuMTA1LDAuMzQ2YzEuNjY4LTEuMTQzLDIuOTYzLTIuNzk1LDMuNjQzLTQuNzM2JiM5O0wzMi42MjcsMjguMDJ6IE0zMi4xMTksMTkuODM1bC0wLjI1OSwwLjI3OWMtMC43MTksMC43NjktMS40NTcsMS41MDgtMi4xOTYsMi4yNDhjLTAuNDcsMC40OC0wLjk3OCwwLjk0MS0xLjQ2NywxLjQxMiYjOTtjMC42NTIsMC4xNjMsMS4zMDQsMC4zMzYsMS45NTYsMC41MjhjMS4wMDcsMC4yODgsMi4wMDQsMC41NjcsMy4wMDEsMC44OTNsMC4zNTUsMC4xMTVjMC4wMS0wLjE1NCwwLjAxLTAuMzE3LDAuMDEtMC40OCYjOTtDMzMuNTE5LDIyLjk5NiwzMy4wMTEsMjEuMjg2LDMyLjExOSwxOS44MzV6IE0zMi4xMTksMTkuODM1bC0wLjI1OSwwLjI3OWMtMC43MTksMC43NjktMS40NTcsMS41MDgtMi4xOTYsMi4yNDgmIzk7Yy0wLjQ3LDAuNDgtMC45NzgsMC45NDEtMS40NjcsMS40MTJjMC42NTIsMC4xNjMsMS4zMDQsMC4zMzYsMS45NTYsMC41MjhjMS4wMDcsMC4yODgsMi4wMDQsMC41NjcsMy4wMDEsMC44OTNsMC4zNTUsMC4xMTUmIzk7YzAuMDEtMC4xNTQsMC4wMS0wLjMxNywwLjAxLTAuNDhDMzMuNTE5LDIyLjk5NiwzMy4wMTEsMjEuMjg2LDMyLjExOSwxOS44MzV6IE0zMi42MjcsMjguMDJjLTEuMDQ1LTAuMDY3LTIuMDgxLTAuMTYzLTMuMTI2LTAuMjU5JiM5O2MtMC40NTEtMC4wMzgtMC44OTItMC4wODYtMS4zNDItMC4xMzVjLTAuMjg4LTAuMDM4LTAuNTE4LDAuMjUtMC40MTIsMC41MjhjMC4xNjMsMC40MzIsMC4zMTYsMC44NjUsMC40NywxLjMwNyYjOTtjMC4zMzYsMC45OCwwLjY4MSwxLjk2OSwwLjk5NywyLjk2OGwwLjEwNSwwLjM0NmMxLjY2OC0xLjE0MywyLjk2My0yLjc5NSwzLjY0My00LjczNkwzMi42MjcsMjguMDJ6IE0yNS4zMTIsMTUuMzNsMC4wNDgsMC4zNzUmIzk7YzAuMTM0LDEuMDM3LDAuMjMsMi4wODUsMC4zMjYsMy4xMjJjMC4wMzgsMC40MTMsMC4wNzcsMC44MTcsMC4xMDUsMS4yM2MwLjAxOSwwLjMxNywwLjM3NCwwLjQ4LDAuNjMzLDAuMjk4JiM5O2MwLjMyNi0wLjI0LDAuNjYyLTAuNDgsMS4wMDctMC43MTFjMC44NjMtMC41ODYsMS43MTYtMS4xNzIsMi41OTgtMS43MzlsMC4zMjYtMC4yMDJDMjguOTg0LDE2LjQ1NCwyNy4yMzksMTUuNTk5LDI1LjMxMiwxNS4zM3ogTTI1LjMxMiwxNS4zM2wwLjA0OCwwLjM3NWMwLjEzNCwxLjAzNywwLjIzLDIuMDg1LDAuMzI2LDMuMTIyYzAuMDM4LDAuNDEzLDAuMDc3LDAuODE3LDAuMTA1LDEuMjMmIzk7YzAuMDE5LDAuMzE3LDAuMzc0LDAuNDgsMC42MzMsMC4yOThjMC4zMjYtMC4yNCwwLjY2Mi0wLjQ4LDEuMDA3LTAuNzExYzAuODYzLTAuNTg2LDEuNzE2LTEuMTcyLDIuNTk4LTEuNzM5bDAuMzI2LTAuMjAyJiM5O0MyOC45ODQsMTYuNDU0LDI3LjIzOSwxNS41OTksMjUuMzEyLDE1LjMzeiBNMzIuMTE5LDE5LjgzNWwtMC4yNTksMC4yNzljLTAuNzE5LDAuNzY5LTEuNDU3LDEuNTA4LTIuMTk2LDIuMjQ4JiM5O2MtMC40NywwLjQ4LTAuOTc4LDAuOTQxLTEuNDY3LDEuNDEyYzAuNjUyLDAuMTYzLDEuMzA0LDAuMzM2LDEuOTU2LDAuNTI4YzEuMDA3LDAuMjg4LDIuMDA0LDAuNTY3LDMuMDAxLDAuODkzbDAuMzU1LDAuMTE1JiM5O2MwLjAxLTAuMTU0LDAuMDEtMC4zMTcsMC4wMS0wLjQ4QzMzLjUxOSwyMi45OTYsMzMuMDExLDIxLjI4NiwzMi4xMTksMTkuODM1eiBNMzIuMTE5LDE5LjgzNWwtMC4yNTksMC4yNzkmIzk7Yy0wLjcxOSwwLjc2OS0xLjQ1NywxLjUwOC0yLjE5NiwyLjI0OGMtMC40NywwLjQ4LTAuOTc4LDAuOTQxLTEuNDY3LDEuNDEyYzAuNjUyLDAuMTYzLDEuMzA0LDAuMzM2LDEuOTU2LDAuNTI4JiM5O2MxLjAwNywwLjI4OCwyLjAwNCwwLjU2NywzLjAwMSwwLjg5M2wwLjM1NSwwLjExNWMwLjAxLTAuMTU0LDAuMDEtMC4zMTcsMC4wMS0wLjQ4QzMzLjUxOSwyMi45OTYsMzMuMDExLDIxLjI4NiwzMi4xMTksMTkuODM1eiBNMjUuMzEyLDE1LjMzbDAuMDQ4LDAuMzc1YzAuMTM0LDEuMDM3LDAuMjMsMi4wODUsMC4zMjYsMy4xMjJjMC4wMzgsMC40MTMsMC4wNzcsMC44MTcsMC4xMDUsMS4yMyYjOTtjMC4wMTksMC4zMTcsMC4zNzQsMC40OCwwLjYzMywwLjI5OGMwLjMyNi0wLjI0LDAuNjYyLTAuNDgsMS4wMDctMC43MTFjMC44NjMtMC41ODYsMS43MTYtMS4xNzIsMi41OTgtMS43MzlsMC4zMjYtMC4yMDImIzk7QzI4Ljk4NCwxNi40NTQsMjcuMjM5LDE1LjU5OSwyNS4zMTIsMTUuMzN6IE0yNS4zMTIsMTUuMzNsMC4wNDgsMC4zNzVjMC4xMzQsMS4wMzcsMC4yMywyLjA4NSwwLjMyNiwzLjEyMiYjOTtjMC4wMzgsMC40MTMsMC4wNzcsMC44MTcsMC4xMDUsMS4yM2MwLjAxOSwwLjMxNywwLjM3NCwwLjQ4LDAuNjMzLDAuMjk4YzAuMzI2LTAuMjQsMC42NjItMC40OCwxLjAwNy0wLjcxMSYjOTtjMC44NjMtMC41ODYsMS43MTYtMS4xNzIsMi41OTgtMS43MzlsMC4zMjYtMC4yMDJDMjguOTg0LDE2LjQ1NCwyNy4yMzksMTUuNTk5LDI1LjMxMiwxNS4zM3ogTTMyLjExOSwxOS44MzVsLTAuMjU5LDAuMjc5JiM5O2MtMC43MTksMC43NjktMS40NTcsMS41MDgtMi4xOTYsMi4yNDhjLTAuNDcsMC40OC0wLjk3OCwwLjk0MS0xLjQ2NywxLjQxMmMwLjY1MiwwLjE2MywxLjMwNCwwLjMzNiwxLjk1NiwwLjUyOCYjOTtjMS4wMDcsMC4yODgsMi4wMDQsMC41NjcsMy4wMDEsMC44OTNsMC4zNTUsMC4xMTVjMC4wMS0wLjE1NCwwLjAxLTAuMzE3LDAuMDEtMC40OEMzMy41MTksMjIuOTk2LDMzLjAxMSwyMS4yODYsMzIuMTE5LDE5LjgzNXogTTMyLjExOSwxOS44MzVsLTAuMjU5LDAuMjc5Yy0wLjcxOSwwLjc2OS0xLjQ1NywxLjUwOC0yLjE5NiwyLjI0OGMtMC40NywwLjQ4LTAuOTc4LDAuOTQxLTEuNDY3LDEuNDEyJiM5O2MwLjY1MiwwLjE2MywxLjMwNCwwLjMzNiwxLjk1NiwwLjUyOGMxLjAwNywwLjI4OCwyLjAwNCwwLjU2NywzLjAwMSwwLjg5M2wwLjM1NSwwLjExNWMwLjAxLTAuMTU0LDAuMDEtMC4zMTcsMC4wMS0wLjQ4JiM5O0MzMy41MTksMjIuOTk2LDMzLjAxMSwyMS4yODYsMzIuMTE5LDE5LjgzNXogTTI1LjMxMiwxNS4zM2wwLjA0OCwwLjM3NWMwLjEzNCwxLjAzNywwLjIzLDIuMDg1LDAuMzI2LDMuMTIyJiM5O2MwLjAzOCwwLjQxMywwLjA3NywwLjgxNywwLjEwNSwxLjIzYzAuMDE5LDAuMzE3LDAuMzc0LDAuNDgsMC42MzMsMC4yOThjMC4zMjYtMC4yNCwwLjY2Mi0wLjQ4LDEuMDA3LTAuNzExJiM5O2MwLjg2My0wLjU4NiwxLjcxNi0xLjE3MiwyLjU5OC0xLjczOWwwLjMyNi0wLjIwMkMyOC45ODQsMTYuNDU0LDI3LjIzOSwxNS41OTksMjUuMzEyLDE1LjMzeiBNMjUuMzEyLDE1LjMzbDAuMDQ4LDAuMzc1JiM5O2MwLjEzNCwxLjAzNywwLjIzLDIuMDg1LDAuMzI2LDMuMTIyYzAuMDM4LDAuNDEzLDAuMDc3LDAuODE3LDAuMTA1LDEuMjNjMC4wMTksMC4zMTcsMC4zNzQsMC40OCwwLjYzMywwLjI5OCYjOTtjMC4zMjYtMC4yNCwwLjY2Mi0wLjQ4LDEuMDA3LTAuNzExYzAuODYzLTAuNTg2LDEuNzE2LTEuMTcyLDIuNTk4LTEuNzM5bDAuMzI2LTAuMjAyQzI4Ljk4NCwxNi40NTQsMjcuMjM5LDE1LjU5OSwyNS4zMTIsMTUuMzN6IE0yNS4zMTIsMTUuMzNsMC4wNDgsMC4zNzVjMC4xMzQsMS4wMzcsMC4yMywyLjA4NSwwLjMyNiwzLjEyMmMwLjAzOCwwLjQxMywwLjA3NywwLjgxNywwLjEwNSwxLjIzJiM5O2MwLjAxOSwwLjMxNywwLjM3NCwwLjQ4LDAuNjMzLDAuMjk4YzAuMzI2LTAuMjQsMC42NjItMC40OCwxLjAwNy0wLjcxMWMwLjg2My0wLjU4NiwxLjcxNi0xLjE3MiwyLjU5OC0xLjczOWwwLjMyNi0wLjIwMiYjOTtDMjguOTg0LDE2LjQ1NCwyNy4yMzksMTUuNTk5LDI1LjMxMiwxNS4zM3oiIGZpbGw9IiMwMjc3YmQiLz48cGF0aCBkPSJNMTIuOTMzLDI4LjIzMWMtMC4yMjEsMC4wMTktMC40MzEsMC4wMTktMC42ODEtMC4xMDZjLTAuMjk3LTAuMTI1LTAuNTc1LTAuMjAyLTAuODI1LTAuMTE1JiM5O2MtMC4yNTksMC4wNDgtMC41MDgsMC4xMTUtMC43NTcsMC4xOTJjLTAuNDk5LDAuMTYzLTAuOTg4LDAuMzQ2LTEuNDQ4LDAuNjcyYy0wLjQ3LDAuMzM2LTEuMTIyLDAuMjIxLTEuNDU3LTAuMjUmIzk7Yy0wLjMyNi0wLjQ3MS0wLjIyMS0xLjEyNCwwLjI0OS0xLjQ1MWMwLjI0LTAuMTczLDAuNTM3LTAuMjMxLDAuODA1LTAuMTgzYzAuNTQ3LDAuMTE1LDEuMDc0LDAuMDc3LDEuNTkyLDAuMDEmIzk7YzAuMjU5LTAuMDI5LDAuNTE4LTAuMDc3LDAuNzY3LTAuMTQ0YzAuMjU5LTAuMDE5LDAuNDg5LTAuMjExLDAuNy0wLjQ1MWMwLjE4Mi0wLjIxMSwwLjM5My0wLjI5OCwwLjYwNC0wLjM3NSYjOTtDMTIuNTY5LDI2Ljc4MSwxMi43MTMsMjcuNTIsMTIuOTMzLDI4LjIzMXoiIGZpbGw9Im5vbmUiLz48cGF0aCBkPSJNMjAuMDU3LDM1LjY4NmMtMC4xMTUsMC4yMTEtMC4yNDksMC40MDMtMC41MTgsMC41NDhjLTAuMjc4LDAuMTU0LTAuNTA4LDAuMzM2LTAuNTk0LDAuNTg2JiM5O2MtMC4xMTUsMC4yMzEtMC4yMjEsMC40NzEtMC4zMDcsMC43MTFjLTAuMTczLDAuNS0wLjMyNiwwLjk5OS0wLjMzNiwxLjU2NmMtMC4wMTksMC41NzYtMC41MDgsMS4wMjgtMS4wODMsMS4wMDkmIzk7Yy0wLjU3NS0wLjAxOS0xLjAyNi0wLjQ5OS0xLjAwNy0xLjA3NmMwLjAxLTAuMjk4LDAuMTQ0LTAuNTU3LDAuMzQ1LTAuNzRjMC40MjItMC4zODQsMC43MS0wLjgyNiwwLjk3OC0xLjI2OCYjOTtjMC4xMjUtMC4yMzEsMC4yNC0wLjQ2MSwwLjM0NS0wLjcwMWMwLjEzNC0wLjIyMSwwLjEyNS0wLjUxOSwwLjA2Ny0wLjgzNmMtMC4wNjctMC4yOTgsMC0wLjUzOCwwLjA3Ny0wLjc1OSYjOTtDMTguNjY3LDM1LjExLDE5LjM0OCwzNS40MzYsMjAuMDU3LDM1LjY4NnoiIGZpbGw9Im5vbmUiLz48cGF0aCBkPSJNMzEuNDM4LDM5Ljc4OGMtMC4zOTMsMC40MjMtMS4wNDUsMC40NTEtMS40NzcsMC4wNjdjLTAuMjIxLTAuMjAyLTAuMzM2LTAuNDcxLTAuMzM2LTAuNzQ5JiM5O2MtMC4wMTktMC41NjctMC4xNjMtMS4wNjYtMC4zMzYtMS41NjZjLTAuMDg2LTAuMjQtMC4xODItMC40OC0wLjI5Ny0wLjcyYy0wLjA4Ni0wLjI1LTAuMzE2LTAuNDIzLTAuNTk1LTAuNTg2JiM5O2MtMC4yNjgtMC4xNDQtMC40MDMtMC4zNDYtMC41MzctMC41NjdjMC43MTktMC4yNTksMS40MDktMC41OTYsMi4wNTItMC45ODl2MC4wMWMwLjA3NywwLjI1LDAuMTYzLDAuNDksMC4wODYsMC44MTcmIzk7Yy0wLjA2NywwLjMxNy0wLjA3NywwLjYwNSwwLjA1OCwwLjgzNmMwLjEwNSwwLjIzMSwwLjIyMSwwLjQ3MSwwLjM0NSwwLjY5MmMwLjI1OSwwLjQ1MSwwLjU0NywwLjkwMywwLjk2OCwxLjI3OCYjOTtDMzEuNzkzLDM4LjcwMiwzMS44MjIsMzkuMzU2LDMxLjQzOCwzOS43ODh6IiBmaWxsPSJub25lIi8+PHBhdGggZD0iTTM5LjY0NiwyOC44NDZjLTAuMjg4LDAuMDY3LTAuNTc1LDAtMC44MDUtMC4xNDRjLTAuNDctMC4zMTctMC45NjgtMC40OS0xLjQ2Ny0wLjYzNCYjOTtjLTAuMjQ5LTAuMDY3LTAuNTA4LTAuMTI1LTAuNzU3LTAuMTYzYy0wLjI0OS0wLjA3Ny0wLjUzNywwLTAuODI1LDAuMTM0Yy0wLjI4OCwwLjE2My0wLjU0NywwLjEzNS0wLjgxNSwwLjExNWgtMC4wMjkmIzk7YzAuMjIxLTAuNzIsMC4zNjQtMS40NywwLjQ0MS0yLjIzOGgwLjAxYzAuMjQ5LDAuMDc3LDAuNDk5LDAuMTQ0LDAuNzE5LDAuNDAzYzAuMjIxLDAuMjMxLDAuNDUxLDAuNDAzLDAuNzEsMC40MjMmIzk7YzAuMjU5LDAuMDU4LDAuNTA4LDAuMDk2LDAuNzY3LDAuMTI1YzAuNTI3LDAuMDQ4LDEuMDQ1LDAuMDY3LDEuNjAxLTAuMDU4YzAuNTY2LTAuMTI1LDEuMTIyLDAuMjMxLDEuMjQ2LDAuNzk3JiM5O0M0MC41NjYsMjguMTY0LDQwLjIxMSwyOC43MjEsMzkuNjQ2LDI4Ljg0NnoiIGZpbGw9Im5vbmUiLz48L3N2Zz4=;fontStyle=1" vertex="1" parent="1">
          <mxGeometry x="1265.88" y="267.5" width="78" height="78" as="geometry" />
        </mxCell>
        <mxCell id="fgHvfDnMfx1o7fpBP95t-84" style="edgeStyle=orthogonalEdgeStyle;rounded=0;orthogonalLoop=1;jettySize=auto;html=1;entryX=0;entryY=0.5;entryDx=0;entryDy=0;" edge="1" parent="1" source="fgHvfDnMfx1o7fpBP95t-76" target="fgHvfDnMfx1o7fpBP95t-80">
          <mxGeometry relative="1" as="geometry">
            <Array as="points">
              <mxPoint x="1303" y="504" />
            </Array>
          </mxGeometry>
        </mxCell>
        <mxCell id="fgHvfDnMfx1o7fpBP95t-76" value="Prometheus" style="shape=image;verticalLabelPosition=bottom;verticalAlign=top;imageAspect=0;aspect=fixed;image=data:image/svg+xml,PHN2ZyB4bWxucz0iaHR0cDovL3d3dy53My5vcmcvMjAwMC9zdmciIGhlaWdodD0iOTZweCIgd2lkdGg9Ijk2cHgiIHZpZXdCb3g9IjAgMCA0OCA0OCI+PGNpcmNsZSBmaWxsPSIjZTY0YTE5IiByPSIyMCIgY3k9IjI0IiBjeD0iMjQiLz48cGF0aCBkPSJNMjkuOTEsMzdjLTAuNDcsMi44NC0yLjk0LDUtNS45MSw1cy01LjQ0LTIuMTYtNS45MS01SDI5LjkxeiBNMzQsMzJIMTR2M2gyMFYzMnogTTMzLjUsMzAgYzEtMSwyLjUtMy41LDMtNUMzNSwyNS41LDMwLDI2LjUsMzAsMjYuNWMxLTEuNSwyLTMuNSwyLTZjMC0zLjUtNC03LTMtMTEuNWMtMi41LDIuNS0yLjUsNy41LTIuNSw5LjVjLTAuNS0xLjUtMC41LTMtMC41LTQgYzAtMy0zLTUuNS0yLTguNWMwLDAtMi41LDEtMi41LDRjMCwzLjUtMC41LDUuNS0xLjUsNi41YzAtMy0xLTUtMi41LTUuNWMwLjUsMSwwLjUsMS41LDAuNSwyYzAsMS41LTIuNSw2LTIuNSw5YzAsMiwxLDMuNSwyLjUsNC41IGMwLDAtNC0xLTYuNS0xLjVjMC41LDEuNSwyLDQsMyw1QzE0LjUsMzAsMzEuNSwzMCwzMy41LDMweiIgZmlsbD0iI2ZmZiIvPjwvc3ZnPg==;fontStyle=1" vertex="1" parent="1">
          <mxGeometry x="1160" y="450" width="96" height="96" as="geometry" />
        </mxCell>
        <mxCell id="fgHvfDnMfx1o7fpBP95t-80" value="Grafana" style="shape=image;verticalLabelPosition=bottom;verticalAlign=top;imageAspect=0;aspect=fixed;image=data:image/svg+xml,PHN2ZyB4bWxuczp4bGluaz0iaHR0cDovL3d3dy53My5vcmcvMTk5OS94bGluayIgeG1sbnM9Imh0dHA6Ly93d3cudzMub3JnLzIwMDAvc3ZnIiB4bWw6c3BhY2U9InByZXNlcnZlIiBzdHlsZT0iZW5hYmxlLWJhY2tncm91bmQ6bmV3IDAgMCAxMTMuMiAxMjIuODgiIHZpZXdCb3g9IjAgMCAxMTMuMiAxMjIuODgiIHk9IjBweCIgeD0iMHB4IiBpZD0iTGF5ZXJfMSIgdmVyc2lvbj0iMS4xIj48c3R5bGUgdHlwZT0idGV4dC9jc3MiPiYjeGE7CS5zdDB7Y2xpcC1wYXRoOnVybCgjU1ZHSURfMl8pO30mI3hhOzwvc3R5bGU+PGc+PGc+PGRlZnM+PHBhdGggZD0iTTExMi45NSw1NC4yMWMtMC4xOS0yLjA2LTAuNTQtNC40NC0xLjIzLTcuMDdjLTAuNjktMi42Mi0xLjcxLTUuNDktMy4xNy04LjQ3IGMtMS40OS0yLjk2LTMuNDQtNi4wNi01Ljk1LTkuMDRjLTAuOTgtMS4xOC0yLjA1LTIuMzMtMy4yMS0zLjQ2YzEuNzMtNi44OC0yLjEtMTIuODItMi4xLTEyLjgyIGMtNi42MS0wLjQxLTEwLjgxLDIuMDUtMTIuMzgsMy4xOWMtMC4yNi0wLjExLTAuNTItMC4yMy0wLjc4LTAuMzNjLTEuMTItMC40Ni0yLjI5LTAuODktMy40OC0xLjI2IGMtMS4xOS0wLjM3LTIuNDEtMC43MS0zLjY1LTEuMDJjLTEuMjQtMC4yOS0yLjUxLTAuNTQtMy43OS0wLjc0Yy0wLjIzLTAuMDQtMC40NS0wLjA3LTAuNjctMC4wOUM2OS42NSwzLjg1LDYxLjM2LDAsNjEuMzYsMCBjLTkuMjMsNS44Ni0xMC45OSwxNC4wNi0xMC45OSwxNC4wNnMtMC4wNCwwLjE5LTAuMDksMC40OWMtMC41MiwwLjE1LTEuMDIsMC4yOS0xLjUzLDAuNDVjLTAuNzEsMC4yMS0xLjQsMC40OC0yLjEyLDAuNzMgYy0wLjcsMC4yOC0xLjQsMC41NC0yLjEsMC44NWMtMS4zOSwwLjU5LTIuNzgsMS4yNy00LjEzLDIuMDJjLTEuMzEsMC43NC0yLjU5LDEuNTUtMy44NSwyLjQyYy0wLjE5LTAuMDgtMC4zMi0wLjE1LTAuMzItMC4xNSBjLTEyLjc4LTQuODgtMjQuMTQsMC45OS0yNC4xNCwwLjk5Yy0xLjAzLDEzLjYsNS4xLDIyLjE3LDYuMzIsMjMuNzJjLTAuMzEsMC44NS0wLjU4LDEuNjktMC44NSwyLjU1IGMtMC45NSwzLjA4LTEuNjUsNi4yNC0yLjA5LDkuNTJjLTAuMDcsMC40Ni0wLjEyLDAuOTQtMC4xNywxLjQyQzMuNSw2NC44OSwwLDc2Ljg2LDAsNzYuODZDOS44Niw4OC4yLDIxLjM1LDg4LjksMjEuMzUsODguOSBjMC4wMS0wLjAxLDAuMDMtMC4wMSwwLjAzLTAuMDNjMS40NywyLjYsMy4xNiw1LjA5LDUuMDUsNy40YzAuNzksMC45NiwxLjY0LDEuOSwyLjUsMi44Yy0zLjYsMTAuMjcsMC41LDE4Ljg0LDAuNSwxOC44NCBjMTAuOTcsMC40MSwxOC4xOS00LjgsMTkuNy02YzEuMSwwLjM3LDIuMTksMC43LDMuMzIsMC45OWMzLjM3LDAuODcsNi44MiwxLjM4LDEwLjI3LDEuNTNjMC44NiwwLjA0LDEuNzIsMC4wNSwyLjU5LDAuMDVoMC40MiBsMC4yOC0wLjAxbDAuNTQtMC4wMWwwLjU0LTAuMDNsMC4wMSwwLjAxYzUuMTcsNy4zOCwxNC4yNyw4LjQyLDE0LjI3LDguNDJjNi40Ni02LjgyLDYuODQtMTMuNTgsNi44NC0xNS4wNWwwLDAgYzAsMCwwLTAuMDUsMC0wLjA5YzAtMC4xMiwwLTAuMjEsMC0wLjIxbDAsMGMwLTAuMTEtMC4wMS0wLjItMC4wMS0wLjMyYzEuMzYtMC45NSwyLjY2LTEuOTcsMy44Ny0zLjA3IGMyLjU5LTIuMzQsNC44NS01LjAxLDYuNzMtNy44OGMwLjE3LTAuMjYsMC4zNC0wLjU0LDAuNTItMC44MmM3LjMyLDAuNDIsMTIuNDgtNC41NCwxMi40OC00LjU0IGMtMS4yMi03LjYzLTUuNTctMTEuMzQtNi40Ni0xMi4wNmwwLDBjMCwwLTAuMDQtMC4wMy0wLjA5LTAuMDdjLTAuMDUtMC4wNC0wLjA4LTAuMDctMC4wOC0wLjA3bDAsMCBjLTAuMDUtMC4wMy0wLjExLTAuMDctMC4xNi0wLjExYzAuMDQtMC40NiwwLjA4LTAuOTEsMC4xMS0xLjM4YzAuMDUtMC44MiwwLjA4LTEuNjQsMC4wOC0yLjQ2di0wLjYxdi0wLjN2LTAuMTYgYzAtMC4yMSwwLTAuMTMsMC0wLjIxbC0wLjAzLTAuNTJsLTAuMDQtMC42OWMtMC4wMS0wLjI0LTAuMDMtMC40NS0wLjA1LTAuNjZjLTAuMDEtMC4yMS0wLjA0LTAuNDItMC4wNy0wLjYzbC0wLjA4LTAuNjMgbC0wLjA5LTAuNjNjLTAuMTItMC44My0wLjI5LTEuNjctMC40Ny0yLjVjLTAuNzctMy4yOS0yLjA1LTYuNDEtMy43NC05LjIxYy0xLjY5LTIuOC0zLjgxLTUuMjktNi4xOC03LjM4IGMtMi4zOC0yLjEtNS4wNC0zLjc4LTcuODMtNS4wNHMtNS43Mi0yLjA2LTguNjUtMi40M2MtMS40Ni0wLjE5LTIuOTItMC4yNi00LjM2LTAuMjVsLTAuNTQsMC4wMWgtMC4xM2MtMC4wNCwwLTAuMiwwLTAuMTksMCBsLTAuMjIsMC4wMWwtMC41MywwLjA0Yy0wLjIsMC4wMS0wLjQxLDAuMDMtMC41OSwwLjA1Yy0wLjc0LDAuMDctMS40OCwwLjE3LTIuMiwwLjMyYy0yLjg5LDAuNTQtNS42MywxLjU5LTguMDUsMy4wMyBjLTIuNDEsMS40NC00LjUxLDMuMjUtNi4yMSw1LjI5Yy0xLjcxLDIuMDUtMy4wMyw0LjMxLTMuOTQsNi42NWMtMC45MSwyLjM0LTEuNDIsNC43Ni0xLjU2LDcuMTFjLTAuMDQsMC41OC0wLjA1LDEuMTgtMC4wNCwxLjc1IGMwLDAuMTUsMCwwLjI5LDAuMDEsMC40NGwwLjAxLDAuNDhjMC4wMywwLjI4LDAuMDQsMC41NywwLjA3LDAuODVjMC4xMiwxLjE5LDAuMzMsMi4zMywwLjY1LDMuNDRjMC42MywyLjE5LDEuNjUsNC4xOSwyLjkyLDUuODggYzEuMjYsMS42OSwyLjc2LDMuMDksNC4zNiw0LjE5YzEuNiwxLjEsMy4zMSwxLjg4LDUsMi4zN2MxLjY5LDAuNSwzLjM3LDAuNzEsNC45NiwwLjcxYzAuMiwwLDAuNCwwLDAuNTktMC4wMSBjMC4xMSwwLDAuMjEtMC4wMSwwLjMyLTAuMDFjMC4xMSwwLDAuMjEtMC4wMSwwLjMyLTAuMDFjMC4xNy0wLjAxLDAuMzMtMC4wNCwwLjUtMC4wNWMwLjA0LDAsMC4wOS0wLjAxLDAuMTQtMC4wMWwwLjE2LTAuMDMgYzAuMTEtMC4wMSwwLjItMC4wMywwLjMtMC4wNGMwLjIxLTAuMDMsMC4zOC0wLjA3LDAuNTgtMC4xMWMwLjE5LTAuMDQsMC4zNy0wLjA3LDAuNTYtMC4xMmMwLjM3LTAuMDgsMC43MS0wLjE5LDEuMDYtMC4zMSBjMC42OS0wLjIyLDEuMzQtMC41LDEuOTQtMC44MWMwLjYxLTAuMzIsMS4xNi0wLjY2LDEuNjgtMS4wMmMwLjE0LTAuMTEsMC4yOS0wLjIxLDAuNDQtMC4zM2MwLjU2LTAuNDQsMC42NS0xLjI0LDAuMi0xLjc4IGMtMC4zOC0wLjQ4LTEuMDYtMC41OS0xLjU5LTAuMzFjLTAuMTMsMC4wNy0wLjI3LDAuMTUtMC40LDAuMjFjLTAuNDYsMC4yMi0wLjk0LDAuNDItMS40NiwwLjU5Yy0wLjUyLDAuMTYtMS4wNCwwLjI5LTEuNiwwLjQgYy0wLjI4LDAuMDQtMC41NiwwLjA4LTAuODUsMC4xMWMtMC4xNCwwLjAxLTAuMjksMC4wMy0wLjQyLDAuMDNjLTAuMTUsMC0wLjI5LDAuMDEtMC40MiwwLjAxYy0wLjEzLDAtMC4yOCwwLTAuNDEtMC4wMSBjLTAuMTctMC4wMS0wLjM0LTAuMDEtMC41Mi0wLjAzYzAsMC0wLjA5LDAtMC4wMSwwaC0wLjA1bC0wLjEyLTAuMDFjLTAuMDgtMC4wMS0wLjE2LTAuMDEtMC4yMi0wLjAzIGMtMC4xNi0wLjAxLTAuMy0wLjA0LTAuNDYtMC4wNWMtMS4yNC0wLjE3LTIuNS0wLjUzLTMuNy0xLjA4Yy0xLjIxLTAuNTQtMi4zOC0xLjMxLTMuNDItMi4yNWMtMS4wNC0wLjk0LTEuOTYtMi4wOC0yLjY3LTMuMzYgYy0wLjcxLTEuMjgtMS4yMi0yLjctMS40Ni00LjE5Yy0wLjEyLTAuNzQtMC4xNy0xLjUyLTAuMTUtMi4yN2MwLjAxLTAuMjEsMC4wMS0wLjQxLDAuMDMtMC42MmMwLDAuMDUsMC0wLjAzLDAtMC4wNFY2Ny45IGwwLjAxLTAuMTZjMC4wMS0wLjExLDAuMDEtMC4yLDAuMDMtMC4zYzAuMDQtMC40MSwwLjExLTAuODIsMC4xNy0xLjIzYzAuNTctMy4yNSwyLjItNi40Miw0LjcyLTguODMgYzAuNjMtMC41OSwxLjMxLTEuMTYsMi4wNC0xLjY1YzAuNzMtMC41LDEuNDktMC45NCwyLjI5LTEuMzFjMC44MS0wLjM3LDEuNjQtMC42NywyLjUtMC45czEuNzQtMC4zOCwyLjYzLTAuNDYgYzAuNDUtMC4wNCwwLjktMC4wNSwxLjM1LTAuMDVjMC4xMiwwLDAuMjEsMCwwLjMxLDBsMC4zNywwLjAxbDAuMjMsMC4wMWMwLjA5LDAsMCwwLDAuMDQsMGgwLjA5bDAuMzcsMC4wMyBjMC45NiwwLjA4LDEuOTMsMC4yMSwyLjg4LDAuNDRjMS45LDAuNDIsMy43NSwxLjEyLDUuNDksMi4wOGMzLjQ1LDEuOTIsNi40LDQuOSw4LjIsOC41MWMwLjkxLDEuOCwxLjU1LDMuNzMsMS44Niw1LjczIGMwLjA4LDAuNSwwLjEzLDEsMC4xNywxLjUxbDAuMDMsMC4zOGwwLjAxLDAuMzhjMC4wMSwwLjEzLDAuMDEsMC4yNSwwLjAxLDAuMzhjMCwwLjEzLDAuMDEsMC4yNywwLDAuMzZ2MC4zM2wtMC4wMSwwLjM3IGMtMC4wMSwwLjI1LTAuMDMsMC42NS0wLjA0LDAuOWMtMC4wNCwwLjU2LTAuMDksMS4xLTAuMTYsMS42NWMtMC4wNywwLjU0LTAuMTYsMS4wOC0wLjI1LDEuNjNjLTAuMTEsMC41NC0wLjIyLDEuMDctMC4zNiwxLjYgYy0wLjI2LDEuMDYtMC42MSwyLjExLTEuMDIsMy4xM2MtMC44MSwyLjA1LTEuODksMy45OS0zLjE5LDUuNzljLTIuNiwzLjU4LTYuMTYsNi41LTEwLjIxLDguMzZjLTIuMDMsMC45MS00LjE3LDEuNTktNi4zNSwxLjk0IGMtMS4xLDAuMTktMi4yMSwwLjI5LTMuMzIsMC4zM2wtMC4yMSwwLjAxaC0wLjE3aC0wLjM2aC0wLjU0aC0wLjI4YzAuMTQsMC0wLjAzLDAtMC4wMSwwaC0wLjExYy0wLjYtMC4wMS0xLjE5LTAuMDQtMS43OS0wLjA5IGMtMi4zOC0wLjE3LTQuNzItMC41OS02Ljk5LTEuMjZjLTIuMjctMC42Ni00LjQ4LTEuNTUtNi41Ny0yLjY2Yy00LjE4LTIuMjQtNy45MS01LjI5LTEwLjgzLTguOTggYy0xLjQ3LTEuODQtMi43NS0zLjgxLTMuODEtNS44OGMtMS4wNi0yLjA4LTEuODktNC4yNi0yLjUxLTYuNDhjLTAuNjEtMi4yMy0wLjk5LTQuNTEtMS4xNC02LjgxbC0wLjAzLTAuNDRsLTAuMDEtMC4xMXYtMC4wOSB2LTAuMTlMMzEuOCw2NS41di0wLjA5di0wLjEzdi0wLjI3bC0wLjAxLTAuNTN2LTAuMTFjMCwwLjAxLDAsMC4wMSwwLTAuMDR2LTAuMjFjMC0wLjI4LDAuMDEtMC41NiwwLjAxLTAuODUgYzAuMDQtMS4xNCwwLjEzLTIuMywwLjI5LTMuNDZjMC4xNS0xLjE2LDAuMzQtMi4zNCwwLjU4LTMuNWMwLjI0LTEuMTYsMC41My0yLjMxLDAuODUtMy40NGMwLjY1LTIuMjYsMS40Ni00LjQ2LDIuNDItNi41MyBjMS45Mi00LjE1LDQuNDMtNy44MSw3LjQ2LTEwLjc1YzAuNzUtMC43NCwxLjUzLTEuNDQsMi4zNS0yLjA5YzAuODEtMC42NSwxLjY1LTEuMjYsMi41My0xLjgyYzAuODYtMC41NywxLjc2LTEuMSwyLjY4LTEuNTcgYzAuNDUtMC4yNSwwLjkzLTAuNDYsMS4zOS0wLjY5YzAuMjQtMC4xMSwwLjQ4LTAuMjEsMC43MS0wLjMyYzAuMjQtMC4xMSwwLjQ4LTAuMjEsMC43MS0wLjMxYzAuOTUtMC40MSwxLjk0LTAuNzQsMi45NC0xLjA2IGMwLjI1LTAuMDgsMC41LTAuMTUsMC43NS0wLjIzYzAuMjUtMC4wOCwwLjUtMC4xMywwLjc1LTAuMjFjMC41LTAuMTUsMS4wMi0wLjI2LDEuNTItMC4zOGMwLjI1LTAuMDcsMC41Mi0wLjEyLDAuNzctMC4xNyBjMC4yNS0wLjA1LDAuNTItMC4xMSwwLjc3LTAuMTZjMC4yNi0wLjA1LDAuNTItMC4wOSwwLjc4LTAuMTVsMC4zOC0wLjA3bDAuMzgtMC4wNWMwLjI3LTAuMDQsMC41Mi0wLjA4LDAuNzgtMC4xMiBjMC4yOS0wLjA1LDAuNTgtMC4wNywwLjg3LTAuMTJjMC4yNC0wLjAzLDAuNjMtMC4wOCwwLjg3LTAuMTFjMC4xOS0wLjAxLDAuMzctMC4wNCwwLjU2LTAuMDVsMC4zNy0wLjA0bDAuMTktMC4wMWwwLjIxLTAuMDEgYzAuMjktMC4wMSwwLjU4LTAuMDQsMC44OC0wLjA1bDAuNDQtMC4wM2MwLDAsMC4xNiwwLDAuMDMsMGgwLjA5bDAuMTktMC4wMWMwLjI1LTAuMDEsMC41LTAuMDMsMC43NS0wLjA0IGMwLjk5LTAuMDMsMS45OC0wLjAzLDIuOTcsMGMxLjk3LDAuMDgsMy45LDAuMjksNS43OCwwLjY1YzMuNzUsMC43LDcuMjgsMS45LDEwLjQ4LDMuNDljMy4yLDEuNTYsNi4wNywzLjQ5LDguNTUsNS41OCBjMC4xNiwwLjEzLDAuMywwLjI3LDAuNDYsMC40YzAuMTUsMC4xMywwLjMxLDAuMjcsMC40NSwwLjRjMC4zLDAuMjcsMC41OSwwLjU0LDAuODgsMC44MWMwLjI5LDAuMjcsMC41NywwLjU0LDAuODUsMC44MiBjMC4yOCwwLjI4LDAuNTYsMC41NiwwLjgxLDAuODNjMS4wNiwxLjEyLDIuMDQsMi4yNSwyLjkxLDMuMzljMS43NywyLjI3LDMuMTksNC41OCw0LjMxLDYuNzRjMC4wNiwwLjEzLDAuMTQsMC4yNywwLjIxLDAuNDEgYzAuMDcsMC4xMywwLjEzLDAuMjcsMC4yLDAuNDFjMC4xMywwLjI3LDAuMjcsMC41MywwLjM4LDAuNzljMC4xMiwwLjI3LDAuMjUsMC41MywwLjM2LDAuNzhjMC4xMiwwLjI2LDAuMjIsMC41MiwwLjMzLDAuNzcgYzAuNDIsMS4wMiwwLjgxLDEuOTgsMS4xMSwyLjljMC41MiwxLjQ3LDAuOSwyLjgsMS4xOSwzLjk3YzAuMTIsMC40NiwwLjU2LDAuNzcsMS4wMywwLjczYzAuNDktMC4wNCwwLjg3LTAuNDUsMC44OC0wLjk0IEMxMTMuMTIsNTcuMzMsMTEzLjEsNTUuODgsMTEyLjk1LDU0LjIxTDExMi45NSw1NC4yMXoiIGlkPSJTVkdJRF8xXyIvPjwvZGVmcz48Y2xpcFBhdGggaWQ9IlNWR0lEXzJfIj48dXNlIHN0eWxlPSJvdmVyZmxvdzp2aXNpYmxlIiB4bGluazpocmVmPSIjU1ZHSURfMV8iLz48L2NsaXBQYXRoPjxnIGNsYXNzPSJzdDAiPjxkZWZzPjxyZWN0IGhlaWdodD0iMTIyLjg4IiB3aWR0aD0iMTEzLjIiIGlkPSJTVkdJRF8zXyIvPjwvZGVmcz48Y2xpcFBhdGggaWQ9IlNWR0lEXzRfIj48dXNlIHN0eWxlPSJvdmVyZmxvdzp2aXNpYmxlIiB4bGluazpocmVmPSIjU1ZHSURfM18iLz48L2NsaXBQYXRoPjxnIHN0eWxlPSJjbGlwLXBhdGg6dXJsKCNTVkdJRF80XykiIHRyYW5zZm9ybT0ibWF0cml4KDEgMCAwIDEgMCAtNy42MjkzOTVlLTAwNikiPjxpbWFnZSB0cmFuc2Zvcm09Im1hdHJpeCgwLjQ4IDAgMCAtMC40OCAtMC43MzM0IDEyMy41NzEzKSIgeGxpbms6aHJlZj0iZGF0YTppbWFnZS9qcGVnO2Jhc2U2NCwvOWovNEFBUVNrWkpSZ0FCQWdFQWxnQ1dBQUQvN0FBUlJIVmphM2tBQVFBRUFBQUFIZ0FBLys0QUlVRmtiMkpsQUdUQUFBQUFBUU1BIEVBTUNBd1lBQUFWaEFBQUh1Z0FBQ25uLzJ3Q0VBQkFMQ3dzTUN4QU1EQkFYRHcwUEZ4c1VFQkFVR3g4WEZ4Y1hGeDhlRnhvYUdob1ggSGg0akpTY2xJeDR2THpNekx5OUFRRUJBUUVCQVFFQkFRRUJBUUVBQkVROFBFUk1SRlJJU0ZSUVJGQkVVR2hRV0ZoUWFKaG9hSEJvYSBKakFqSGg0ZUhpTXdLeTRuSnljdUt6VTFNREExTlVCQVAwQkFRRUJBUUVCQVFFQkFRUC9DQUJFSUFRUUE4Z01CSWdBQ0VRRURFUUgvIHhBQ2hBQUVCQVFFQkFRRUFBQUFBQUFBQUFBQUFBZ0VFQmdNRkFRRUFBd0VCQVFBQUFBQUFBQUFBQUFBQUFnVUdBd0VFRUFFQkFBQUQgQmdjQkFRRUFBQUFBQUFBQUVRRURCQUlVSkFVbE5UQkFJaklUSXpNMEVoVVJBQUFEQ0FFRkFRRUFBQUFBQUFBQUFBQUJjaEJBa1RLaSBBd1JFY1JFaEFoSVRZU0lTQUFFREF3UUNBUVVCQUFBQUFBQUFBQUlBQVhJUU1MRXlBek5Ea1pJeFFWRnhFbk1pLzlvQURBTUJBQUlSIEF4RUFBQUQyRWZQNVpmN3Vsek9mdlM1aDB1WWRMbUhTNWgwdVlkTG1IUzVoMHVZZExtSFM1aDB1WWRMbUhUZkg5ZW5uNjQxSHcvai8gQUIrbnl5ZGxySEtXc0dzR3NHc0dzR3NHc0dzR3NHc0dzR3NHL2I0ZlhySDlvYXl0L0UrUDArT1Z0S1M1eXBJcElwSXBJcElwSXBJcCBJcElwSXBJcElyN2Mvd0J1a2YzUnFxdjhINGZYNFppMnBMbktraWtpa2lraWtpa2lraWtpa2lraWtpa2l2dnpmZnBIMEEwOVQ1N24rIDNQbTdpa3VjcVNLU0tTS1NLU0tTS1NLU0tTS1NLU0tTSzZPWG82UjlHTkpUK2I1dnZ6WjI2cEtFcVNLU0tTS1NLU0tTS1NLU0tTS1MgS1NLU0s2ZVRwbkgwdzBWTDVqbSsvTlFYZEpRblNSU1JTUlNSU1JTUlNSU1JTUlNSU1JTUlhUeWRNNGVwRi9TZVY1ZW5sb3IzV0lUMSBnMWcxZzFnMWcxZzFnMWcxZzFnMWcxZzNxNU9xY1BWaTlvdkpjdlR5VWwvU1VaMGtVa1VrVWtVa1VrVWtVa1VrVWtVa1VrVjFjZlhLIEhyaGQwSGtPVHE1S2ZRYXhDZXNHc0dzR3NHc0dzR3NHc0dzR3NHc0dzRzlmSDF6aDdBWEdmOGR4OWZIVWFIV0k5TllOWU5ZTllOWU4gWU5ZTllOWU5ZTllOWU43T0xzbHo5a0xmUGVNNCt6anFkRUVlZ0FBQUFBQUFBQUFBRHM0K3lYUDJZdHM3NHpqN09PcDBRUjZBQUFBQSBBQUFBQUFBT3pqN0pjL1ppMnp2ak9QczQ2blJCSG9BQUFBQUFBQUFBQUE3T1BzbHo5bUxiTytNNCt6anFkRUVlZ0FBQUFBQUFBQUFBIERzNCt5WFAyWXRzNzR6ajdPT3AwUVI2QUFBQUFBQUFBQUFBT3pqN0pjL1ppMnp2bGVZcmJ3UEpnQUFBQUFBQUFBQUFPazloNm9XVkggLzlvQUNBRUNBQUVGQU03VmFqRE4zdlV0NzFMZTlTM3ZVdDcxTGU5UzN2VXQ3MUxlOVMzdlV0NzFMZTlTM3ZVc25WYWpITlorSDNSRSBSRVJFUkVSa1lmY3o4UHVpSWlJaUlpSWpJdys1bllmYkVSRVJFUkVSR1RoOXJPdysySWlJaUlpSWlNbkQ3V2JoOXNSRVJFUkVSRVpXIEgyczNEN0lpSWlJaUlpSXlzUHNadUgyUkVSRVJFUkVSbFlmWXpNUHNpSWlJaUlpSWpMdyt4bVlldUlpSWlJaUlpTXZEMXN6M3hFUkUgUkVSRVJsKzltZS94Y3Yzc3ozK0xsKzltZS94Y3Yzc3ozK0xsKzltZS93QVhMOTdiOTNpN0h1Zi8yZ0FJQVFNQUFRVUEyY3ZZL3dBLyBIc1BqMkh4N0Q0OWg4ZXcrUFlmSHNQajJIeDdENDloOGV3K1BZZkhzTnJMMlA4dGpEMHhFUkVSRVJFUnQ0ZWxzWWVpSWlJaUlpSWlOIHZEME12RDBSRVJFUkVSRVJtWWVobDRlaUlpSWlJaUlpTXpEME12RDBSRVJFUkVSRVJtWWVobDRmWEVSRVJFUkVSR1poOWJLdyt1SWkgSWlJaUlpTTNENjJWK2NSRVJFUkVSRVp2NXNyOC9GemZ6Wlg1ZUxtL2t5Znk4WE8vSmsvbDR1ZCtUSi9MeGM3OG1UK1hpNTM1TW44diBGenZ5Wlg1K0xtL20vOW9BQ0FFQkFBRUZBTS9WNTJ4bTc3cUcrNmh2dW9iN3FHKzZodnVvYjdxRys2aHZ1b2I3cUcrNmh2dW9iN3FHICs2aHZ1b2I3cUcrNmh2dW9iN3FHKzZodnVvYjdxRys2aHZ1b2I3cUcrNmh2dW9iN3FHUnE4N2J6V3F4NGlxcXFxcXFxcXFxcXFxcXEgcXFxdExqeERWNDhSVlZWVlZWVlZWVlZWVlZWVlZWV2t4NGhxOGVKcXFxcXFxcXFxcXFxcXFxcXFxclNZOFMxbjlQbk5IL1MxbVBGViBWVlZWVlZWVlZWVlZWVlZWVlZvOGVLYTNIaXFxcXFxcXFxcXFxcXFxcXFxcXEwV1BGTmQvWFZWVlZWVlZWVlZWVlZWVlZWVldoL3JhIDdIaktxcXFxcXFxcXFxcXFxcXFxcXEwT1BHTmZqeGxWVlZWVlZWVlZWVlZWVlZWVlZhREhqSE1NZU5xcXFxcXFxcXFxcXFxcXFxcXEgcmwrUEd1WTQ4YlZWVlZWVlZWVlZWVlZWVlZWVlhMc2VOY3h4NDZxcXFxcXFxcXFxcXFxcXFxcXF1WFk4YzVsangxVlZWVlZWVlZWViBWVlZWVlZWVmN0eDQ1ekxIajZxcXFxcXFxcXFxcXFxcXFxcXE1Ymp4N21lUEgxVlZWVlZWVlZWVlZWVlZWVlZWeXpIajNOTWVvVlZWIFZWVlZWVlZWVlZWVlZWVlZ5dkhxRG1tUFVLcXFxcXFxcXFxcXFxcXFxcXFxNVhqMUJ6WHVQbk9WZHhjMTdqVlZWVlZWVlZWVlZWVlYgVlZWVlhLdTR1YmR4cXFxcXFxcXFxcXFxcXFxcXFxcmxQY1hOdTVlYzVUM0p6YnVYbk9VOXljMzdsNXpsSGNuTis1ZWM1UjNKemZ1WCBuT1VkeWMzN2w1emxIY25OKzVlYzVSM0p6ZnVYbk9VZHljMzdsNXpsSGNuTis1ZWM1UjNKemZ1WG5PVWR5Y3kvNXUvOUpkSmRKZEpkIEpkSmRKZEpkSmRKZEpkSmRKZEpkSmRKZEpkSmRKZEpkSmRKZEpkSmRKZEpkSmRKY3QvNXUvdi9hQUFnQkFnSUdQd0RjWnQzY1ptTW0gWnYyZjdybTNmZDF6YnZ1NjV0MzNkYzI3N3V1YmQ5M1hOdSs3cm0zZmQxemJ2dTY1dDMzZGMyNzd1dWJkOTNYTnUrN3JtM2ZkMXRzKyA3dU96bUxPMzdQOEFlbTUvUXMzdHYrZzVwdWYwTE43Yi9vT2Fia3l6ZTI1am1tNU1zM3R1WTVvY3l6ZUNZNW9jeXplQ1k1b2N5emVDIFk1b2NuemVDVFpvVW52REpxRko3d3lhaFNlOE1tb1VudkRKcUZKN3d5YWhTZThNbW9VbnZESnFGbzFPdXRkYTYxMXJyWFd1dGRhNjEgMXJyWFd1dERvMU5ULzlvQUNBRURBZ1kvQUcveTN3MzBXa2ZDMGo0V2tmQzBqNFdrZkMwajRXa2ZDMGo0V2tmQzBqNFdrZkMwajRXayBmQ2YvQUMzdy93QktERnJ4UmVneGE4VVhvTVd2RkY2REZyeFJlZ1JhOGNYb0VXeGVPTDRvRUJ4ZU9CWW9FQnhlT0JZb0VCeGVPQllvIEVCeGVPQllvRUJ4ZU9CWW9FQnhlT0JZb0VCeGVPQllvRUJ4ZU9CWW9FQnhlT0JZb0hMcGI0L0M3bDNMdVhjdTVkeTdsM0x1WGN1NWQgeTdrZkxwZjUvRlAvMmdBSUFRRUJCajhBOHZIeFBzUjl1eENZb0VKaWdRbUtCQ1lvRUppZ1FtS0JDWW9FSmlnUW1LQkNZb0VKaWdRbSBLQkNZb0VKaWdRbUtCQ1lvRUppZ1FtS0JDWW9FSmlnUW1LQkNZb0VKaWdRbUtCQ1lvRUppZ1FtS0JDWW9FUEh4OGo3R2Zmc1RMbkw3IGI1WmM1ZmJmTExuTDdiNVpjNWZiZkxMcW4yMHBsMVQ3YVV5NnA5dEtaZFUrMmxNdXFmYlNtWGxQdGxUTHluMnlwbDVUN1pVeThwOXMgcVpmVSsyRk12cWZiQ21YMVB0aFRMNm4yd3BsOWI3WVd6SVcrNDYyWkMzM0hXeklXKzQ2MlpDMzNIV3pJVys0NjJaQzMzSFd6SVcrNCA2MlpDMzNIV3pJVys0NjJaQzMzSFd6SVcrNDYyWkMzM0hXeklXKzQ2MlgvcjkvcDdmMTYrbnIxL09vMktCc1VEWW9HeFFOaWdiRkEyIEtCc1VEWW9HeFFOaWdiRkEyS0JzVURZb0d4UU5pZ2JGQTJLQnNVRFlvR3hRTmlnYkZBMktCc1VEWW9HeFFMSHkrLzA5djU5dlQxNi8gdlJuLzJRPT0iIGhlaWdodD0iMjU5IiB3aWR0aD0iMjQwIiBzdHlsZT0ib3ZlcmZsb3c6dmlzaWJsZSIvPjwvZz48L2c+PC9nPjwvZz48L3N2Zz4=;fontStyle=1" vertex="1" parent="1">
          <mxGeometry x="1350" y="460" width="79.93" height="87" as="geometry" />
        </mxCell>
        <mxCell id="fgHvfDnMfx1o7fpBP95t-85" value="" style="shape=image;verticalLabelPosition=bottom;verticalAlign=top;imageAspect=0;aspect=fixed;image=data:image/png,iVBORw0KGgoAAAANSUhEUgAAAgAAAAIACAYAAAD0eNT6AAAACXBIWXMAAA7DAAAOwwHHb6hkAAAAGXRFWHRTb2Z0d2FyZQB3d3cuaW5rc2NhcGUub3Jnm+48GgAAIABJREFUeJzt3XecXXWd//FXJj2kkRAQpEiR6oKANAERAcUGWLArtpVVdGFdf+s2f7q660/dVSxYsK5iBSui0qQJAtJFAghIF0JLD5D6++M7QyaTycy95557P+d7zuv5eJzHJGHm3vcNN+f7ud86BklVNx6Y039tBszsvzYe9OsZwEbAlP6vE/r/bFz/18Gm9j/mYCuAJUP+bAGwClgILAeWAsv6vy4Ycs3v//oQ8HD/15WFX7GkrhsTHUBquDnAlv3XNoN+/XRgU9Y2/DkaKAQeBu4D7u//ejdwb/+vHwlLJzWcBYDUXWOBrYHtgR36r+0HfZ0cF60SHgduB+7o/zr41/cAq+OiSfVmASCVZwtgV2C3QV+fTeqSV/uWkwqBm4C5g77eQhqakNQBCwCpfeOBHYG9B117ksbf1X0rgNuAawZd15LmJ0hqkQWANLKxwC7AfsABwL79vx8XGUrrWUnqHfgDcAVwZf/vHUKQNsACQFrXdOAg4EBgf2AfYFpoIhW1CLiKVBBcBlwKLA5NJFWIBYCabhrp0/3hpIZ/X9ZfIqd6WAXcSioEzgcuxFUIajALADXNZFJDf0T/tQf+O2iq1cANwHn916XAE6GJpB7yxqcm2B04krWf8pu+9E7Dexz4HakYOAe4MTaO1F0WAKqjSaSG/nDgFaQZ+1K77iYVAmeRigJ7B1QrFgCqi9nAUf3XEbj2XuVaCpwLnNl/PRYbR+qcBYBytgnwEuBY4EU4eU+9sYq0suAM4HTggdg4UjEWAMrNZsBrSI3+gUBfbBw13CrSEsPT+6+HY+NIrbMAUA4mAy8D3oKf9FVdAz0D3wF+gHsOqOIsAFRV40gz998MvBxn7isvy0hzBb4LnI1nF6iCLABUNTsBrwfeSjoeV8rdA6T5At8A/hicRXqKBYCqYBrwOuBtpP32pbq6DPgW8CNgSXAWNZwFgCLtTPqk/y5g49goUk8tJs0T+BJpN0Kp5ywA1GsTgKNJjf5h+B6UrgG+CpxG2o1Q6glvvuqVLYD3kBr+OcFZpCp6iFQIfAn3FlAPWACo2/YCjict4ZsUnEXKwXLgF8DJwOXBWSSpLX3Aq0kTntZ4eXkVvn4HvBI3vJJUcRNIn/RvJv7G6eVVp+sO4ETsRVOJHAJQGaYBbwc+AGwZnEWqs3nAV4DPAguCsyhzFgDqxCzgH4D3ATOCs0hNsgD4PKkQmB+cRZmyAFARs0mN/onAzOAsUpMtAb4IfAqPKFabLADUjoGG/yT8xC9VyRLgm8DHScME0qgsANSKqcAJwL9gwy9V2UCPwP8DFgZnUcWNjQ6gSpsAvAP4GXAMzkCWqm4CcBDwt6QPeNcAK0MTScrKOFLDfw/xy5+8vLyKX3eTDtnyw57W4xCAhjoc+DSwe3QQSaW5hbRi5+zoIKoOCwAN2JU0k/il0UEkdc1ZpEm8d0QHUTy7hbQFaS3xV4GdgrNI6q4dSWdzTAWuJJ07oIayAGiu8aQlfT8B9sfeIKkpxrF2ouBy4GrSfAE1jDf9ZjqMtIvYrtFBJIW7ljQ/4JLoIOotT5hqlq2A7wDnY+MvKdkLuBj4JbBtcBb1kEMAzTAO+Cfgx8DewVkkVdOOpGGBFcAfgNWxcdRtDgHU3x7A14HnRAeRlI0bSMXAVdFB1D32ANTXZODfgdNIXf+S1KqnkTYQ2gT4HalXQDVjD0A9PQ+X9Ukqx19ISwfPjw6icjkJsF5mAqcCF2HjL6kc2wHnkiYQzw7OohI5BFAfLwd+DRyKPTuSyjWGNJ/oOOAh0hwBZc6GIn9bAF8GjooOIqkxfg68B3ggOoiKswDI2zHA10gTdSSplx4B3gn8IjqIinEOQJ4mA58DfoaNv6QYm5B6Ar5DOltAmbEHID/PAb6Lk/wkVcetwBuBa6KDqHVOAszHGOBE4IfAZsFZJGmwTYC3k9qU3+HhQlmwByAPA3v4Pz84hySN5kLgLcB90UE0MucAVN+rgOux8ZeUh0OBPwFviA6ikVkAVNc04H9JB/jMio0iSW2ZAXwP+AZOEKwshwCqaUfgp8Bu0UEkqUO3Aq8E5kYH0brsAaieo0hHcdr4S6qDnYArgFdHB9G6XAVQHWOBD5N29ZsUnEWSyjQROJa0h8mFuEqgEhwCqIbZwA+AI6KDSFKXXQS8lnSmgAJZAMTbkzTe/4zgHJLUK/eShgT+EB2kyZwDEOstwGXY+Etqlq2AS0hnCSiIBUCMiaS9/L9NGhOTpKaZSDrM7Dt4HwzhEEDvbU46QGPf6CCSVBFXAK8AHowO0iQWAL21G/ArYJvoIJJUMfcDLwVuiA7SFA4B9M5hwKXY+EvScJ5OOkjoyOggTeE+AL3xVuBHwEbBOSSpyiYCrwPm4dHCXWcB0F1jgI8AJ+PftSS1og94OekMlHOCs9SacwC6ZwLpIIw3RQeRpEydDhwHPBEdpI4sALpjY9LmPs8PziFJubsMOAZ4JDpI3VgAlG9b4NfAztFBJKkmbgdeAtwWHaROXAVQrn1I61lt/CWpPDuQVgjsFR2kTiwAynMIcD6waXQQSaqhzYALgAOjg9SFBUA5Xg78BpgeHUSSamwGcC6enFoKC4DOvRH4Ce5lLUm9MAX4JWnrYHXAtemdORE4Ff8eJamXxgGvBG4FbgrOki0bruI+AHwGV1JIUoSxpCLgPuC64CxZsgAo5oPAp6JDSFLD9QFHAQtJK7DUBguA9n0Q+ER0CEkSkHphjwTWABcHZ8mKBUB7Pgp8LDqEJGk9h5ImY58fHSQXFgCt+0/g36NDSJI26CDSsMBFwTmyYAHQmv8APhQdQpI0qkOAJ4FLo4NUnQXA6D4A/Fd0CElSyw4HFgOXRwepMguAkb0f+J/oEJKktr0Q+CtwbXSQqrIA2LATgZOjQ0iSChlDOkHwFtwsaFhuYjO8NwHfxq2SJSl3K4BXkbYP1iAWAOs7irS3/7joIJKkUiwHjgbOjg5SJRYA6zoU+DUwKTqIJKlUy4AXA5dEB6kKC4C19gF+C0yLDiJJ6oqFwAtwYiBgATBgW9Jykc2ig0iSuuoR4ADg9ugg0ZzkBrOA32DjL0lNsAlwJrBxdJBoTS8AxgOnAztFB5Ek9cwuwM+BidFBIjW5ABgDfAM4LDqIJKnnngf8Lw0eCm/yRkAfA94XHUKSFOZZ/V8vigwRpakFwNuAT0eHkCSFOwS4C7ghOEfPNbHr4/nAOcCE4BySpGpYQdo2+PzoIL3UtAJgV+AyYGZ0EElSpSwCDgJujA7SK00qADYnrfXfJjqIJKmS7iLtEfBgcI6eaMoqgImkJR82/pKkDXkG8DMaMkTclEmAXwFeHh1CklR5WwJzgF9FB+m2JhQAbyYt+ZMkqRXPAe4FrosO0k11nwOwJ2nS3+ToIJKkrDwBHAxcHR2kW+pcAMwi/Y/bNjqIJClL9wB7kw4Qqp26TgLsA76Pjb8kqbitgR9S0+HyWr4o4BPAcdEhJEnZ2w4YB1wQHaRsdRwCOJq0jKOOr02S1HtrgGOBn0QHKVPdGsmdgD8A06ODSJJqZTGwH3BzdJCy1GkOwDTSZj82/pKksk0DzgCmRgcpS53mAHwVODw6hCSptjYFNgPOjA5ShroUAK8CPh4dQpJUe3sBtwA3RQfpVB3mAGxJOsd5VnQQSVIjLAD2IO0TkK3c5wD0Ad/Gxl+S1DszgdPIvBc96/DAPwPvjA4hSWqcbYAlwO+jgxSV8xDAXsDlNOTYRklS5awADgSuig5SRK4FwEbANaR1/5IkRbmZdHrgsugg7cp1COCLwAujQ0iSGm8OaR7ar6KDtCvHHoBjSFv9SpJUFUeT2f4AuRUAWwB/BGZHB5EkaZCHgd2BB6ODtCq3ZYBfxMZfklQ9c4CvRYdoR05zAF4DfCg6hCRJG7AjcBtwY3SQVuQyBDADmEsaApAkqaoeBXYD5kUHGU0uQwAnY+MvSaq+2cAXokO0IocegEOB35JHVkmSAI4FfhwdYiRVb1SnkGb9bx8dRJKkNjwI7ArMjw6yIVWfBPhx4GXRISRJatNUYDoV3iCoyj0Ae5D2Vx4fHUSSpAJWAwdT0QODqloAjAOuJB34I0lSrv5EastWRAcZqqpDAB8E3hQdQpKkDm1KOjb4suggQ1WxB2A7UsU0OTqIJEklWAbsAtwTHWSwKu4DcDI2/pKk+pgCfDo6xFBV6wE4Ajg3OoQkSV1wJHBOdIgBVSoAJpDW/O8UHUSSpC6YCzybikwIrNIkwA8Ar4sOIUlSl8whbQx0RXQQqE4PwBbAraSNEyRJqqtFpFMDww8LqkoPwOeA/aJDSJLUZRNJOwSeFR2kCj0AewDXUJ1iRJKkbloF7AncGBmiCssA/xsbf0lSc4wFPhUdIroAeClp6Z8kSU1yJPCiyACRQwBjgRuA3QIzSJIUZS5pGHxlxJNH9gC8HRt/SVJz7UrguTdRPQCTgD8DWwU9vyRJVXA3aQO8J3v9xFE9ACdg4y9J0jbAuyKeOKIHYBpwO+mIREmSmu5hYHtgcS+fNKIH4P9g4y9J0oA5wN/3+kl73QOwCfAXUi+AJElKFgLbks4K6Ile9wD8Izb+kiQNNQM4qZdP2MsegNnAnVgASJI0nJ72AvSyB+D92PhLkrQhM4ATe/VkveoBmEX69D+9R88nSVKOetYL0KsegH/Axl+SpNHMoEcrAnrRAzCdtNPRzB48lyRJuZsPbA0s6eaT9KIH4N3Y+EuS1KqNgbd1+0m63QMwkbTuf4suP48kSXVyJ/BMYFW3nqDbPQDHYeMvSVK7tgVe0c0n6GYPwFjgZlIFI0mS2nMVsG+3HrybPQCvwMZfkqSi9gEO6taDd7MAeH8XH1uSpCb4x249cLeGAPYGru7SY0uS1BSrgd2AW8p+4G71APjpX5KkzvXRpY2ButEDsAVp+cKELjy2JElN8ziwDfBwmQ86rswH6/dubPwldddS0m5pjwOLBv35ImANaTvVARsBU0hnkkztVUCpRJNJbetHy3zQsnsAJgL3AnNKflxJzfEgcBNpE7H7SFuJ3wfcT2r05wPLCz72eNIuaxsDTwe2JH2y2hLYDtgV9y5RNc0jbQ9c9L2/nrILgDcBp5X8mJLqaQ3wZ+AK4ErgT6SG/7HIUKTiYDfgWcB+/dfO9O70VGlD3gD8oKwHK/sNfSlwYMmPKak+bgV+A5xPavgfjY3Tso2B/YHDgSNJPQVSr10CHFLWg5VZAPwN8McSH0/ddxf53IAjjQP2iA6RqdWkm9YZpIb/ztg4pdmGVAi8GjiUtPOp1Au7AXOjQwz1RVKXnlc+15uH/T+poTYl/v9VbtfVpOXATy/w952bp5GWaV1B/N+7V/2vz1MxU4GFxP/FeLV3WQC0xgKgtetJ4HSaPQy4J3AqaZVC9P8Pr3peC0grWzpW1kZArweml/RYkvKyAPgPYCvgNcBlsXFCXQccT5qt/W84xKbyzQCOLeOByioA3l7S40jKx2Lgk6Tlcx8BHgpNUy2PAh8nzRU4ibSESyrL28p4kDIKgJ1Js2MlNcMK4DOkT/z/TFqXr+EtBT5HOhn1k5S4hluNdjCwQ6cPUkYBUEolIikLFwJ7kU4oWxicJSeLScXSbsCvgrMof2OA4zp9kE4LgHE4kUxqgvmkjb5eQNqwR8XcDryMNFfikeAsyttxdLj8tNMC4Ehg8w4fQ1K1nQfsDnwvOkiNnEHaafAX0UGUra2Awzp5gE4LAD/9S/W1AjgReBFpL36Vax5wDPAenBugYt7SyQ93UgBMI3VlSaqfR0g9fJ8nrT1W93wZeC5wT3QQZecYOtgToJMC4BWkIzYl1ctVpA1tLogO0iDXkFZTXR4dRFnZCDiq6A93UgC8oYOflVRNvyWNK9rl33sPkM4V+Gl0EGXl9UV/sGgBsCkdTj6QVDnfB15MWrKmGE+SVgh8IzqIsnEkMLvIDxYtAF5LWgIoqR6+RprUuyI6iFgF/C3wpeggysJ40qmUbeukAJBUDz8B3k06ulfVsAZ4L/D16CDKwmuK/FCRAmAz4IAiTyapcs4kjSGuig6i9awB/g74UXQQVd4hwJx2f6hIAfCKgj8nqVouJ/Xm2e1fXatIa70viQ6iShtLgdUARRryQmMNkirlr6QjRZ+IDqJRLQdeCdwRHUSV9qp2f6DdAmA2qatBUr4eJ20gcn90ELXsUdInPA9g0oYcDmzczg+0WwAchbP/pdwdT9rsR3mZC7wrOoQqazxt7s7bbgFwdJvfL6lazgBOiw6hwk4HvhUdQpXV1jyAdgqAibj5j5Sze0mf/pW39wG3RodQJR1Jaqtb0k4B8AJgattxJFXBatL23fOjg6hjS0mbNrl0U0NNBQ5u9ZvbKQA8+U/K15eBS6NDqDRXAZ+LDqFKemmr39hOAfCSAkEkxfsr8O/RIVS6DwF/iQ6hyml5HkCrBcDuwDMKRZEU7d3AgugQKt0y4IToEKqc7YCdW/nGVguAI4tnkRTo16TtflVPZwO/iA6hynlRK9/UagFwRAdBJMVYCfxTdAh13T+SjhGWBrTUZrdSAEwCDuwsi6QAXwJuig6hrrsDOCU6hCrl+bSwHLCVAuBgYHKnaST11CLgo9Eh1DP/iUs8tdZGtHBqbysFgN3/Un5OJu0fr2ZYAHwmOoQqZdS22wJAqp+FuEa8iT4LPBwdQpXRcQEwi7QEUFI+Po3dwU20BHsBtNbewMyRvmG0AuDgFr5HUnUsAj4fHUJhTsHiT0kfcNBo3zCSQ8rLIqkHvoZnxjfZEuDU6BCqjBHPBbAAkOpjJX76F3wBWB4dQpUwYhs+UgEwHdij3CySuugM4J7oEAr3V+AH0SFUCXsxwim+IxUABwFjS48jqVu+EB1AlfHF6ACqhPGMsB/ASAWAu/9J+bgRuDw6RJA+YGNga2BXYDdgm/4/a+qHmKuA66JDqBI2OBFw3Ag/NOouQpIqowkTvyaQPpjsSWro/wbYBZg2ys8tBeYCf+r/eh3wO+o/Tv5V4MvRIRRu/3Z/YCxpOdEar1pfb0at2JT4/1cjXUuBGV179bGmAMcC3yMtbyvr72wh8EPgtaRtU+toOrCY+PenV+w1nzaX8+9egdBe3b8sAFpT9QLgtO699DAbASeSJrR1++/vEeAjjLJpSqa+Tfz70yv+2pVhbGgIYN8N/Lnq5VB6d9DT10hvRJXvh9EBSjQGeB/wIWCTHj3nbODD/c/7SdJueit79Nzd9gPgLdEhFG4/0vBXS75OfMXiVa8r5x0lq9wD8ChpbLwONgfOIf7v9BrgmV1+rb0yDniQ+L9Tr9hr2DlCG7op2wMg5eF06jGZ7TDgBuCF0UFIa6evoh4Hoa0k7Q+hZhu2TR+uAJhEmlkrqfrqcHM/BvgVMCc6yCAzgF+QCpPc1eE9os7sBkwc+ofDFQC7M/LyQEnVsIC0nC1nh5DmMKx3c6qAycCZpLkyObuMNNFRzTWeVASsY7gCYM/uZ5FUgl8BK6JDdGAL4CdUs/EfMAX4KWmToVytAn4dHULh1mvbLQCkfJ0ZHaADY0iTjWdHB2nBTOC75L2rYM7vFZWjpQLg2T0IIqkzK4Czo0N04L3Ai6NDtOFg4KToEB04l3pMFlVx6xUAY4b8fixp56herQ1Xc4wFVkeHKGhTYF50iCEuY4Q9vituNnAno2/hWzXLgO2o3nuhVRcDz4sOoTBLSJNbn7oPD+0B2B4bfykH50cH6MCJ5Nf4Q5oP8P7oEB34bXQAhZpKOiTrKUMLgPVmCUqqpFxv5tNJ3f+5OoFqLVdsx3nRARRunTZ+aAHg+n+p+pYCV0aHKOjvSMf05moj4D3RIQq6inQIkpprnTMB7AGQ8vN78p3QVYd96d/G+vOncrCSNHdEzTViATDsiUGSKuX30QEKeg71+JCxDXBAdIiCLo8OoFAbLAD6gJ16m0VSAbkWAG+KDlCiN0YHKMgCoNl2YVDv1eBurG2Bv/Q8jprCZYDlWA3MIr+x3DHA/aQT/+rgEeBppF32crIRaQtpt3tvrq2A+2DdHoDtY7JIasNc8mv8IW1CUpfGH2AT0pBGbpYCN0WHUKgdBn4xuACoy/nXUp1dEx2goJx2/WvVkdEBCro2OoBCDVsA2AMgVd/10QEKyrWxHEmur+m66AAK9VRbP7gA2GGYb5RULTnevKcD+0eH6IJ9SPMxcpNrEalyDNsDYAEgVdsa4I/RIQrYn3pOOhtLnoXNDeQ7IVedW68AGENaBSCpuu4B5keHKCDHRrJV+0UHKGARcFd0CIVZbwhgE9JBF5Kq6+boAAXVuQDI9bXdEh1AYaYBM2FtAbBVXBZJLcrxpj0G2Dc6RBftx/o7quYgx/eSyrM1WABIObk1OkAB2wKzo0N00QzynD+V43tJ5dkKLACknOT4qa0Oe/+PJsczVHJ8L6k86/QAbBkYRFJr/hwdoIAcG8d25fgac3wvqTz2AEgZeRJ4MDpEATk2ju3K8TXOAx6PDqEw6xQAWwQGkTS6e8lz7XaOjWO7cnyNa0jLStVMm8PaAmCzwCCSRndXdICCdowO0AM7se7Jqrm4KzqAwmwGFgBSLu6ODlDALNI2wHU3hbSXSm7uig6gMJtCKgDGAxvHZpE0inujAxSwTXSAHto6OkABDgE012xgbB+pEsix+0pqkgeiAxSQY6NYVI6vNcdJpSrHWGCTgQJAUrXleLNuUg9Ajq81x/eUyrNZHzAnOoWkUeV4s87xU3FROb7WHN9TKs+cPhz/l3KQ4826SZOLc3ytOb6nVJ6ZfaS9rCVV27zoAAXkODO+qBxf60Ok/QDUTDP7SEt1JFXXEtJOgLnJsVEsKseh1JXAougQCrOxPQBS9S2IDlBQjo1iUbkWO7m+t9S5GX3AzOgUkkY0PzpAQbk2ikXkWuzk+t5S5+wBkDKwMDpAAROBjaJD9NAk8ny9FgDNNbMPmBqdQtKIHosOUMC06AABcryXOgTQXBv1AZOjU0ga0bLoAAXk+Gm4Uzm+5iXRARRmSh/pIAtJ1ZXjCoAcPw13KsfXnON7S+WYbAEgVV+ON+kcG8NO5fial0cHUBh7AKQM5HiTzrE7vFM5vuYc31sqxxTnAEjVl+NNOsfGsFM59gDk2LukckzuIy1fkVRdK6IDFDAhOkCA8dEBCsixuFQ5JvcB46JTSBpRjp/SxkYHCJDjvdQCoLnGWQBI1ZfjTdoCIA85vrdUjrF9NPMfqpSTHG/SOTaGncrxNefYu6RyjLMAkKovxwKgifeVHF9zju8tlcMeACkDOd6km3hfybEHIMf3lsoxrg/oi04haUQrowMU0MT7So6vOccVJirH2D5gTHQKSSPKcUndqugAAXJ8zROjAyhOH3m+aaUmybEAyLHXolM5vuYc31sqxyoLAKn6crxJ59gYdirH15zje0vlWGkBIFVfjjfpJt5XciwAHAJoLnsApAzkuMVsjo1hp3J8zTkWlyrHyj7yfNNKTZLjp7Qm3ldyfM0WAM21ygJAqj4LgDzk+JotAJprZR/wRHQKSSPKcQigiUOLFgDKyeN9wOPRKSSNKMebdBPvKzl+mMqxd0nleLwPWBadQtKIciwAFkcHCJDja87xvaVyLLMAkKovx09pOTaGncrxNVsANJdDAFIGpkcHKCDHxrBTOb7mGdEBFMYeACkDG0cHKCDHxrBTOb7mHN9bKseyPmBJdApJI5oZHaCAZTRvJUCO91J7AJpraR+wIDqFpBHl+CltDbA0OkQPPU6eywBnRQdQmMcsAKTqy7EAgDy7xIvK9bXm2LukciywAJCqbwIwNTpEAY9GB+ihx6IDFDAR2Cg6hMIstACQ8rBZdIACHowO0EMPRAco4GnRARRqvgWAlIccb9ZNKgByfK05vqdUngV9wPzoFJJGlePNOsdGsagcX+um0QEUamEf8HB0CkmjyrEAmBcdoIdyfK2bRwdQqHl9wEPRKSSNKscCIMdPxUXlOAcgx3klKs/DAwXA6ugkkka0dXSAAppUAOT4WreJDqAwq4BH+kibV+S4hEVqkhxv1vdFB+ih+6MDFPCM6AAK8wiwqq//Nw4DSNWWYw/AncCK6BA9sBq4IzpEATkWlSrHPIC+wb+RVFlbAmOjQ7RpBakIqLt7gCeiQ7SpD9gqOoTCPARrC4AcJ7BITTIeeHp0iAL+HB2gB3J8jZuTdgJUMz0AawuAewODSGrNM6MDFJBj49iu26IDFLBjdACFugcsAKSc7BwdoIAcG8d25fgad4oOoFD3ggWAlJMcb9q3RAfogVujAxSQ43tJ5bEAkDKTYw/AddR/n5FrowMUkON7SeVxCEDKzC7RAQpYCNweHaKL7iLPZdT2ADTbfbC2AHgEWBaXRVILtgRmRYco4A/RAboox9c2AzcBarJF9J8C3DfoD/8Sk0VSG54dHaCAC6IDdNFvowMU8GxgTHQIhXlq06rBBUCdu+mkusixADg3OkAXnR8doIAc30Mqz1NtvQWAlJc9ogMUcD9wY3SILriVPHtOLQCabdgCIMe9rKWm2Ss6QEE/jg7QBadHByhoz+gACvVU0WoBIOVlV9IkrtycER2gC3J8TdOAZ0WHUCiHAKRM9QH7RYco4GbgiugQJbqePIc19iW/Q6VUrmELgLuBx3ufRVKbnhsdoKAvRwco0SnRAQo6IDqAQi0hzckB1i0AVtOMbTul3OV6Ez+dehw9/ijww+gQBeX63lE55gJrBn7TN8x/lFRtB5COB87NE8Cno0OU4DPA0ugQBYzFAqDpbh78GwsAKT/TgH2iQxT0JfLcOnfAo+Tb/b83sHF0CIW6afBvLACkPB0WHaCgpcCHokN04MOkrVRzdHh0AIVbp423AJDylGsBAPB18txD/ybg1OgQHcj5PaNyrNPGD90Peiypup3SszhqirHkeyzsplRv8tpy0sFAOY5FA+wGXA1Mig7SopXAgeRZuEC6pz9KPn/fKt8S0h4iT92Hh/YArCLPta1S00wAXhiks4wNAAAWTUlEQVQdogM3kbrTc/ER8m38AY7Axr/prmfIh7ChBQDAdb3JIqlDL48O0KH/Ac6KDtGCc4BPRIfoUO7vFXVuvbbdAkDK18vIe1e31cAbgD9FBxnBn4HXk3pHc9UHvDQ6hMJdP/QPhisAru1BEEmdmwPsHx2iQ4uBF1PNrcjvIWWbHx2kQ/sCT4sOoXAt9QDcCKzofhZJJXhVdIAS3AccSrV2Ir0deB55Hvc7VB3eI+rMcoZZ5TdcAfAkQ3YLklRZr2X4f8e5uY/0SbUKJ+ydRcpyd3SQEvSR3iNqtrmktn0dG7pxXNndLJJKsgVwSHSIkiwmNVbvAh4JeP7HgHcDR5F/t/+Ag4GtokMo3LAncVoASPl7fXSAEq0BvgbsBJxMKgq6bQnwWWBH4CsMOiylBur03lBxw7bpQzcCGvAs3A9A5XIjoO5ZQOoJqONx3jOAd5Aasr3Z8D2riGtIp/p9nfR3WDeTSEe/zooOonC7MszQ/ob+MfWRusNmdDORGsUCoLuOA74THaLLtgZeBOxHGqPfibQhUiuWk5b0/YH0aegc6jHGP5I3AadFh1C4BcBshrn/jlRNn497R6s8FgDddRlwUHSIHhsDbA5sA0zvvyb2//kTpOGDRcBdwIPk+/4r6mLSSgY129mk5azrGTfCD12BBYCUiwNJQ3dV3lSnbGuAv/ZfWtdOpAmA0gbn9I20fOjSLgSR1D3viQ6gyng35c6XUL422JaP9AaZRpoHMFIvgdQqhwC6bxmpOzxiCZ2qYyZwLzA1OojCrQA2ZgOnho7UA7CYYfYOllRZU4C/iw6hcMdj46/kakY4Mny0HcQuKTeLpC57Hx772mTjgROiQ6gyRmzDLQCketkUeGt0CIV5C+78p7V+N9J/HG2SyCzgYeqx17hiOQegd+4Fnskwe3+r1saTDlTaLjqIKmEVsAkjbHI1WsP+GHBDmYkkdd1WwDujQ6jn3o6Nv9a6hlF2uGzlk/155WSR1EP/gnMBmmQi8K/RIVQpo7bdFgBSPT0deH90CPXM35O2SpYGjNp2t7JRxCTSUMDkjuOoyZwD0HtLSCfcPRAdRF01B7gNz27RWktJ+/+POA+olR6AJ3BXQClHU4H/jA6hrvsYNv5a14W0MAm41dn953aWRVKQtwLPiQ6hrtkDJ3xqfS0N3bdaAJzdQRBJcfqAr+GW3nU0Fvhq/1dpsHNa+aZWC4A/AXcWzyIp0LNxQmAdvRfYNzqEKucO4NZWvrGdDX5+VSyLpAr4CLBDdAiVZmvS2L801JmtfqMFgNQMk4Hvk3aLU976gG+RTmyVhjqr1W9spwC4kHRCoKQ87QN8KDqEOvZvwAuiQ6iSFtHGqr12CoAngfPbjiOpSv4NODQ6hArbF4s4bdjZwPJWv7ndQ35aHluQVEl9wHdJOwUqL08DfozDONqwX7bzza3sBDjYTNKOaBPa/DnJnQCr5VrgYGBZdBC1ZBJpGHb/6CCqrOWkInF+qz/Qbg/AAuDiNn9GUvXsBXyb9j8EKMYp2PhrZOfRRuMP7RcAAD8p8DOSqufVwCejQ2hU/wW8IzqEKu+n7f5Akep/M+B+3H1K7XEIoLo+hGcGVNVJwMnRIVR5K4HNgUfa+aEiPQDzgMsK/JykavoYqaFRtbwXG3+15iLabPyhWAEAcEbBn5NUTZ8B/jU6hJ7yT8Dno0MoG4Xa5KITgOYAf8UDRtQ6hwDycApwIvn+v8rdGOATpAJAasVyYAvg0XZ/sGgPwMO0eNygpKy8l7RPwOToIA00ibQyw8Zf7TibAo0/FC8AAH7Qwc9Kqq7XA78Hto0O0iBbksZx3xycQ/n5ftEf7GQN8DTgQWBKB4+h5nAIID+PkIoBtwDvrkOBH5GGVqV2LCZt/lNoQ69OegAW0+a2g5KysglwLnAqFvrdMJ50TPN52PirmJ/TwW6enRQAAKd1+POSqm0M8C7gKmDv4Cx18izgSuDDuKeKiuuoDe60ADgbuK/Dx5BUfbsCVwCfA2YEZ8nZRqRP/VcDe8ZGUebuAy7o5AE6LQBWAd/r8DEk5WEc8PfAHaSlgp3eP5pkDHAscDPpU//E2DiqgW+R2uDCyvgH/E1gTQmPIykPs4HPAjeQGjUPFBrZ4aTu/tOBrYKzqB7WkJaMdqSMAuDPpCVDkprlWaRG7RrgGOwRGGwM8DLgD6RJfvvExlHNXELqietIWf9gv1XS40jKz57Az4DbgH8ENo6NE2oG6VyFW0mrpGz41Q3fLONByuq6m0o6IXB6SY+n+nEfgOZYRuoZ+B5wIR2OU2agDzgEeCPwOtJEP6lb5pM2jiq8/G9AWT0AS3BJoKRkCvBWUtf3faSVAwdTr7NDxgLPJR2idC9pNvY7sPFX932HEhp/KHfyzrOAG0t8PNWLPQBaQNpV8GxScXBPbJy2PR04Ajiy/+us2DhqoDXAbqTVJB0re/buJaRKXxrKAkBD3U/aW+D3pMlyfyIVCVUwnXSj3Q84oP9yBr+iXUTaOroUZRcAbySdJCYNZQGgVvwVuAmYC/yF1EtwH6mbvez/B5uQGvWtgG2AZ5Aa/V2ArUt+LqkMrwd+WNaDlV0ATCT9Q3Vfaw1lAaBOLSdNgBp8Le3/86WDvmcNazfamUw6ZncyaXXC4GtSr4JLJZhHKkyXl/WAZU/KeRL4CvChkh9X+TuXfDeMmhAdQED6/7BZ/yU1zVcosfGH7uzgtTlwF940JUkqw5OkIaoHy3zQbuzc9QBpDbAkSerc9ym58Yfu7eG9F2l7UEmS1Jk9gevLftBu7d19LXBplx5bkqSmuIAuNP7Q3cM7Tu7iY0uS1ASf7dYDd/MYzz7SzoC7dvE5JEmqq5tJu+x2ZQl1N3sAVpP2yZYkSe37BF3cP6WbPQAA40lnFruFpiRJrbsP2J6S1/4P1s0eAIAVwOe7/BySJNXN/9DFxh+63wMAMA24m7T1piRJGtljpPMplnTzSbrdAwCwGPhCD55HkqQ6+CxdbvyhNz0AADNI2wPP7NHzSZKUo4WkbX+7fjR2L3oAIL2gU3r0XJIk5eoz9KDxh971AED69H8n9gJIkjScnn36h971AEB6QV/q4fNJkpSTk+lR4w+97QEAmA38BZje4+eVJKnK5gPb0cMCoJc9AACP4u6AkiQN9d/0sPGH3vcAAEwFbgc2C3huSZKq5iFgB9Ky+Z4Z28sn67ccWAkcGfDckiRVzQeBS3v9pBE9AAATgFuAbYOeX5KkKrgL2Bl4stdPHNEDALAKWAQcHfT8kiRVwYnAtRFPHNUDAKn4uAbYIzCDJElRrgeeQ/pQ3HO9XgUw2CrgHwKfX5KkSCcR1PhDbAEAcCHws+AMkiT12unAxZEBIocABmwH3ARMig4iSVIPPAHsQpoAGCZqEuBg84FpwEHRQSRJ6oFPUIHe7yr0AEAqAG4FNo8OIklSF91PWva3JDpIFXoAIG0ONB+XBUqS6u0E4OroEFCdHgBIExKvAPaJDiJJUhdcCRwArIkOAvGrAAZbTdoQoRJ/MZIklWgN8AEq1MZVqQAAuJy0NEKSpDr5LgH7/Y+kSkMAA7YB5gJTooNIklSCJaSJf/dHBxmsKpMAB1tIOi3wiOggkiSV4IPAedEhhqpiDwDAONKEwL2jg0iS1IGrSBP/wrb83ZCqFgCQDgm6ChgfHUSSpAJWAvsC10UHGU4VhwAGzAM2wh0CJUl5+jjw/egQG1LlHgCAiaTjEneODiJJUhv+TOrJfiI6yIZUbRngUE8Cf0eF1k1KkjSKNcC7qXDjD9UeAhhwN7AVsFd0EEmSWnAqcEp0iNFUfQhgwAzSkcFPjw4iSdIIHgB2BRZEBxlN1YcABiwETooOIUnSKE4gg8Yf8ikAAH5MBc5PliRpA7Jqp3IZAhiwOfBHYJPoIJIkDfIQsDtpCXsWcuoBgDS28hZcFSBJqo41wDvJqPGHPFYBDHU7qSfgOdFBJEkCvgR8NjpEu3IbAhgwBbgGNwiSJMW6mfSBdFl0kHblNgQwYBnwRmB5dBBJUmM9CbyBDBt/yHMIYMADwArg8OggkqRG+iAZzfofKtchgAF9pDOWXxAdRJLUKOcBRwKro4MUlXsBAGl3wBuA2dFBJEmNMJ900M+90UE6kescgMHuB94VHUKS1BjHk3njD3nPARjsZmAbYM/oIJKkWvsq8MnoEGWowxDAgKnAlaRDGCRJKtuNwAHA0uggZahTAQDwTOAq0umBkiSVZQGwD2kzulqowxyAwW7DrYIlSeVaA7ydGjX+UJ85AIPdCkwADo4OIkmqhY8BX44OUba6DQEM6APOAl4cHUSSlLXzSG3JquggZatrAQAwizQfYLvoIJKkLN1N2uf/kegg3VC3OQCDPQa8kkz3aJYkhXoCeBU1bfyh3gUApB0Cj48OIUnKzntIp87WVh0nAQ71R+BppG4cSZJGcwrw8egQ3VbnOQCDTQQuAvYPziFJqrbfA4fSgOPmm1IAAMwh/Y/dITqIJKmS7iTt9DcvOkgv1H0OwGAPA0eRTnGSJGmwhaQ2ohGNPzSrAIB0aNArgCejg0iSKmMFacb/n6KD9FITJgEOdTdwB2mJYJOGQCRJ6xvY5vfn0UF6rYkFAKQqbwzw/OAckqRYHwa+EB0iQlMLAICLgW2BPaKDSJJC/AA4KTpElKZ3gY8HfgMcFh1EktRTFwMvosFzwppeAABMBy4F/iY6iCSpJ+YCB9HwVWEWAMkzgCuAzYJzSJK660HSpnB3RweJ1rRlgBtyF/AS0jpQSVI9LSAd7dv4xh8sAAa7FjgSWBIdRJJUumWkjX6ujw5SFRYA67oCOJp0DKQkqR4eB14G/C46SJVYAKzvAuAYGjwzVJJqZAXwGuDC6CBVYwEwvHOANwAro4NIkgpbBbwFOCs6SBU1eSOg0dxMmihyNK6WkKTcrAGOB74THaSqLABGdgPwKGmFgCQpD2uA9wKnRgepMguA0V1FWh54ZHQQSVJL/gX4bHSIqrMAaM0VpL+rQ6KDSJJG9B/Af0WHyIEFQOsuJC0PPDw6iCRpWJ8E/j06RC4sANpzGWk96eE4MVCSquT/9l9qkQVA+y4D5pEmBloESFKsNcA/AJ+KDpIbC4BirgbuIG0r6V4KkhRjFfBO4CvRQXLkJ9jOHA38CJgYHUSSGmY58Ebgx9FBcmUB0LmXkN6Ak6ODSFJDPAm8FvhFdJCcWQCU4xDgl8C06CCSVHNLSee1nB8dJHcWAOXZBzgbmBUdRJJqagHwUuD30UHqwAls5bkKOIK0QkCSVK4HgRdg418aC4ByXQvsD8yNDiJJNXIT6d56XXSQOrEAKN9dwIF49rQkleEC4CDS6awqkQVAdywgHR7kMZSSVNz/Ai8m3VNVMjcC6p5VpCUqjwOH4YRLSWrVGuCjwPtJ91J1gY1Sb7yWVMlOCs4hSVW3nLS732nRQerOAqB3DgR+DmwSHUSSKmo+8ErgouAcjWAB0FvPBH7V/1WStNadpDX+N0cHaQonAfbWbcDzgCuig0hShfyetMzPxr+HnATYe0uAb5MOEDooOIskRfsqaZ7UouggTeMQQKw3AacCU6KDSFKPPQGcAHwzOkhTWQDEezbwE2C76CCS1CP3AK8mbaGuIM4BiHc96SChc6KDSFIP/AbYExv/cM4BqIbHge/1f30B9sxIqp81wKeAdwDLgrMIG5oqehlpA4yZ0UEkqSSLgLcCPwvOoUEsAKrpmaR5AX8THUSSOnQLaXMfl/hVjHMAquk24LnAN6KDSFIHvgY8Bxv/SrIHoPpeQfpHNDs6iCS1aAHwbuCH0UG0YRYAedgM+BbpWExJqrLfAscB90cH0chcBZCHpcD3SQdlHAqMi40jSetZAfwn6SQ/d/XLgD0A+XkWqRhwgqCkqrgZeCNwXXQQtc4egPw8RBoOmA7si0WcpFinAUeTdvdTRmw88vYiUjGweXQQSY3zMGlTn19GB1ExLgPM2znAXsCZ0UEkNcrAPiU2/hmzAMjfg6Tut9eQKnJJ6pYHgWNJB/nMC86iDjkHoD7mAt8GngbsEZxFUr2sAb4LHAVcE5xFJXEOQD29CjiFVAxIUiduBd4FXBIdROWyB6Cebga+DkwhbcPpUI+kdq0E/ht4HXBHcBZ1gT0A9bcXcCqpEJCkVlwH/C1299eaPQD19wDwv8AS4EBgfGgaSVW2FPggaTc/t/KtOQuAZlgNXEaaJDgHJwlKWtca4MfAMaTlxWti46gXHAJopucDXyBtKyyp2a4GTiJ9SFCDODmsmS4C9iT9o18YG0VSkL8CxwP7YePfSA4BNNdq4ErWnivwbCwIpSZ4Avgk8FrgCuzubyyHADRgZ+CjpF2+JNXTWcDfA3dGB1E8CwANdTjwPzhRUKqT60hDfm7mo6fY5auhzgf2Bt4G3B2cRVJn7gSOI+0DYuOvddgDoJGMJxUCH8Ejh6WcPELqyfscacxfWo8FgFqxEfBe4J+BmcFZJG3YYuBLwMeBRcFZVHEWAGrHNOA9pJ3CNg7OImmtgYb/k8D84CzKhAWAirAQkKrBhl+FWQCoEzOBE0nLimYFZ5Ga5FHS+P7ncTMvFWQBoDJMJG0q8q/ATsFZpDp7kHS658nY8EuqkD7g5cClpN3FvLy8yrluI/W2TUSSKu5A4GfAKuJvnl5euV4XkIpqe2slZWc70ljlUuJvpl5eOVxPAqeTDumRusaqUr2yCWnlwAnApsFZpCqaB3wF+HL/r6WusgBQr00AjgbeBRyG70HpGuCrwGnA48FZ1CDefBVpR+DtwDuB2cFZpF5aCPwIOAW4MTiLGsoCQFUwBXgN6dyBg/F9qXpaQzqQ55vAj4FlsXHUdN5oVTVbAW8Ajge2Dc4ileF+4LvA14Hbg7NIT7EAUFX1AUcAbybNGZgaG0dqy2Lg56Rx/d8Cq2PjSOuzAFAOJrFuMTAhNo40rFXAhaRG/6fAktg40sgsAJSb2cCrgWOB5wNjQ9Oo6VYCF5HW7f8EeCw0jdQGCwDlbBbwMlIx8ELsGVBvrAKuAM4Afohr9pUpCwDVxUzSlqlHkYqB6bFxVDOLgHOAM4Ff4kE8qgELANXRWOAAUu/AUcAusXGUqb8A5wNnkRr/5bFxpHJZAKgJdgaOJE0kPATYKDaOKmoJcDFwHvAb4M+xcaTusgBQ00wAnksqBl4I7IkTCZtqFXAtcC6p0b8cP+WrQSwA1HRTgf2Bg0hHGB+MZ67X1SrgeuAy4FLS+nxn7auxLACkdU0l9RAcSCoM9gNmhCZSUQuAK0kz9i8lfcJfGppIqhALAGlkfaQ5BPuRCoJ9gd2A8ZGhtJ4VwE2sbfCvBG4h7b8vaRgWAFL7xpNOMty7/9oV2Iu0L4G6bwlwKzCXdJTuwOVRulIbLACk8mxBKgZ2G/R1d2BaZKiMPQncQfpkP3fQ15txb32pYxYAUneNAbYEdgC27/868OvtsThYRFpvf3v/dcegX9+PXfhS11gASLE2JhUI25COQt6y/+sWwGbAnP6rLypgQauBh/uvecBfgXv7r/uAu/t/vSAqoNR0FgBS9Y1lbSEwhzTXYOYw1xRSj8IkYDJpw6MJpFUMgwuIgf8+2OPAE4N+v5q03e1y0sz5ZaQu+cX9v14w6Jo/6OtAo/8QdtNLlfb/AX/gVxNYEp+1AAAAAElFTkSuQmCC" vertex="1" parent="1">
          <mxGeometry x="1289.88" y="470" width="30" height="30" as="geometry" />
        </mxCell>
      </root>
    </mxGraphModel>
  </diagram>
</mxfile>
